<?xml version="1.0" encoding="UTF-8" standalone="no"?>
<!-- Created with Inkscape (http://www.inkscape.org/) -->

<svg
   xmlns:dc="http://purl.org/dc/elements/1.1/"
   xmlns:cc="http://creativecommons.org/ns#"
   xmlns:rdf="http://www.w3.org/1999/02/22-rdf-syntax-ns#"
   xmlns:svg="http://www.w3.org/2000/svg"
   xmlns="http://www.w3.org/2000/svg"
   xmlns:sodipodi="http://sodipodi.sourceforge.net/DTD/sodipodi-0.dtd"
   xmlns:inkscape="http://www.inkscape.org/namespaces/inkscape"
   width="210mm"
   height="297mm"
   viewBox="0 0 744.09448819 1052.3622047"
   id="svg6474"
   version="1.1"
   inkscape:version="0.91 r13725"
   sodipodi:docname="Focus.svg">
  <defs
     id="defs6476" />
  <sodipodi:namedview
     id="base"
     pagecolor="#ffffff"
     bordercolor="#666666"
     borderopacity="1.0"
     inkscape:pageopacity="0.0"
     inkscape:pageshadow="2"
     inkscape:zoom="0.35"
     inkscape:cx="375"
     inkscape:cy="520"
     inkscape:document-units="px"
     inkscape:current-layer="layer1"
     showgrid="false"
     inkscape:window-width="1920"
     inkscape:window-height="1017"
     inkscape:window-x="-8"
     inkscape:window-y="-8"
     inkscape:window-maximized="1" />
  <metadata
     id="metadata6479">
    <rdf:RDF>
      <cc:Work
         rdf:about="">
        <dc:format>image/svg+xml</dc:format>
        <dc:type
           rdf:resource="http://purl.org/dc/dcmitype/StillImage" />
        <dc:title></dc:title>
      </cc:Work>
    </rdf:RDF>
  </metadata>
  <g
     inkscape:label="Ebene 1"
     inkscape:groupmode="layer"
     id="layer1">
    <path
       inkscape:connector-curvature="0"
       style="fill:#000000;fill-opacity:1;stroke:#000000;stroke-width:0;stroke-miterlimit:4;stroke-dasharray:none;stroke-opacity:1"
       d="m 110.65081,48.727299 0,109.095711 7.57617,0 0,-101.519541 101.52149,0 0,-7.57617 -109.09766,0 z m 401.03125,0 0,7.57617 101.51953,0 0,101.519541 7.57617,0 0,-109.095711 -109.0957,0 z M 110.65081,449.7566 l 0,109.09766 109.09766,0 0,-7.57617 -101.52149,0 0,-101.52149 -7.57617,0 z m 502.55078,0 0,101.52149 -101.51953,0 0,7.57617 109.0957,0 0,-109.09766 -7.57617,0 z"
       id="rect6392" />
    <path
       style="fill:#000000;fill-opacity:1;stroke:#000000;stroke-width:0;stroke-miterlimit:4;stroke-dasharray:none;stroke-opacity:1"
       d="m 361.78654,229.14723 0,70.71483 -70.71484,0 0,7.85743 70.71484,0 0,70.71484 7.85743,0 0,-70.71484 70.7129,0 0,-7.85743 -70.7129,0 0,-70.71483 -7.85743,0 z"
       id="rect6446"
       inkscape:connector-curvature="0" />
  </g>
</svg>
