<?xml version="1.0" encoding="UTF-8" standalone="no"?>
<!-- Created with Inkscape (http://www.inkscape.org/) -->

<svg
   xmlns:dc="http://purl.org/dc/elements/1.1/"
   xmlns:cc="http://creativecommons.org/ns#"
   xmlns:rdf="http://www.w3.org/1999/02/22-rdf-syntax-ns#"
   xmlns:svg="http://www.w3.org/2000/svg"
   xmlns="http://www.w3.org/2000/svg"
   xmlns:sodipodi="http://sodipodi.sourceforge.net/DTD/sodipodi-0.dtd"
   xmlns:inkscape="http://www.inkscape.org/namespaces/inkscape"
   width="210mm"
   height="297mm"
   viewBox="0 0 744.09448819 1052.3622047"
   id="svg5233"
   version="1.1"
   inkscape:version="0.91 r13725"
   sodipodi:docname="FW.svg">
  <defs
     id="defs5235" />
  <sodipodi:namedview
     id="base"
     pagecolor="#ffffff"
     bordercolor="#666666"
     borderopacity="1.0"
     inkscape:pageopacity="0.0"
     inkscape:pageshadow="2"
     inkscape:zoom="1.4"
     inkscape:cx="331.14658"
     inkscape:cy="733.65136"
     inkscape:document-units="px"
     inkscape:current-layer="layer1"
     showgrid="false"
     inkscape:window-width="1920"
     inkscape:window-height="1017"
     inkscape:window-x="-8"
     inkscape:window-y="-8"
     inkscape:window-maximized="1" />
  <metadata
     id="metadata5238">
    <rdf:RDF>
      <cc:Work
         rdf:about="">
        <dc:format>image/svg+xml</dc:format>
        <dc:type
           rdf:resource="http://purl.org/dc/dcmitype/StillImage" />
        <dc:title></dc:title>
      </cc:Work>
    </rdf:RDF>
  </metadata>
  <g
     inkscape:label="Ebene 1"
     inkscape:groupmode="layer"
     id="layer1">
    <path
       style="fill:#000000;fill-opacity:1;stroke:#000000;stroke-width:0;stroke-miterlimit:4;stroke-dasharray:none;stroke-opacity:1"
       d="M 366.42857,8.0767303 A 323.57144,323.57144 0 0 0 42.856305,331.64704 323.57144,323.57144 0 0 0 366.42857,655.2193 323.57144,323.57144 0 0 0 690.00084,331.64704 323.57144,323.57144 0 0 0 366.42857,8.0767303 Z m 0,47.1425777 a 54.285713,54.285713 0 0 1 54.28516,54.285152 54.285713,54.285713 0 0 1 -54.28516,54.28711 54.285713,54.285713 0 0 1 -54.28516,-54.28711 54.285713,54.285713 0 0 1 54.28516,-54.285152 z M 157.8563,217.36188 a 54.285713,54.285713 0 0 1 54.28711,54.28516 54.285713,54.285713 0 0 1 -54.28711,54.28711 54.285713,54.285713 0 0 1 -54.28515,-54.28711 54.285713,54.285713 0 0 1 54.28515,-54.28516 z m 415,0 a 54.285713,54.285713 0 0 1 54.28711,54.28516 54.285713,54.285713 0 0 1 -54.28711,54.28711 54.285713,54.285713 0 0 1 -54.28515,-54.28711 54.285713,54.285713 0 0 1 54.28515,-54.28516 z M 238.87779,453.44391 a 54.285713,54.285713 0 0 1 54.28516,54.28516 54.285713,54.285713 0 0 1 -54.28516,54.28711 54.285713,54.285713 0 0 1 -54.28516,-54.28711 54.285713,54.285713 0 0 1 54.28516,-54.28516 z m 255,0 a 54.285713,54.285713 0 0 1 54.28516,54.28516 54.285713,54.285713 0 0 1 -54.28516,54.28711 54.285713,54.285713 0 0 1 -54.28516,-54.28711 54.285713,54.285713 0 0 1 54.28516,-54.28516 z"
       id="path5241"
       inkscape:connector-curvature="0" />
  </g>
</svg>
