<?xml version="1.0" encoding="iso-8859-1"?>
<!-- Generator: Adobe Illustrator 16.0.0, SVG Export Plug-In . SVG Version: 6.00 Build 0)  -->
<!DOCTYPE svg PUBLIC "-//W3C//DTD SVG 1.1//EN" "http://www.w3.org/Graphics/SVG/1.1/DTD/svg11.dtd">
<svg version="1.1" id="Capa_1" xmlns="http://www.w3.org/2000/svg" xmlns:xlink="http://www.w3.org/1999/xlink" x="0px" y="0px"
	 width="402.995px" height="402.996px" viewBox="0 0 402.995 402.996" style="enable-background:new 0 0 402.995 402.996;"
	 xml:space="preserve">
<g>
	<g>
		<g>
			<path d="M232.025,182.955h134.667c5.521,0,10-4.477,10-10v-19.024c0-5.523-4.479-10-10-10h-78.046L400.067,32.51
				c3.903-3.905,3.903-10.237,0-14.142L386.614,4.915c-1.953-1.953-4.514-2.929-7.071-2.929s-5.119,0.977-7.071,2.929
				L261.051,116.336V38.289c0-5.522-4.478-10-10-10h-19.023c-5.522,0-10,4.478-10,10v134.666
				C222.025,178.478,226.503,182.955,232.025,182.955z"/>
			<path d="M114.351,143.931H36.305c-5.523,0-10,4.477-10,10v19.024c0,5.523,4.477,10,10,10h134.666c5.523,0,10-4.477,10-10V38.289
				c0-5.522-4.477-10-10-10h-19.024c-5.523,0-10,4.478-10,10v78.047L30.522,4.915c-1.952-1.953-4.512-2.929-7.07-2.929
				c-2.56,0-5.119,0.977-7.072,2.929L2.929,18.368c-3.905,3.905-3.905,10.237,0,14.142L114.351,143.931z"/>
			<path d="M232.025,374.707h19.023c5.523,0,10-4.477,10-10V286.66L372.47,398.082c3.905,3.904,10.238,3.904,14.145,0l13.452-13.453
				c3.903-3.905,3.903-10.237,0-14.143l-111.42-111.421h78.046c5.521,0,10-4.479,10-10v-19.024c0-5.521-4.479-10-10-10H232.025
				c-5.521,0-10,4.479-10,10v134.666C222.025,370.23,226.503,374.707,232.025,374.707z"/>
			<path d="M16.38,398.082c3.905,3.904,10.238,3.904,14.142,0L141.943,286.66v78.047c0,5.523,4.478,10,10,10h19.025
				c5.523,0,10-4.477,10-10V230.041c0-5.521-4.477-10-10-10H36.304c-5.522,0-10,4.479-10,10v19.024c0,5.521,4.478,10,10,10h78.047
				L2.929,370.486c-3.905,3.904-3.905,10.236,0,14.143L16.38,398.082z"/>
		</g>
	</g>
</g>
<g>
</g>
<g>
</g>
<g>
</g>
<g>
</g>
<g>
</g>
<g>
</g>
<g>
</g>
<g>
</g>
<g>
</g>
<g>
</g>
<g>
</g>
<g>
</g>
<g>
</g>
<g>
</g>
<g>
</g>
</svg>
