<?xml version="1.0" encoding="UTF-8" standalone="no"?>
<!-- Created with Inkscape (http://www.inkscape.org/) -->

<svg
   xmlns:dc="http://purl.org/dc/elements/1.1/"
   xmlns:cc="http://creativecommons.org/ns#"
   xmlns:rdf="http://www.w3.org/1999/02/22-rdf-syntax-ns#"
   xmlns:svg="http://www.w3.org/2000/svg"
   xmlns="http://www.w3.org/2000/svg"
   xmlns:sodipodi="http://sodipodi.sourceforge.net/DTD/sodipodi-0.dtd"
   xmlns:inkscape="http://www.inkscape.org/namespaces/inkscape"
   id="svg4229"
   version="1.1"
   inkscape:version="0.91 r13725"
   width="218"
   height="218"
   viewBox="0 0 218 218"
   sodipodi:docname="PHD2.svg">
  <metadata
     id="metadata4235">
    <rdf:RDF>
      <cc:Work
         rdf:about="">
        <dc:format>image/svg+xml</dc:format>
        <dc:type
           rdf:resource="http://purl.org/dc/dcmitype/StillImage" />
        <dc:title></dc:title>
      </cc:Work>
    </rdf:RDF>
  </metadata>
  <defs
     id="defs4233" />
  <sodipodi:namedview
     pagecolor="#ffffff"
     bordercolor="#666666"
     borderopacity="1"
     objecttolerance="10"
     gridtolerance="10"
     guidetolerance="10"
     inkscape:pageopacity="0"
     inkscape:pageshadow="2"
     inkscape:window-width="1920"
     inkscape:window-height="1017"
     id="namedview4231"
     showgrid="false"
     inkscape:zoom="6.123934"
     inkscape:cx="119.34991"
     inkscape:cy="153.80647"
     inkscape:window-x="-8"
     inkscape:window-y="-8"
     inkscape:window-maximized="1"
     inkscape:current-layer="layer1" />
  <g
     inkscape:groupmode="layer"
     id="layer1"
     inkscape:label="Layer 1"
     style="display:inline">
    <path
       style="display:inline;fill:#000000;fill-opacity:1;stroke:#000000;stroke-width:0;stroke-miterlimit:4;stroke-dasharray:none;stroke-opacity:1"
       d="M 70.381044,2.1454661 A 62.194328,62.194328 0 0 0 8.1857305,64.338825 62.194328,62.194328 0 0 0 70.381044,126.53414 62.194328,62.194328 0 0 0 132.5744,64.338825 62.194328,62.194328 0 0 0 70.381044,2.1454661 Z m -0.97656,4.8535151 0,30.6113288 a 26.78017,26.78017 0 0 0 -25.76563,25.625 l -30.580078,0 A 57.375832,57.375832 0 0 1 69.404484,6.9989812 Z m 1.95117,0.013672 A 57.375832,57.375832 0 0 1 127.71698,63.23531 l -30.613286,0 A 26.78017,26.78017 0 0 0 71.355654,37.596638 l 0,-30.5839848 z m -22.57031,49.1953128 4.39062,0 c 0.97084,0 1.79301,0.08337 2.4668,0.25 0.67379,0.15939 1.27132,0.413959 1.79297,0.761719 0.61583,0.41297 1.09054,0.927138 1.42382,1.542968 0.34051,0.61583 0.51172,1.394078 0.51172,2.335938 0,0.717263 -0.12729,1.38417 -0.38086,2 -0.24634,0.60858 -0.59378,1.136747 -1.04297,1.585937 -0.55787,0.55787 -1.21778,0.979169 -1.97851,1.261719 -0.76073,0.27532 -1.71971,0.412109 -2.87891,0.41211 l -2.15234,0 0,6.03125 -2.15234,0 0,-16.181641 z m 13.43359,0 2.15039,0 0,6.347656 8.07617,0 0,-6.347656 2.15039,0 0,16.181641 -2.15039,0 0,-7.921876 -8.07617,0 0,7.921876 -2.15039,0 0,-16.181641 z m 16.73633,0 4.04101,0 c 1.57942,0 2.83435,0.115816 3.76172,0.347656 0.93461,0.22459 1.72433,0.537077 2.36914,0.935547 1.10125,0.68829 1.95839,1.603327 2.57422,2.748047 0.61583,1.14472 0.92383,2.504002 0.92383,4.076172 0,1.47075 -0.32199,2.80457 -0.9668,4 -0.63757,1.19544 -1.48967,2.12195 -2.55469,2.78125 -0.73899,0.45644 -1.56368,0.785411 -2.47656,0.988281 -0.90563,0.20286 -2.1007,0.304687 -3.58594,0.304688 l -4.08593,0 0,-16.181641 z m -28.01758,1.847656 0,6.466797 1.81445,0 c 0.86941,0 1.57576,-0.0764 2.11914,-0.228516 0.54337,-0.15939 0.98565,-0.40948 1.32617,-0.75 0.34051,-0.34776 0.57915,-0.713666 0.7168,-1.097656 0.14491,-0.38398 0.21875,-0.814789 0.21875,-1.292969 0,-0.55786 -0.0993,-1.044061 -0.29492,-1.457031 -0.19561,-0.41296 -0.49215,-0.748945 -0.89063,-1.009766 -0.34777,-0.2246 -0.74611,-0.384325 -1.19531,-0.478515 -0.44194,-0.10143 -1.00255,-0.152344 -1.68359,-0.152344 l -2.13086,0 z m 30.16797,0 0,12.486328 2.02148,0 c 1.03604,0 1.93905,-0.0764 2.70703,-0.228515 0.77522,-0.15215 1.4841,-0.434687 2.12891,-0.847657 0.8042,-0.51439 1.40622,-1.19082 1.80469,-2.03125 0.40573,-0.84042 0.60937,-1.891703 0.60937,-3.152343 0,-1.26788 -0.22211,-2.335665 -0.66406,-3.205078 -0.44195,-0.8694 -1.10187,-1.554788 -1.97852,-2.054688 -0.63756,-0.36226 -1.31399,-0.61235 -2.03125,-0.75 -0.71726,-0.14491 -1.57635,-0.216797 -2.57617,-0.216797 l -2.02148,0 z m -68.062502,7.390625 30.611332,0 a 26.78017,26.78017 0 0 0 25.75,25.638672 l 0,30.582031 A 57.375832,57.375832 0 0 1 13.043152,65.446247 Z m 84.078122,0 30.580076,0 A 57.375832,57.375832 0 0 1 71.353694,121.68258 l 0,-30.611333 a 26.78017,26.78017 0 0 0 25.76758,-25.625 z"
       id="rect4787-3"
       inkscape:connector-curvature="0" />
  </g>
</svg>
