<?xml version="1.0" encoding="UTF-8" standalone="no"?>
<!-- Created with Inkscape (http://www.inkscape.org/) -->

<svg
   xmlns:dc="http://purl.org/dc/elements/1.1/"
   xmlns:cc="http://creativecommons.org/ns#"
   xmlns:rdf="http://www.w3.org/1999/02/22-rdf-syntax-ns#"
   xmlns:svg="http://www.w3.org/2000/svg"
   xmlns="http://www.w3.org/2000/svg"
   xmlns:sodipodi="http://sodipodi.sourceforge.net/DTD/sodipodi-0.dtd"
   xmlns:inkscape="http://www.inkscape.org/namespaces/inkscape"
   width="210mm"
   height="297mm"
   viewBox="0 0 744.09448819 1052.3622047"
   id="svg6474"
   version="1.1"
   inkscape:version="0.92.4 (5da689c313, 2019-01-14)"
   sodipodi:docname="AutofocusAfterTime.svg">
  <defs
     id="defs6476" />
  <sodipodi:namedview
     id="base"
     pagecolor="#ffffff"
     bordercolor="#666666"
     borderopacity="1.0"
     inkscape:pageopacity="0.0"
     inkscape:pageshadow="2"
     inkscape:zoom="0.7"
     inkscape:cx="457.95122"
     inkscape:cy="541.00333"
     inkscape:document-units="px"
     inkscape:current-layer="layer1"
     showgrid="false"
     inkscape:window-width="2560"
     inkscape:window-height="1377"
     inkscape:window-x="-8"
     inkscape:window-y="-8"
     inkscape:window-maximized="1" />
  <metadata
     id="metadata6479">
    <rdf:RDF>
      <cc:Work
         rdf:about="">
        <dc:format>image/svg+xml</dc:format>
        <dc:type
           rdf:resource="http://purl.org/dc/dcmitype/StillImage" />
        <dc:title></dc:title>
      </cc:Work>
    </rdf:RDF>
  </metadata>
  <g
     inkscape:label="Ebene 1"
     inkscape:groupmode="layer"
     id="layer1">
    <path
       inkscape:connector-curvature="0"
       style="fill:#000000;fill-opacity:1;stroke:#000000;stroke-width:0;stroke-miterlimit:4;stroke-dasharray:none;stroke-opacity:1"
       d="m 110.65081,48.727299 0,109.095711 7.57617,0 0,-101.519541 101.52149,0 0,-7.57617 -109.09766,0 z m 401.03125,0 0,7.57617 101.51953,0 0,101.519541 7.57617,0 0,-109.095711 -109.0957,0 z M 110.65081,449.7566 l 0,109.09766 109.09766,0 0,-7.57617 -101.52149,0 0,-101.52149 -7.57617,0 z m 502.55078,0 0,101.52149 -101.51953,0 0,7.57617 109.0957,0 0,-109.09766 -7.57617,0 z"
       id="rect6392" />
    <text
       xml:space="preserve"
       style="font-style:normal;font-weight:normal;line-height:0%;font-family:sans-serif;letter-spacing:0px;word-spacing:0px;fill:#000000;fill-opacity:1;stroke:none;stroke-width:1px;stroke-linecap:butt;stroke-linejoin:miter;stroke-opacity:1"
       x="253.57143"
       y="235.93362"
       id="text4135"><tspan
         sodipodi:role="line"
         id="tspan4137"
         x="253.57143"
         y="235.93362"
         style="font-size:40px;line-height:1.25"> </tspan></text>
    <text
       xml:space="preserve"
       style="font-style:normal;font-weight:normal;font-size:16.70721436px;line-height:0%;font-family:sans-serif;letter-spacing:0px;word-spacing:0px;fill:#000000;fill-opacity:1;stroke:none;stroke-width:1.39226782px;stroke-linecap:butt;stroke-linejoin:miter;stroke-opacity:1"
       x="124.11412"
       y="252.11884"
       id="text4151"><tspan
         sodipodi:role="line"
         id="tspan4153"
         x="124.11412"
         y="252.11884"
         style="font-style:normal;font-variant:normal;font-weight:normal;font-stretch:normal;font-size:250.60820007px;line-height:125%;font-family:sans-serif;-inkscape-font-specification:'sans-serif, Normal';text-align:start;writing-mode:lr-tb;text-anchor:start;stroke-width:1.39226782px">AF</tspan></text>
    <g
       transform="matrix(0.46441339,0,0,0.46441339,316.19599,143.243)"
       id="g1481" />
    <g
       transform="matrix(0.46441339,0,0,0.46441339,316.19599,143.243)"
       id="g1483" />
    <g
       transform="matrix(0.46441339,0,0,0.46441339,316.19599,143.243)"
       id="g1485" />
    <g
       transform="matrix(0.46441339,0,0,0.46441339,316.19599,143.243)"
       id="g1487" />
    <g
       transform="matrix(0.46441339,0,0,0.46441339,316.19599,143.243)"
       id="g1489" />
    <g
       transform="matrix(0.46441339,0,0,0.46441339,316.19599,143.243)"
       id="g1491" />
    <g
       transform="matrix(0.46441339,0,0,0.46441339,316.19599,143.243)"
       id="g1493" />
    <g
       transform="matrix(0.46441339,0,0,0.46441339,316.19599,143.243)"
       id="g1495" />
    <g
       transform="matrix(0.46441339,0,0,0.46441339,316.19599,143.243)"
       id="g1497" />
    <g
       transform="matrix(0.46441339,0,0,0.46441339,316.19599,143.243)"
       id="g1499" />
    <g
       transform="matrix(0.46441339,0,0,0.46441339,316.19599,143.243)"
       id="g1501" />
    <g
       transform="matrix(0.46441339,0,0,0.46441339,316.19599,143.243)"
       id="g1503" />
    <g
       transform="matrix(0.46441339,0,0,0.46441339,316.19599,143.243)"
       id="g1505" />
    <g
       transform="matrix(0.46441339,0,0,0.46441339,316.19599,143.243)"
       id="g1507" />
    <g
       transform="matrix(0.46441339,0,0,0.46441339,316.19599,143.243)"
       id="g1509" />
    <g
       transform="matrix(0.30491564,0,0,0.30491564,119.90498,74.579308)"
       id="g2185" />
    <g
       transform="matrix(0.30491564,0,0,0.30491564,119.90498,74.579308)"
       id="g2187" />
    <g
       transform="matrix(0.30491564,0,0,0.30491564,119.90498,74.579308)"
       id="g2189" />
    <g
       transform="matrix(0.30491564,0,0,0.30491564,119.90498,74.579308)"
       id="g2191" />
    <g
       transform="matrix(0.30491564,0,0,0.30491564,119.90498,74.579308)"
       id="g2193" />
    <g
       transform="matrix(0.30491564,0,0,0.30491564,119.90498,74.579308)"
       id="g2195" />
    <g
       transform="matrix(0.30491564,0,0,0.30491564,119.90498,74.579308)"
       id="g2197" />
    <g
       transform="matrix(0.30491564,0,0,0.30491564,119.90498,74.579308)"
       id="g2199" />
    <g
       transform="matrix(0.30491564,0,0,0.30491564,119.90498,74.579308)"
       id="g2201" />
    <g
       transform="matrix(0.30491564,0,0,0.30491564,119.90498,74.579308)"
       id="g2203" />
    <g
       transform="matrix(0.30491564,0,0,0.30491564,119.90498,74.579308)"
       id="g2205" />
    <g
       transform="matrix(0.30491564,0,0,0.30491564,119.90498,74.579308)"
       id="g2207" />
    <g
       transform="matrix(0.30491564,0,0,0.30491564,119.90498,74.579308)"
       id="g2209" />
    <g
       transform="matrix(0.30491564,0,0,0.30491564,119.90498,74.579308)"
       id="g2211" />
    <g
       transform="matrix(0.30491564,0,0,0.30491564,119.90498,74.579308)"
       id="g2213" />
    <g
       transform="matrix(2.7354433,0,0,2.7354433,447.91824,385.68503)"
       id="g2888" />
    <g
       transform="matrix(2.7354433,0,0,2.7354433,447.91824,385.68503)"
       id="g2890" />
    <g
       transform="matrix(2.7354433,0,0,2.7354433,447.91824,385.68503)"
       id="g2892" />
    <g
       transform="matrix(2.7354433,0,0,2.7354433,447.91824,385.68503)"
       id="g2894" />
    <g
       transform="matrix(2.7354433,0,0,2.7354433,447.91824,385.68503)"
       id="g2896" />
    <g
       transform="matrix(2.7354433,0,0,2.7354433,447.91824,385.68503)"
       id="g2898" />
    <g
       transform="matrix(2.7354433,0,0,2.7354433,447.91824,385.68503)"
       id="g2900" />
    <g
       transform="matrix(2.7354433,0,0,2.7354433,447.91824,385.68503)"
       id="g2902" />
    <g
       transform="matrix(2.7354433,0,0,2.7354433,447.91824,385.68503)"
       id="g2904" />
    <g
       transform="matrix(2.7354433,0,0,2.7354433,447.91824,385.68503)"
       id="g2906" />
    <g
       transform="matrix(2.7354433,0,0,2.7354433,447.91824,385.68503)"
       id="g2908" />
    <g
       transform="matrix(2.7354433,0,0,2.7354433,447.91824,385.68503)"
       id="g2910" />
    <g
       transform="matrix(2.7354433,0,0,2.7354433,447.91824,385.68503)"
       id="g2912" />
    <g
       transform="matrix(2.7354433,0,0,2.7354433,447.91824,385.68503)"
       id="g2914" />
    <g
       transform="matrix(2.7354433,0,0,2.7354433,447.91824,385.68503)"
       id="g2916" />
    <path
       style="stroke-width:0.58128148"
       inkscape:connector-curvature="0"
       d="m 468.75,279.32649 c -71.04074,0 -128.83929,57.79855 -128.83929,128.83929 0,71.04072 57.79855,128.83928 128.83929,128.83928 71.04072,0 128.83928,-57.79856 128.83928,-128.83928 0,-71.04074 -57.79856,-128.83929 -128.83928,-128.83929 z m 0,241.57359 c -62.16283,0 -112.73431,-50.57148 -112.73431,-112.7343 0,-62.16283 50.57148,-112.73431 112.73431,-112.73431 62.16282,0 112.7343,50.57148 112.7343,112.73431 0,62.16282 -50.57148,112.7343 -112.7343,112.7343 z"
       id="path3578" />
    <path
       style="stroke-width:0.58128148"
       inkscape:connector-curvature="0"
       d="M 476.80249,327.64145 H 460.6975 v 83.85856 l 50.67379,50.67378 11.38672,-11.38672 -45.95552,-45.95553 z"
       id="path3580" />
  </g>
</svg>
