<?xml version="1.0" encoding="UTF-8" standalone="no"?>
<!-- Generator: Adobe Illustrator 19.0.0, SVG Export Plug-In . SVG Version: 6.00 Build 0)  -->

<svg
   xmlns:dc="http://purl.org/dc/elements/1.1/"
   xmlns:cc="http://creativecommons.org/ns#"
   xmlns:rdf="http://www.w3.org/1999/02/22-rdf-syntax-ns#"
   xmlns:svg="http://www.w3.org/2000/svg"
   xmlns="http://www.w3.org/2000/svg"
   xmlns:sodipodi="http://sodipodi.sourceforge.net/DTD/sodipodi-0.dtd"
   xmlns:inkscape="http://www.inkscape.org/namespaces/inkscape"
   version="1.1"
   id="Capa_1"
   x="0px"
   y="0px"
   viewBox="0 0 42 42"
   style="enable-background:new 0 0 42 42;"
   xml:space="preserve"
   inkscape:version="0.91 r13725"
   sodipodi:docname="bahtinov.svg"><metadata
     id="metadata4732"><rdf:RDF><cc:Work
         rdf:about=""><dc:format>image/svg+xml</dc:format><dc:type
           rdf:resource="http://purl.org/dc/dcmitype/StillImage" /><dc:title></dc:title></cc:Work></rdf:RDF></metadata><defs
     id="defs4730" /><sodipodi:namedview
     pagecolor="#ffffff"
     bordercolor="#666666"
     borderopacity="1"
     objecttolerance="10"
     gridtolerance="10"
     guidetolerance="10"
     inkscape:pageopacity="0"
     inkscape:pageshadow="2"
     inkscape:window-width="1920"
     inkscape:window-height="1017"
     id="namedview4728"
     showgrid="false"
     inkscape:zoom="15.893067"
     inkscape:cx="4.7089176"
     inkscape:cy="22.279242"
     inkscape:window-x="-8"
     inkscape:window-y="-8"
     inkscape:window-maximized="1"
     inkscape:current-layer="Capa_1" /><path
     style="color:#000000;font-style:normal;font-variant:normal;font-weight:normal;font-stretch:normal;font-size:medium;line-height:normal;font-family:sans-serif;text-indent:0;text-align:start;text-decoration:none;text-decoration-line:none;text-decoration-style:solid;text-decoration-color:#000000;letter-spacing:normal;word-spacing:normal;text-transform:none;direction:ltr;block-progression:tb;writing-mode:lr-tb;baseline-shift:baseline;text-anchor:start;white-space:normal;clip-rule:nonzero;display:inline;overflow:visible;visibility:visible;opacity:1;isolation:auto;mix-blend-mode:normal;color-interpolation:sRGB;color-interpolation-filters:linearRGB;solid-color:#000000;solid-opacity:1;fill:#000000;fill-opacity:1;fill-rule:evenodd;stroke:none;stroke-width:1px;stroke-linecap:butt;stroke-linejoin:miter;stroke-miterlimit:4;stroke-dasharray:none;stroke-dashoffset:0;stroke-opacity:1;color-rendering:auto;image-rendering:auto;shape-rendering:auto;text-rendering:auto;enable-background:accumulate"
     d="M 0.35351562 -0.50976562 L -0.35351562 0.19726562 L 17.884766 18.490234 A 4.0269132 4.0269132 0 0 0 17.705078 18.796875 L 0.23046875 9.71875 L -0.23046875 10.605469 L 17.353516 19.740234 A 4.0269132 4.0269132 0 0 0 17.240234 20.669922 A 4.0269132 4.0269132 0 0 0 21.267578 24.697266 A 4.0269132 4.0269132 0 0 0 22.330078 24.554688 L 31.589844 42.123047 L 31.589844 42.125 L 32.589844 42.125 L 32.589844 41.876953 L 23.255859 24.166016 A 4.0269132 4.0269132 0 0 0 23.439453 24.060547 L 41.740234 42.416016 L 42.447266 41.708984 L 24.207031 23.414062 A 4.0269132 4.0269132 0 0 0 24.279297 23.337891 L 41.800781 32.439453 L 42.261719 31.552734 L 24.845703 22.505859 A 4.0269132 4.0269132 0 0 0 25.294922 20.669922 A 4.0269132 4.0269132 0 0 0 21.267578 16.642578 A 4.0269132 4.0269132 0 0 0 19.507812 17.052734 L 10.447266 -0.13867188 L 9.5625 0.328125 L 18.666016 17.601562 A 4.0269132 4.0269132 0 0 0 18.529297 17.720703 L 0.35351562 -0.50976562 z "
     id="path5285" /></svg>