<?xml version="1.0" encoding="UTF-8" standalone="no"?>
<!-- Generator: Adobe Illustrator 19.0.0, SVG Export Plug-In . SVG Version: 6.00 Build 0)  -->

<svg
   xmlns:dc="http://purl.org/dc/elements/1.1/"
   xmlns:cc="http://creativecommons.org/ns#"
   xmlns:rdf="http://www.w3.org/1999/02/22-rdf-syntax-ns#"
   xmlns:svg="http://www.w3.org/2000/svg"
   xmlns="http://www.w3.org/2000/svg"
   xmlns:sodipodi="http://sodipodi.sourceforge.net/DTD/sodipodi-0.dtd"
   xmlns:inkscape="http://www.inkscape.org/namespaces/inkscape"
   version="1.1"
   id="Capa_1"
   x="0px"
   y="0px"
   viewBox="0 0 511.989 511.989"
   style="enable-background:new 0 0 511.989 511.989;"
   xml:space="preserve"
   inkscape:version="0.91 r13725"
   sodipodi:docname="borders.svg"><metadata
     id="metadata87"><rdf:RDF><cc:Work
         rdf:about=""><dc:format>image/svg+xml</dc:format><dc:type
           rdf:resource="http://purl.org/dc/dcmitype/StillImage" /><dc:title /></cc:Work></rdf:RDF></metadata><defs
     id="defs85" /><sodipodi:namedview
     pagecolor="#ffffff"
     bordercolor="#666666"
     borderopacity="1"
     objecttolerance="10"
     gridtolerance="10"
     guidetolerance="10"
     inkscape:pageopacity="0"
     inkscape:pageshadow="2"
     inkscape:window-width="1920"
     inkscape:window-height="1017"
     id="namedview83"
     showgrid="false"
     inkscape:zoom="0.92189478"
     inkscape:cx="456.48623"
     inkscape:cy="224.16717"
     inkscape:window-x="-8"
     inkscape:window-y="-8"
     inkscape:window-maximized="1"
     inkscape:current-layer="g5" /><g
     transform="translate(9.985007,12.223588)"
     id="g5"
     style="fill:#000000;fill-opacity:1"><path
       style="color:#000000;font-style:normal;font-variant:normal;font-weight:normal;font-stretch:normal;font-size:medium;line-height:normal;font-family:sans-serif;text-indent:0;text-align:start;text-decoration:none;text-decoration-line:none;text-decoration-style:solid;text-decoration-color:#000000;letter-spacing:normal;word-spacing:normal;text-transform:none;direction:ltr;block-progression:tb;writing-mode:lr-tb;baseline-shift:baseline;text-anchor:start;white-space:normal;clip-rule:nonzero;display:inline;overflow:visible;visibility:visible;opacity:1;isolation:auto;mix-blend-mode:normal;color-interpolation:sRGB;color-interpolation-filters:linearRGB;solid-color:#000000;solid-opacity:1;fill:#000000;fill-opacity:1;fill-rule:nonzero;stroke:none;stroke-width:8;stroke-linecap:butt;stroke-linejoin:miter;stroke-miterlimit:4;stroke-dasharray:none;stroke-dashoffset:0;stroke-opacity:1;color-rendering:auto;image-rendering:auto;shape-rendering:auto;text-rendering:auto;enable-background:accumulate"
       d="m 499.12891,-19.210938 -2.67383,2.976563 L 432.28906,55.175781 275.9043,5.5917969 252.32422,43.767578 l -88.54688,4.382813 -19.44922,-65.908203 -11.50781,3.392578 18.625,63.126953 -119.330076,5.908203 -48.478515,163.466798 60.529297,137.87109 37.222656,12.40821 -2.761719,48.79882 -94.257812,30.33594 3.673828,11.42383 102.099609,-32.86133 3.042969,-53.76562 167.029293,55.67578 -51.7832,71.45898 9.71484,7.04297 L 279.5332,421.81445 53.013672,346.30664 -3.609375,217.33594 41.201172,66.234375 259.21875,55.441406 l 21.97852,-35.583984 221.7207,70.302734 3.62695,-11.439453 -61.70117,-19.564453 63.21094,-70.345703 -8.92578,-8.021485 z"
       id="path4176"
       inkscape:connector-curvature="0" /><path
       style="fill:#000000;fill-opacity:1;stroke-width:0.2;stroke-miterlimit:4;stroke-dasharray:none"
       d="m 223.17905,21.821334 -7.32812,7.326172 7.32812,7.328125 7.32617,-7.328125 -7.32617,-7.326172 z"
       id="path4174" /><path
       style="fill:#000000;fill-opacity:1;stroke-width:0.2;stroke-miterlimit:4;stroke-dasharray:none"
       d="m 89.944681,83.10649 -7.326172,7.328122 7.326172,7.32618 7.328122,-7.32618 -7.328122,-7.328122 z"
       id="path4172" /><path
       style="fill:#000000;fill-opacity:1;stroke-width:0.2;stroke-miterlimit:4;stroke-dasharray:none"
       d="m 402.86069,84.055709 -7.32617,7.328123 7.32617,7.32617 7.32618,-7.32617 -7.32618,-7.328123 z"
       id="path4170" /><path
       style="fill:#000000;fill-opacity:1;stroke-width:0.2;stroke-miterlimit:4;stroke-dasharray:none"
       d="m 283.15561,95.917032 -7.32617,7.326178 7.32617,7.32812 7.32618,-7.32812 -7.32618,-7.326178 z"
       id="path4168" /><path
       style="fill:#000000;fill-opacity:1;stroke-width:0.2;stroke-miterlimit:4;stroke-dasharray:none"
       d="m 443.64585,133.81938 -2.84766,25.75195 -25.75195,2.8457 25.75195,2.84766 2.84766,25.75195 2.8457,-25.75195 25.75196,-2.84766 -25.75196,-2.8457 -2.8457,-25.75195 z"
       id="path4166" /><path
       style="fill:#000000;fill-opacity:1;stroke-width:0.2;stroke-miterlimit:4;stroke-dasharray:none"
       d="m 111.03452,171.12602 -2.13867,19.35547 -19.357419,2.14062 19.357419,2.14063 2.13867,19.35547 2.13867,-19.35547 19.35938,-2.14063 -19.35938,-2.14062 -2.13867,-19.35547 z"
       id="path4164" /><path
       style="fill:#000000;fill-opacity:1;stroke-width:0.2;stroke-miterlimit:4;stroke-dasharray:none"
       d="m 264.72202,185.2725 -2.13867,19.35743 -19.35742,2.13867 19.35742,2.13867 2.13867,19.35742 2.14063,-19.35742 19.35546,-2.13867 -19.35546,-2.13867 -2.14063,-19.35743 z"
       id="path4162" /><path
       style="fill:#000000;fill-opacity:1;stroke-width:0.2;stroke-miterlimit:4;stroke-dasharray:none"
       d="m 188.2728,215.98344 -2.84765,25.75195 -25.75,2.84571 25.75,2.84765 2.84765,25.75196 2.84766,-25.75196 25.75,-2.84765 -25.75,-2.84571 -2.84766,-25.75195 z"
       id="path4160" /><path
       style="fill:#000000;fill-opacity:1;stroke-width:0.2;stroke-miterlimit:4;stroke-dasharray:none"
       d="m 48.372415,234.85844 -2.845703,25.75195 -25.751953,2.84571 25.751953,2.84765 2.845703,25.75196 2.847656,-25.75196 25.751953,-2.84765 -25.751953,-2.84571 -2.847656,-25.75195 z"
       id="path4158" /><path
       style="fill:#000000;fill-opacity:1;stroke-width:0.2;stroke-miterlimit:4;stroke-dasharray:none"
       d="m 414.63413,257.06547 -2.8457,25.75 -25.75,2.84766 25.75,2.84766 2.8457,25.75195 2.84766,-25.75195 25.75195,-2.84766 -25.75195,-2.84766 -2.84766,-25.75 z"
       id="path4156" /><path
       style="fill:#000000;fill-opacity:1;stroke-width:0.2;stroke-miterlimit:4;stroke-dasharray:none"
       d="m 302.49351,259.42875 -2.84571,25.75 -25.75195,2.84766 25.75195,2.8457 2.84571,25.75196 2.8457,-25.75196 25.75195,-2.8457 -25.75195,-2.84766 -2.8457,-25.75 z"
       id="path4154" /><path
       style="fill:#000000;fill-opacity:1;stroke-width:0.2;stroke-miterlimit:4;stroke-dasharray:none"
       d="m 127.53647,299.35258 -7.32617,7.32617 7.32617,7.32813 7.32618,-7.32813 -7.32618,-7.32617 z"
       id="path4152" /><path
       style="fill:#000000;fill-opacity:1;stroke-width:0.2;stroke-miterlimit:4;stroke-dasharray:none"
       d="m 358.18882,351.13188 -7.32813,7.32812 7.32813,7.32618 7.32617,-7.32618 -7.32617,-7.32812 z"
       id="path4150" /><path
       style="color:#000000;font-style:normal;font-variant:normal;font-weight:normal;font-stretch:normal;font-size:medium;line-height:normal;font-family:sans-serif;text-indent:0;text-align:start;text-decoration:none;text-decoration-line:none;text-decoration-style:solid;text-decoration-color:#000000;letter-spacing:normal;word-spacing:normal;text-transform:none;direction:ltr;block-progression:tb;writing-mode:lr-tb;baseline-shift:baseline;text-anchor:start;white-space:normal;clip-rule:nonzero;display:inline;overflow:visible;visibility:visible;opacity:1;isolation:auto;mix-blend-mode:normal;color-interpolation:sRGB;color-interpolation-filters:linearRGB;solid-color:#000000;solid-opacity:1;fill:#000000;fill-opacity:1;fill-rule:nonzero;stroke:none;stroke-width:8;stroke-linecap:butt;stroke-linejoin:miter;stroke-miterlimit:4;stroke-dasharray:none;stroke-dashoffset:0;stroke-opacity:1;color-rendering:auto;image-rendering:auto;shape-rendering:auto;text-rendering:auto;enable-background:accumulate"
       d="m 498.08984,396.22656 -2.69336,2.95899 -90.55664,99.5 8.87696,8.07422 93.24804,-102.45508 -8.875,-8.07813 z"
       id="path4148"
       inkscape:connector-curvature="0" /><path
       style="fill:#000000;fill-opacity:1;stroke-width:0.2;stroke-miterlimit:4;stroke-dasharray:none"
       d="m 103.2689,408.87797 -7.326177,7.32617 7.326177,7.32813 7.32812,-7.32813 -7.32812,-7.32617 z"
       id="path4146" /><path
       style="fill:#000000;fill-opacity:1;stroke-width:0.2;stroke-miterlimit:4;stroke-dasharray:none"
       d="m 234.94272,423.30766 -7.32812,7.32617 7.32812,7.32617 7.32618,-7.32617 -7.32618,-7.32617 z"
       id="path4144" /><path
       style="fill:#000000;fill-opacity:1;stroke-width:0.2;stroke-miterlimit:4;stroke-dasharray:none"
       d="m 351.31187,451.06743 -7.32813,7.32617 7.32813,7.32617 7.32617,-7.32617 -7.32617,-7.32617 z"
       id="rect7" /></g></svg>