<?xml version="1.0" encoding="UTF-8" standalone="no"?>
<!-- Generator: Adobe Illustrator 19.0.0, SVG Export Plug-In . SVG Version: 6.00 Build 0)  -->

<svg
   xmlns:dc="http://purl.org/dc/elements/1.1/"
   xmlns:cc="http://creativecommons.org/ns#"
   xmlns:rdf="http://www.w3.org/1999/02/22-rdf-syntax-ns#"
   xmlns:svg="http://www.w3.org/2000/svg"
   xmlns="http://www.w3.org/2000/svg"
   xmlns:sodipodi="http://sodipodi.sourceforge.net/DTD/sodipodi-0.dtd"
   xmlns:inkscape="http://www.inkscape.org/namespaces/inkscape"
   version="1.1"
   id="Capa_1"
   x="0px"
   y="0px"
   viewBox="0 0 511.989 511.989"
   style="enable-background:new 0 0 511.989 511.989;"
   xml:space="preserve"
   inkscape:version="0.91 r13725"
   sodipodi:docname="borders.svg"><metadata
     id="metadata87"><rdf:RDF><cc:Work
         rdf:about=""><dc:format>image/svg+xml</dc:format><dc:type
           rdf:resource="http://purl.org/dc/dcmitype/StillImage" /><dc:title></dc:title></cc:Work></rdf:RDF></metadata><defs
     id="defs85" /><sodipodi:namedview
     pagecolor="#ffffff"
     bordercolor="#666666"
     borderopacity="1"
     objecttolerance="10"
     gridtolerance="10"
     guidetolerance="10"
     inkscape:pageopacity="0"
     inkscape:pageshadow="2"
     inkscape:window-width="1920"
     inkscape:window-height="1017"
     id="namedview83"
     showgrid="false"
     inkscape:zoom="0.92189478"
     inkscape:cx="456.48623"
     inkscape:cy="180.77827"
     inkscape:window-x="-8"
     inkscape:window-y="-8"
     inkscape:window-maximized="1"
     inkscape:current-layer="g5" /><g
     transform="translate(9.985007,12.223588)"
     id="g5"
     style="fill:#000000;fill-opacity:1"><path
       style="fill:#000000;fill-opacity:1"
       d="M 509.41602 -1.3378906 L 443.52539 71.992188 L 287.6543 22.570312 L 264.60742 59.882812 L 170.81641 64.525391 L 151.60938 -0.56640625 L 147.77344 0.56445312 L 166.70508 64.728516 L 45.128906 70.748047 L -2.1269531 230.09375 L 57.099609 364.99805 L 95.541016 377.8125 L 92.451172 432.4043 L -0.61328125 462.35742 L 0.61132812 466.16406 L 96.289062 435.37109 L 99.472656 379.12305 L 276.63867 438.17773 L 224.00195 510.81445 L 227.24023 513.16211 L 283.07812 436.10742 L 60.048828 361.76367 L 2.125 229.82617 L 48.15625 74.603516 L 266.90625 63.773438 L 289.41797 27.326172 L 510.29883 97.361328 L 511.50781 93.548828 L 447.70898 73.320312 L 512.39062 1.3359375 L 509.41602 -1.3378906 z M 233.16406 34.044922 L 225.83594 41.371094 L 233.16406 48.699219 L 240.49023 41.371094 L 233.16406 34.044922 z M 99.929688 95.330078 L 92.603516 102.6582 L 99.929688 109.98438 L 107.25781 102.6582 L 99.929688 95.330078 z M 412.8457 96.279297 L 405.51953 103.60742 L 412.8457 110.93359 L 420.17188 103.60742 L 412.8457 96.279297 z M 293.14062 108.14062 L 285.81445 115.4668 L 293.14062 122.79492 L 300.4668 115.4668 L 293.14062 108.14062 z M 453.63086 146.04297 L 450.7832 171.79492 L 425.03125 174.64062 L 450.7832 177.48828 L 453.63086 203.24023 L 456.47656 177.48828 L 482.22852 174.64062 L 456.47656 171.79492 L 453.63086 146.04297 z M 121.01953 183.34961 L 118.88086 202.70508 L 99.523438 204.8457 L 118.88086 206.98633 L 121.01953 226.3418 L 123.1582 206.98633 L 142.51758 204.8457 L 123.1582 202.70508 L 121.01953 183.34961 z M 274.70703 197.49609 L 272.56836 216.85352 L 253.21094 218.99219 L 272.56836 221.13086 L 274.70703 240.48828 L 276.84766 221.13086 L 296.20312 218.99219 L 276.84766 216.85352 L 274.70703 197.49609 z M 198.25781 228.20703 L 195.41016 253.95898 L 169.66016 256.80469 L 195.41016 259.65234 L 198.25781 285.4043 L 201.10547 259.65234 L 226.85547 256.80469 L 201.10547 253.95898 L 198.25781 228.20703 z M 58.357422 247.08203 L 55.511719 272.83398 L 29.759766 275.67969 L 55.511719 278.52734 L 58.357422 304.2793 L 61.205078 278.52734 L 86.957031 275.67969 L 61.205078 272.83398 L 58.357422 247.08203 z M 424.61914 269.28906 L 421.77344 295.03906 L 396.02344 297.88672 L 421.77344 300.73438 L 424.61914 326.48633 L 427.4668 300.73438 L 453.21875 297.88672 L 427.4668 295.03906 L 424.61914 269.28906 z M 312.47852 271.65234 L 309.63281 297.40234 L 283.88086 300.25 L 309.63281 303.0957 L 312.47852 328.84766 L 315.32422 303.0957 L 341.07617 300.25 L 315.32422 297.40234 L 312.47852 271.65234 z M 137.52148 311.57617 L 130.19531 318.90234 L 137.52148 326.23047 L 144.84766 318.90234 L 137.52148 311.57617 z M 368.17383 363.35547 L 360.8457 370.68359 L 368.17383 378.00977 L 375.5 370.68359 L 368.17383 363.35547 z M 508.33984 414.10156 L 420.47656 510.64258 L 423.43555 513.33398 L 511.29883 416.79492 L 508.33984 414.10156 z M 113.25391 421.10156 L 105.92773 428.42773 L 113.25391 435.75586 L 120.58203 428.42773 L 113.25391 421.10156 z M 244.92773 435.53125 L 237.59961 442.85742 L 244.92773 450.18359 L 252.25391 442.85742 L 244.92773 435.53125 z M 361.29688 463.29102 L 353.96875 470.61719 L 361.29688 477.94336 L 368.62305 470.61719 L 361.29688 463.29102 z "
       transform="translate(-9.985007,-12.223588)"
       id="rect7" /></g></svg>