<?xml version="1.0" encoding="iso-8859-1"?>
<!-- Generator: Adobe Illustrator 19.0.0, SVG Export Plug-In . SVG Version: 6.00 Build 0)  -->
<svg version="1.1" id="Capa_1" xmlns="http://www.w3.org/2000/svg" xmlns:xlink="http://www.w3.org/1999/xlink" x="0px" y="0px"
	 viewBox="0 0 512 512" style="enable-background:new 0 0 512 512;" xml:space="preserve">
<g>
	<g>
		<path d="M451.566,169.439l56.193-56.649c1.663-1.678,2.439-4.04,2.095-6.376c-0.345-2.337-1.77-4.375-3.846-5.5L321.512,0.916
			c-2.919-1.581-6.53-1.058-8.877,1.29l-56.639,56.639L199.361,2.21c-1.41-1.42-3.3-2.21-5.29-2.21c-1.25,0-2.48,0.319-3.58,0.92
			l-59.259,32.108c-1.76,0.96-3.04,2.54-3.61,4.46c-0.57,1.92-0.36,3.95,0.59,5.71c1.32,2.42,3.85,3.931,6.6,3.931
			c1.24,0,2.48-0.32,3.57-0.91l54.329-29.449l50.869,50.869L72.374,160.177l-50.439-50.85l90.068-48.818
			c1.77-0.95,3.05-2.53,3.62-4.45c0.57-1.92,0.36-3.95-0.6-5.71c-1.31-2.42-3.84-3.93-6.59-3.93c-1.24,0-2.47,0.319-3.57,0.909
			l-98.868,53.59c-2.07,1.109-3.51,3.17-3.85,5.5c-0.34,2.319,0.441,4.699,2.1,6.37l56.187,56.653L4.241,226.089
			c-1.663,1.678-2.439,4.04-2.095,6.376c0.345,2.337,1.77,4.375,3.846,5.5l57.513,31.172v135.344
			c-0.001,0.259,0.012,0.517,0.038,0.772c0.011,0.109,0.032,0.215,0.047,0.323c0.019,0.131,0.034,0.262,0.06,0.391
			c0.032,0.163,0.076,0.321,0.118,0.48c0.02,0.073,0.035,0.147,0.057,0.22c0.049,0.161,0.108,0.318,0.167,0.476
			c0.026,0.07,0.048,0.141,0.077,0.21c0.058,0.142,0.125,0.277,0.191,0.413c0.041,0.085,0.078,0.17,0.122,0.253
			c0.06,0.112,0.127,0.219,0.191,0.327c0.062,0.103,0.121,0.207,0.187,0.308c0.055,0.083,0.117,0.162,0.176,0.243
			c0.085,0.117,0.169,0.236,0.261,0.35c0.051,0.063,0.108,0.121,0.161,0.182c0.106,0.122,0.212,0.244,0.326,0.359
			c0.059,0.059,0.124,0.113,0.185,0.172c0.114,0.107,0.226,0.215,0.347,0.315c0.117,0.097,0.241,0.185,0.363,0.274
			c0.072,0.053,0.139,0.109,0.213,0.16c0.215,0.145,0.438,0.28,0.668,0.404l184.935,99.966c0.266,0.146,0.544,0.272,0.829,0.386
			c0.062,0.024,0.125,0.046,0.188,0.068c0.208,0.077,0.419,0.145,0.636,0.202c0.078,0.021,0.155,0.042,0.233,0.06
			c0.21,0.049,0.423,0.088,0.639,0.119c0.074,0.01,0.146,0.024,0.22,0.033c0.282,0.032,0.568,0.053,0.859,0.053
			c0.291,0,0.577-0.021,0.859-0.053c0.074-0.009,0.147-0.023,0.221-0.033c0.216-0.031,0.429-0.07,0.638-0.119
			c0.078-0.018,0.156-0.039,0.233-0.06c0.216-0.058,0.428-0.125,0.635-0.202c0.063-0.022,0.126-0.044,0.188-0.068
			c0.284-0.114,0.562-0.24,0.828-0.386l184.935-99.966c0.23-0.124,0.453-0.259,0.668-0.404c0.074-0.051,0.142-0.108,0.213-0.16
			c0.123-0.09,0.247-0.178,0.363-0.274c0.121-0.1,0.233-0.208,0.347-0.315c0.061-0.059,0.126-0.112,0.185-0.172
			c0.114-0.115,0.22-0.237,0.326-0.359c0.053-0.061,0.11-0.119,0.161-0.182c0.092-0.113,0.176-0.232,0.261-0.35
			c0.059-0.081,0.121-0.16,0.176-0.243c0.066-0.101,0.125-0.204,0.187-0.308c0.065-0.108,0.132-0.215,0.191-0.327
			c0.044-0.083,0.081-0.168,0.122-0.253c0.066-0.136,0.133-0.271,0.191-0.413c0.029-0.069,0.051-0.14,0.077-0.21
			c0.059-0.157,0.118-0.314,0.167-0.476c0.022-0.072,0.037-0.146,0.057-0.22c0.042-0.159,0.086-0.317,0.118-0.48
			c0.026-0.129,0.041-0.26,0.06-0.391c0.015-0.108,0.037-0.214,0.047-0.323c0.026-0.256,0.039-0.514,0.038-0.772V269.137
			l57.51-31.171c2.07-1.12,3.51-3.18,3.85-5.5c0.34-2.33-0.44-4.71-2.09-6.38L451.566,169.439z M319.284,16.771l170.777,92.561
			l-50.438,50.848L268.419,67.636L319.284,16.771z M74.546,258.061l-52.608-28.514l50.438-50.848l171.205,92.544l-50.866,50.865
			L74.61,258.095C74.589,258.083,74.568,258.072,74.546,258.061z M248.5,491.921L78.504,400.03V277.267l111.984,60.696
			c1.125,0.609,2.353,0.906,3.571,0.906c1.943,0,3.863-0.754,5.306-2.196l49.135-49.135V491.921z M256,260.905L86.793,169.441
			l169.211-91.465l169.207,91.464L256,260.905z M437.483,258.046c-0.041,0.021-0.081,0.043-0.121,0.065l-37.365,20.253
			c-1.77,0.95-3.05,2.54-3.62,4.46c-0.57,1.921-0.36,3.95,0.59,5.711c1.32,2.42,3.85,3.92,6.6,3.92c1.24,0,2.48-0.311,3.57-0.9
			l26.358-14.287v122.764L263.5,491.922V287.534l49.139,49.139c1.421,1.42,3.3,2.2,5.3,2.2c1.24,0,2.47-0.32,3.57-0.91
			l59.259-32.119c1.76-0.95,3.04-2.54,3.61-4.46c0.57-1.92,0.36-3.94-0.59-5.7c-1.32-2.43-3.85-3.93-6.61-3.93
			c-1.23,0-2.47,0.31-3.56,0.91l-54.329,29.438l-50.869-50.858l171.207-92.549l50.439,50.85L437.483,258.046z"/>
	</g>
</g>
<g>
</g>
<g>
</g>
<g>
</g>
<g>
</g>
<g>
</g>
<g>
</g>
<g>
</g>
<g>
</g>
<g>
</g>
<g>
</g>
<g>
</g>
<g>
</g>
<g>
</g>
<g>
</g>
<g>
</g>
</svg>
