<?xml version="1.0" encoding="UTF-8" standalone="no"?>
<!-- Generator: Adobe Illustrator 19.0.0, SVG Export Plug-In . SVG Version: 6.00 Build 0)  -->

<svg
   xmlns:dc="http://purl.org/dc/elements/1.1/"
   xmlns:cc="http://creativecommons.org/ns#"
   xmlns:rdf="http://www.w3.org/1999/02/22-rdf-syntax-ns#"
   xmlns:svg="http://www.w3.org/2000/svg"
   xmlns="http://www.w3.org/2000/svg"
   xmlns:sodipodi="http://sodipodi.sourceforge.net/DTD/sodipodi-0.dtd"
   xmlns:inkscape="http://www.inkscape.org/namespaces/inkscape"
   version="1.1"
   id="Capa_1"
   x="0px"
   y="0px"
   viewBox="0 0 512 512"
   style="enable-background:new 0 0 512 512;"
   xml:space="preserve"
   sodipodi:docname="box_closed.svg"
   inkscape:version="0.92.4 (5da689c313, 2019-01-14)"><metadata
   id="metadata909"><rdf:RDF><cc:Work
       rdf:about=""><dc:format>image/svg+xml</dc:format><dc:type
         rdf:resource="http://purl.org/dc/dcmitype/StillImage" /><dc:title /></cc:Work></rdf:RDF></metadata><defs
   id="defs907" /><sodipodi:namedview
   pagecolor="#ffffff"
   bordercolor="#666666"
   borderopacity="1"
   objecttolerance="10"
   gridtolerance="10"
   guidetolerance="10"
   inkscape:pageopacity="0"
   inkscape:pageshadow="2"
   inkscape:window-width="2560"
   inkscape:window-height="1377"
   id="namedview905"
   showgrid="false"
   inkscape:zoom="0.58984376"
   inkscape:cx="-475.12121"
   inkscape:cy="13.027991"
   inkscape:window-x="-8"
   inkscape:window-y="-8"
   inkscape:window-maximized="1"
   inkscape:current-layer="g872" />
<g
   id="g872">
	
<g
   transform="matrix(1.1675065,0,0,1.1193811,34.431186,26.815716)"
   id="g1686"
   style="fill:#000000;fill-opacity:1"><path
     inkscape:connector-curvature="0"
     d="M 39.517969,313.73419 197.76,402.832 c 1.277,0.884 2.774,1.351 4.331,1.351 1.229,0 2.62146,-0.40977 3.54,-0.87 l 158.1566,-89.47165 c 2.062,-1.424 3.00243,-3.30066 3.03329,-5.80346 l 2.56702,-208.191451 c 0.0199,-1.614873 0.3805,-0.873546 -2.1595,-2.992546 L 365.16111,95.578539 206.423,1.303 c -2.516,-1.737 -6.149,-1.738 -8.665,0 L 36.672229,96.85623 c -0.813,0.562 -2.245633,0.732797 -2.199018,4.73151 l 2.390062,205.02252 c 0.02919,2.50381 0.593696,5.69993 2.654696,7.12393 z M 56.97013,98.210652 119.97663,62.798906 263.29514,145.21638 201.90037,179.92009 Z M 208.32432,386.29931 208.15246,195.0055 356.46432,110.38567 353.9295,304.20931 Z M 276.06482,137.87836 132.78668,55.599335 202.091,16.839 346.83404,98.209759 Z M 49.870384,304.20752 v -194.3778 l 146.695136,84.79565 -1.08909,191.67305 z"
     id="path1684"
     style="fill:#000000;fill-opacity:1"
     sodipodi:nodetypes="ccsccsscccccssccccccccccccccccccccc" /></g><g
   transform="matrix(1.1675065,0,0,1.1193811,40.659663,10.354906)"
   id="g1688"
   style="fill:#fb0000;fill-opacity:1" /><g
   transform="matrix(1.1675065,0,0,1.1193811,40.659663,10.354906)"
   id="g1690"
   style="fill:#fb0000;fill-opacity:1" /><g
   transform="matrix(1.1675065,0,0,1.1193811,40.659663,10.354906)"
   id="g1692"
   style="fill:#fb0000;fill-opacity:1" /><g
   transform="matrix(1.1675065,0,0,1.1193811,40.659663,10.354906)"
   id="g1694"
   style="fill:#fb0000;fill-opacity:1" /><g
   transform="matrix(1.1675065,0,0,1.1193811,40.659663,10.354906)"
   id="g1696"
   style="fill:#fb0000;fill-opacity:1" /><g
   transform="matrix(1.1675065,0,0,1.1193811,40.659663,10.354906)"
   id="g1698"
   style="fill:#fb0000;fill-opacity:1" /><g
   transform="matrix(1.1675065,0,0,1.1193811,40.659663,10.354906)"
   id="g1700"
   style="fill:#fb0000;fill-opacity:1" /><g
   transform="matrix(1.1675065,0,0,1.1193811,40.659663,10.354906)"
   id="g1702"
   style="fill:#fb0000;fill-opacity:1" /><g
   transform="matrix(1.1675065,0,0,1.1193811,40.659663,10.354906)"
   id="g1704"
   style="fill:#fb0000;fill-opacity:1" /><g
   transform="matrix(1.1675065,0,0,1.1193811,40.659663,10.354906)"
   id="g1706"
   style="fill:#fb0000;fill-opacity:1" /><g
   transform="matrix(1.1675065,0,0,1.1193811,40.659663,10.354906)"
   id="g1708"
   style="fill:#fb0000;fill-opacity:1" /><g
   transform="matrix(1.1675065,0,0,1.1193811,40.659663,10.354906)"
   id="g1710"
   style="fill:#fb0000;fill-opacity:1" /><g
   transform="matrix(1.1675065,0,0,1.1193811,40.659663,10.354906)"
   id="g1712"
   style="fill:#fb0000;fill-opacity:1" /><g
   transform="matrix(1.1675065,0,0,1.1193811,40.659663,10.354906)"
   id="g1714"
   style="fill:#fb0000;fill-opacity:1" /><g
   transform="matrix(1.1675065,0,0,1.1193811,40.659663,10.354906)"
   id="g1716"
   style="fill:#fb0000;fill-opacity:1" /></g>
<g
   id="g874">
</g>
<g
   id="g876">
</g>
<g
   id="g878">
</g>
<g
   id="g880">
</g>
<g
   id="g882">
</g>
<g
   id="g884">
</g>
<g
   id="g886">
</g>
<g
   id="g888">
</g>
<g
   id="g890">
</g>
<g
   id="g892">
</g>
<g
   id="g894">
</g>
<g
   id="g896">
</g>
<g
   id="g898">
</g>
<g
   id="g900">
</g>
<g
   id="g902">
</g>
</svg>