<?xml version="1.0" encoding="UTF-8" standalone="no"?>
<svg
   xmlns:dc="http://purl.org/dc/elements/1.1/"
   xmlns:cc="http://creativecommons.org/ns#"
   xmlns:rdf="http://www.w3.org/1999/02/22-rdf-syntax-ns#"
   xmlns:svg="http://www.w3.org/2000/svg"
   xmlns="http://www.w3.org/2000/svg"
   xmlns:sodipodi="http://sodipodi.sourceforge.net/DTD/sodipodi-0.dtd"
   xmlns:inkscape="http://www.inkscape.org/namespaces/inkscape"
   version="1.1"
   viewBox="0 0 296.505 296.505"
   enable-background="new 0 0 296.505 296.505"
   id="svg6"
   sodipodi:docname="brainbulb.svg"
   inkscape:version="0.92.4 (5da689c313, 2019-01-14)">
  <metadata
     id="metadata12">
    <rdf:RDF>
      <cc:Work
         rdf:about="">
        <dc:format>image/svg+xml</dc:format>
        <dc:type
           rdf:resource="http://purl.org/dc/dcmitype/StillImage" />
        <dc:title></dc:title>
      </cc:Work>
    </rdf:RDF>
  </metadata>
  <defs
     id="defs10" />
  <sodipodi:namedview
     pagecolor="#ffffff"
     bordercolor="#666666"
     borderopacity="1"
     objecttolerance="10"
     gridtolerance="10"
     guidetolerance="10"
     inkscape:pageopacity="0"
     inkscape:pageshadow="2"
     inkscape:window-width="1262"
     inkscape:window-height="1034"
     id="namedview8"
     showgrid="false"
     inkscape:zoom="0.79593935"
     inkscape:cx="148.2525"
     inkscape:cy="148.2525"
     inkscape:window-x="0"
     inkscape:window-y="0"
     inkscape:window-maximized="0"
     inkscape:current-layer="svg6" />
  <g
     id="g4">
    <path
       d="m136.507,.685c-43.503,5.22-80.046,40.023-87.006,83.526-3.48,27.842 3.48,55.684 20.882,78.305 15.661,19.141 24.362,45.243 24.362,74.825 0,9.884 5.412,17.819 13.468,21.699l16.113,32.244c0,3.48 3.48,5.22 6.96,5.22h34.802c1.74,0 5.22-1.74 6.96-5.22l15.766-31.514c8.004-3.62 13.817-12.041 13.817-22.43v-5.22c0-24.362 8.701-50.463 26.102-73.085 12.181-17.401 19.141-38.283 19.141-59.164 0-59.163-50.463-106.146-111.367-99.186zm50.463,231.436v5.22c0,3.48-3.48,6.96-6.96,6.96h-60.904c-3.48,0-6.96-1.74-6.96-6.96 0-12.842-2.001-24.953-4.942-36.543h84.43c-2.784,10.512-4.664,21.022-4.664,31.323zm-26.102,46.984h-24.362l-8.701-17.401h41.763l-8.7,17.401zm55.685-130.51c-8.127,11.084-14.321,22.865-19.176,34.802h-95.777c-4.559-11.363-10.163-22.047-17.297-31.322-15.661-17.401-20.882-40.023-17.401-64.385 5.22-36.543 34.802-66.124 71.345-69.605 3.48,0 6.96,0 10.441,0 45.243,0 83.526,36.543 83.526,81.786 0,17.403-5.221,34.804-15.661,48.724z"
       id="path2" />
  </g>
  <path
     style="stroke-width:0.63723493"
     inkscape:connector-curvature="0"
     d="m 166.41369,164.45971 c 4.01259,-0.005 7.91069,-1.3367 11.0869,-3.78856 5.62808,2.78044 12.29415,2.45435 17.62353,-0.85878 5.33186,-3.3156 8.57031,-9.1478 8.56782,-15.42556 v -4.26898 c 7.0295,-3.02437 12.08755,-9.35938 13.47652,-16.88672 1.39146,-7.52484 -1.06538,-15.24883 -6.54908,-20.58567 3.39527,-3.778603 4.9784,-8.846615 4.33619,-13.887244 -0.63973,-5.038137 -3.44256,-9.551053 -7.67668,-12.356382 -0.40824,-0.268831 -0.82393,-0.517748 -1.24959,-0.751738 1.613,-7.442707 -0.57251,-15.199044 -5.8297,-20.705155 -5.25967,-5.508595 -12.9065,-8.047578 -20.41392,-6.780576 0,-0.107036 0.01,-0.214073 0.01,-0.318618 0,-8.712199 -7.06186,-15.771564 -15.77157,-15.771564 -8.70971,0 -15.77157,7.059365 -15.77157,15.771564 v 98.452783 c 0.01,10.02401 8.13471,18.14875 18.1612,18.1612 z M 155.89933,47.845727 c -0.0149,-3.36042 2.04114,-6.379817 5.17005,-7.602015 3.12893,-1.222197 6.68849,-0.390803 8.95366,2.088442 2.26517,2.481731 2.77048,6.098535 1.27198,9.105489 -0.44059,0.281281 -0.87123,0.57252 -1.29438,0.88615 -1.70013,1.254554 -2.05858,3.649173 -0.80401,5.346802 1.25454,1.697636 3.64667,2.058572 5.3468,0.804012 5.8297,-4.293866 13.86981,-3.913022 19.26639,0.913533 5.39908,4.824069 6.67354,12.772082 3.05674,19.044865 -0.0822,0.14437 -0.15433,0.296207 -0.21905,0.450542 -0.56007,-1.585616 -2.09342,-2.618636 -3.77363,-2.543963 -1.68021,0.07717 -3.11399,1.239627 -3.53218,2.870051 -0.67208,2.641035 -0.341,5.436406 0.92848,7.848449 -0.16926,0.43311 -0.42814,0.823912 -0.75671,1.149999 -1.49103,1.481078 -1.51095,3.885639 -0.0423,5.386633 1.46863,1.503469 3.87319,1.538318 5.38663,0.08213 0.47544,-0.462984 0.90608,-0.968298 1.28941,-1.508445 0.23149,0.04478 0.46797,0.0697 0.70443,0.0697 1.78227,0.0022 3.32807,-1.227179 3.72883,-2.962149 0.40076,-1.734968 -0.45055,-3.519719 -2.0511,-4.298847 -1.19481,-0.589937 -1.92913,-1.824582 -1.87685,-3.153817 0.51277,1.229663 1.62794,2.103372 2.94472,2.304999 1.31429,0.201633 2.64103,-0.298706 3.49732,-1.319269 2.50911,1.682696 4.10468,4.425794 4.32624,7.437724 0.22152,3.011921 -0.95338,5.959137 -3.18867,7.992813 -3.01443,-1.401417 -6.29767,-2.125773 -9.62325,-2.123282 -2.11084,0 -3.82341,1.71257 -3.82341,3.823402 0,2.110845 1.71257,3.823415 3.82341,3.823415 8.44834,0 15.29364,6.84778 15.29364,15.29363 0,8.44586 -6.8453,15.29364 -15.29364,15.29364 -2.11084,0 -3.82341,1.71257 -3.82341,3.82341 0,2.11084 1.71257,3.82341 3.82341,3.82341 0.48291,0 0.95586,-0.0199 1.43378,-0.0497 v 2.43941 c 0,5.8073 -4.70707,10.51438 -10.51438,10.51438 -5.8073,0 -10.51437,-4.70708 -10.51437,-10.51438 0,-2.11083 -1.71008,-3.8234 -3.82342,-3.8234 -2.11083,0 -3.8234,1.71257 -3.8234,3.8234 -0.003,4.07233 1.37155,8.02767 3.89808,11.22131 -3.25586,1.71009 -7.16889,1.59309 -10.31523,-0.31363 -3.14386,-1.90423 -5.06303,-5.31942 -5.05308,-8.99597 z m 0,0"
     id="path20" />
  <path
     style="stroke-width:0.63723493"
     inkscape:connector-curvature="0"
     d="m 116.13437,160.67115 c 5.47873,4.23413 12.88907,4.98088 19.10211,1.92664 6.21304,-3.05425 10.15095,-9.37682 10.14598,-16.29928 V 47.845727 c 0,-8.709708 -7.05937,-15.771564 -15.77156,-15.771564 -8.70971,0 -15.77157,7.061856 -15.77157,15.771564 0,0.107037 0.01,0.214072 0.01,0.318618 -1.267,-0.211581 -2.54894,-0.318618 -3.83335,-0.318618 -6.93989,-0.0099 -13.511381,3.126434 -17.86748,8.530482 -4.356096,5.406541 -6.026351,12.493294 -4.542789,19.273867 -0.42316,0.236482 -0.841344,0.482907 -1.247088,0.75423 -4.236616,2.805329 -7.039454,7.315753 -7.681664,12.356381 -0.639725,5.038138 0.943407,10.108633 4.341164,13.884753 -5.486203,5.33933 -7.943038,13.06331 -6.551573,20.58816 1.388974,7.52734 6.447019,13.85986 13.476523,16.88673 v 4.26898 c -0.0022,6.27775 3.235955,12.10994 8.567826,15.42556 5.329371,3.31312 11.995441,3.6392 17.623521,0.85876 z M 97.589849,144.38681 v -2.43942 c 0.47544,0.0298 0.95336,0.0497 1.43378,0.0497 2.113321,0 3.823411,-1.71256 3.823411,-3.8234 0,-2.11085 -1.71009,-3.82341 -3.823411,-3.82341 -8.445857,0 -15.293637,-6.84778 -15.293637,-15.29363 0,-8.44586 6.84778,-15.29365 15.293637,-15.29365 2.113321,0 3.823411,-1.71257 3.823411,-3.823402 0,-2.110844 -1.71009,-3.823414 -3.823411,-3.823414 -3.323081,-0.0022 -6.606334,0.721865 -9.620756,2.123286 -2.2353,-2.033672 -3.412697,-4.980888 -3.191148,-7.992817 0.224025,-3.01193 1.8196,-5.755028 4.328714,-7.437724 0.853794,1.02057 2.180536,1.520902 3.497328,1.319276 1.316784,-0.201626 2.431952,-1.075335 2.942232,-2.305005 0.0522,1.329242 -0.68205,2.563879 -1.874371,3.153816 -1.603041,0.779128 -2.454351,2.563879 -2.05359,4.298848 0.403251,1.734969 1.949052,2.96464 3.731311,2.962148 0.23398,-0.0022 0.46797,-0.02492 0.69947,-0.0697 0.38333,0.540155 0.81646,1.045469 1.2894,1.508452 1.510951,1.478586 3.932931,1.451205 5.409031,-0.05969 1.47859,-1.508445 1.45121,-3.930437 -0.0572,-5.409024 -0.33106,-0.326087 -0.58745,-0.716889 -0.75921,-1.150007 1.26949,-2.412036 1.60304,-5.207406 0.93096,-7.848449 -0.41818,-1.630423 -1.85196,-2.79288 -3.53217,-2.870044 -1.682701,-0.07466 -3.213551,0.95834 -3.776111,2.543964 -0.0623,-0.154335 -0.13691,-0.306172 -0.21906,-0.45055 -3.624269,-6.272775 -2.352291,-14.228262 3.04678,-19.057307 5.401571,-4.826554 13.449141,-5.204915 19.278851,-0.901084 1.69762,1.254554 4.09223,0.893617 5.3468,-0.804012 1.25455,-1.697636 0.89362,-4.092247 -0.80401,-5.3468 -0.42318,-0.313639 -0.85629,-0.60487 -1.29439,-0.886151 -1.48605,-3.001979 -0.97328,-6.608824 1.2894,-9.080601 2.26268,-2.471777 5.80979,-3.298188 8.93124,-2.083459 3.12147,1.21473 5.17754,4.221682 5.17505,7.572142 v 98.452778 c 0.01,3.67656 -1.90921,7.09174 -5.05307,8.99598 -3.14635,1.90671 -7.05937,2.02371 -10.31524,0.31363 2.52653,-3.19364 3.90058,-7.14898 3.89808,-11.2213 0,-2.11085 -1.71256,-3.82342 -3.82341,-3.82342 -2.11332,0 -3.82341,1.71257 -3.82341,3.82342 0,5.80729 -4.70708,10.51436 -10.51438,10.51436 -5.80728,0 -10.514371,-4.70707 -10.514371,-10.51436 z m 0,0"
     id="path22" />
</svg>
