<svg id="Capa_1" enable-background="new 0 0 512 512" height="512" viewBox="0 0 512 512" width="512" xmlns="http://www.w3.org/2000/svg"><g><path d="m76 512h360c8.284 0 15-6.716 15-15v-482c0-8.284-6.716-15-15-15h-360c-8.284 0-15 6.716-15 15v482c0 8.284 6.716 15 15 15zm225-270v60h-90v-60zm120 0v60h-90v-60zm-120 240h-90v-60h90zm0-90h-90v-60h90zm-120 0h-90v-60h90zm0-90h-90v-60h90zm-90 120h90v60h-90zm240 60v-150h90v150zm90-452v182h-330v-182z"/><circle cx="376" cy="167" r="15"/><circle cx="316" cy="167" r="15"/><circle cx="256" cy="167" r="15"/></g></svg>