<?xml version="1.0" encoding="UTF-8" standalone="no"?>
<!-- Generator: Adobe Illustrator 19.0.0, SVG Export Plug-In . SVG Version: 6.00 Build 0)  -->

<svg
   xmlns:dc="http://purl.org/dc/elements/1.1/"
   xmlns:cc="http://creativecommons.org/ns#"
   xmlns:rdf="http://www.w3.org/1999/02/22-rdf-syntax-ns#"
   xmlns:svg="http://www.w3.org/2000/svg"
   xmlns="http://www.w3.org/2000/svg"
   xmlns:sodipodi="http://sodipodi.sourceforge.net/DTD/sodipodi-0.dtd"
   xmlns:inkscape="http://www.inkscape.org/namespaces/inkscape"
   version="1.1"
   id="Capa_1"
   x="0px"
   y="0px"
   viewBox="0 0 512.005 512.005"
   style="enable-background:new 0 0 512.005 512.005;"
   xml:space="preserve"
   sodipodi:docname="cameradetails.svg"
   inkscape:version="0.92.4 (5da689c313, 2019-01-14)"><metadata
   id="metadata1643"><rdf:RDF><cc:Work
       rdf:about=""><dc:format>image/svg+xml</dc:format><dc:type
         rdf:resource="http://purl.org/dc/dcmitype/StillImage" /><dc:title></dc:title></cc:Work></rdf:RDF></metadata><defs
   id="defs1641" /><sodipodi:namedview
   pagecolor="#ffffff"
   bordercolor="#666666"
   borderopacity="1"
   objecttolerance="10"
   gridtolerance="10"
   guidetolerance="10"
   inkscape:pageopacity="0"
   inkscape:pageshadow="2"
   inkscape:window-width="1402"
   inkscape:window-height="1041"
   id="namedview1639"
   showgrid="false"
   inkscape:zoom="0.32592885"
   inkscape:cx="57.653817"
   inkscape:cy="180.93785"
   inkscape:window-x="755"
   inkscape:window-y="143"
   inkscape:window-maximized="0"
   inkscape:current-layer="Capa_1" />
<g
   id="g1606">
	<g
   id="g1604">
		<path
   d="M505.749,475.587l-145.6-145.6c28.203-34.837,45.184-79.104,45.184-127.317c0-111.744-90.923-202.667-202.667-202.667    S0,90.925,0,202.669s90.923,202.667,202.667,202.667c48.213,0,92.48-16.981,127.317-45.184l145.6,145.6    c4.16,4.16,9.621,6.251,15.083,6.251s10.923-2.091,15.083-6.251C514.091,497.411,514.091,483.928,505.749,475.587z     M202.667,362.669c-88.235,0-160-71.765-160-160s71.765-160,160-160s160,71.765,160,160S290.901,362.669,202.667,362.669z"
   id="path1602" />
	</g>
</g>
<g
   id="g1608">
</g>
<g
   id="g1610">
</g>
<g
   id="g1612">
</g>
<g
   id="g1614">
</g>
<g
   id="g1616">
</g>
<g
   id="g1618">
</g>
<g
   id="g1620">
</g>
<g
   id="g1622">
</g>
<g
   id="g1624">
</g>
<g
   id="g1626">
</g>
<g
   id="g1628">
</g>
<g
   id="g1630">
</g>
<g
   id="g1632">
</g>
<g
   id="g1634">
</g>
<g
   id="g1636">
</g>
<g
   id="g967"
   transform="matrix(5.5569707,0,0,5.5569707,61.953009,65.728042)"><g
     id="g965"><g
       id="g963"><path
         inkscape:connector-curvature="0"
         d="M 17.026,32.161 4.248,10.953 C 1.567,14.917 0,19.691 0,24.827 c 0,2.552 0.388,5.016 1.107,7.334 z"
         id="path951" /><path
         inkscape:connector-curvature="0"
         d="M 22.395,14.3 H 47.303 C 44.104,7.497 37.907,2.375 30.422,0.645 Z"
         id="path953" /><path
         inkscape:connector-curvature="0"
         d="M 14.399,21.986 27.25,0.121 C 26.452,0.042 25.645,0 24.826,0 17.424,0 10.773,3.26 6.221,8.416 Z"
         id="path955" /><path
         inkscape:connector-curvature="0"
         d="m 19.576,48.872 7.86,-13.711 H 2.262 c 3.302,7.182 9.929,12.522 17.9,14.047 z"
         id="path957" /><path
         inkscape:connector-curvature="0"
         d="m 32.588,17.3 12.549,21.776 c 2.843,-4.037 4.518,-8.95 4.518,-14.25 0,-2.623 -0.412,-5.151 -1.17,-7.526 z"
         id="path959" /><path
         inkscape:connector-curvature="0"
         d="M 35.146,27.75 22.645,49.551 c 0.719,0.063 1.446,0.103 2.181,0.103 7.233,0 13.753,-3.111 18.295,-8.064 z"
         id="path961" /></g></g></g><g
   id="g969"
   transform="translate(61.953009,391.71944)" /><g
   id="g971"
   transform="translate(61.953009,391.71944)" /><g
   id="g973"
   transform="translate(61.953009,391.71944)" /><g
   id="g975"
   transform="translate(61.953009,391.71944)" /><g
   id="g977"
   transform="translate(61.953009,391.71944)" /><g
   id="g979"
   transform="translate(61.953009,391.71944)" /><g
   id="g981"
   transform="translate(61.953009,391.71944)" /><g
   id="g983"
   transform="translate(61.953009,391.71944)" /><g
   id="g985"
   transform="translate(61.953009,391.71944)" /><g
   id="g987"
   transform="translate(61.953009,391.71944)" /><g
   id="g989"
   transform="translate(61.953009,391.71944)" /><g
   id="g991"
   transform="translate(61.953009,391.71944)" /><g
   id="g993"
   transform="translate(61.953009,391.71944)" /><g
   id="g995"
   transform="translate(61.953009,391.71944)" /><g
   id="g997"
   transform="translate(61.953009,391.71944)" /></svg>