<?xml version='1.0' encoding='utf-8'?>
<!DOCTYPE svg PUBLIC '-//W3C//DTD SVG 1.1//EN' 'http://www.w3.org/Graphics/SVG/1.1/DTD/svg11.dtd'>
<svg width="64" version="1.1" xmlns="http://www.w3.org/2000/svg" height="64" viewBox="0 0 64 64" xmlns:xlink="http://www.w3.org/1999/xlink" enable-background="new 0 0 64 64">
  <g>
    <g fill="#1D1D1B">
      <path d="m46.355,17.979c-0.779-0.78-2.043-0.78-2.821,0l-11.594,11.591-11.591-11.591c-0.779-0.78-2.044-0.78-2.822,0-0.778,0.779-0.778,2.043 0,2.823l11.499,11.5-11.492,11.489c-0.778,0.779-0.778,2.043 0,2.822 0.392,0.391 0.903,0.586 1.414,0.586s1.02-0.195 1.411-0.586l11.581-11.579 11.583,11.579c0.39,0.391 0.899,0.586 1.41,0.586 0.512,0 1.024-0.195 1.412-0.586 0.779-0.779 0.779-2.043 0-2.822l-11.489-11.488 11.499-11.5c0.78-0.781 0.78-2.044-7.10543e-15-2.824z"/>
      <path d="M31.94,0C14.33,0,0,14.328,0,31.941c0,17.611,14.33,31.94,31.94,31.94    c17.611,0,31.941-14.329,31.941-31.94C63.882,14.328,49.552,0,31.94,0z M31.94,59.89c-15.411,0-27.948-12.538-27.948-27.948    c0-15.412,12.537-27.949,27.948-27.949c15.412,0,27.949,12.537,27.949,27.949C59.89,47.352,47.353,59.89,31.94,59.89z"/>
    </g>
  </g>
</svg>
