<?xml version="1.0" encoding="UTF-8" standalone="no"?>
<!-- Generator: Adobe Illustrator 19.0.0, SVG Export Plug-In . SVG Version: 6.00 Build 0)  -->

<svg
   xmlns:dc="http://purl.org/dc/elements/1.1/"
   xmlns:cc="http://creativecommons.org/ns#"
   xmlns:rdf="http://www.w3.org/1999/02/22-rdf-syntax-ns#"
   xmlns:svg="http://www.w3.org/2000/svg"
   xmlns="http://www.w3.org/2000/svg"
   xmlns:sodipodi="http://sodipodi.sourceforge.net/DTD/sodipodi-0.dtd"
   xmlns:inkscape="http://www.inkscape.org/namespaces/inkscape"
   version="1.1"
   id="Capa_1"
   x="0px"
   y="0px"
   viewBox="0 0 489.8 489.8"
   style="enable-background:new 0 0 489.8 489.8;"
   xml:space="preserve"
   sodipodi:docname="communicationerror.svg"
   inkscape:version="0.92.4 (5da689c313, 2019-01-14)"><metadata
   id="metadata919"><rdf:RDF><cc:Work
       rdf:about=""><dc:format>image/svg+xml</dc:format><dc:type
         rdf:resource="http://purl.org/dc/dcmitype/StillImage" /></cc:Work></rdf:RDF></metadata><defs
   id="defs917" /><sodipodi:namedview
   pagecolor="#ffffff"
   bordercolor="#666666"
   borderopacity="1"
   objecttolerance="10"
   gridtolerance="10"
   guidetolerance="10"
   inkscape:pageopacity="0"
   inkscape:pageshadow="2"
   inkscape:window-width="2069"
   inkscape:window-height="1321"
   id="namedview915"
   showgrid="false"
   inkscape:zoom="0.66516835"
   inkscape:cx="41.640217"
   inkscape:cy="419.98844"
   inkscape:window-x="459"
   inkscape:window-y="253"
   inkscape:window-maximized="0"
   inkscape:current-layer="Capa_1" />
<g
   id="g882">
	<g
   id="g880">
		<path
   d="M272.5,392.25c-18.9,5.4-38.7,8.1-58.8,8.1c-36.8,0-72.6-9.3-103.4-26.8c-3.8-2.2-8.6-2.1-12.4,0.1    c-17.9,10.7-37.1,13.5-52,13.5c-0.1,0-0.2,0-0.2,0c9.9-9.7,17.6-21.8,22.8-36c1.6-4.3,0.6-9.2-2.5-12.6    c-27.2-29.5-41.5-65-41.5-102.7c0-90.7,84.9-164.4,189.3-164.4c96.8,0,177.7,63,188.1,146.5c0.8,6.7,6.9,11.5,13.7,10.6    c6.7-0.8,11.5-7,10.6-13.7c-11.9-95.7-103.3-167.9-212.5-167.9C95.9,46.95,0,131.75,0,235.85c0,40.9,15.1,80.8,42.8,113.4    c-5.7,12.1-13.8,21.6-24.3,28.5c-6.3,4.1-9.3,11.6-7.7,18.9c1.6,7.2,7.5,12.6,14.8,13.6c16.7,2.3,48.3,3.6,78.7-12.1    c33.1,17.4,70.7,26.6,109.4,26.6c22.4,0,44.4-3,65.5-9c6.5-1.8,10.3-8.6,8.4-15.1S279.1,390.35,272.5,392.25z"
   id="path868" />
		<circle
   cx="213.7"
   cy="235.85"
   r="13.6"
   id="circle870" />
		<circle
   cx="155.1"
   cy="235.85"
   r="13.6"
   id="circle872" />
		<circle
   cx="272.2"
   cy="235.85"
   r="13.6"
   id="circle874" />
		
		
	</g>
</g>
<g
   id="g884">
</g>
<g
   id="g886">
</g>
<g
   id="g888">
</g>
<g
   id="g890">
</g>
<g
   id="g892">
</g>
<g
   id="g894">
</g>
<g
   id="g896">
</g>
<g
   id="g898">
</g>
<g
   id="g900">
</g>
<g
   id="g902">
</g>
<g
   id="g904">
</g>
<g
   id="g906">
</g>
<g
   id="g908">
</g>
<g
   id="g910">
</g>
<g
   id="g912">
</g>
<g
   id="g1652"
   transform="matrix(2.9432909,0,0,2.9432909,274.55316,232.92652)"
   inkscape:transform-center-x="-240.92249"
   inkscape:transform-center-y="-162.70091"><g
     style="fill:#1d1d1b"
     id="g1650"><path
       inkscape:connector-curvature="0"
       d="m 46.355,17.979 c -0.779,-0.78 -2.043,-0.78 -2.821,0 L 31.94,29.57 20.349,17.979 c -0.779,-0.78 -2.044,-0.78 -2.822,0 -0.778,0.779 -0.778,2.043 0,2.823 l 11.499,11.5 -11.492,11.489 c -0.778,0.779 -0.778,2.043 0,2.822 0.392,0.391 0.903,0.586 1.414,0.586 0.511,0 1.02,-0.195 1.411,-0.586 L 31.94,35.034 43.523,46.613 c 0.39,0.391 0.899,0.586 1.41,0.586 0.512,0 1.024,-0.195 1.412,-0.586 0.779,-0.779 0.779,-2.043 0,-2.822 L 34.856,32.303 46.355,20.803 c 0.78,-0.781 0.78,-2.044 0,-2.824 z"
       id="path1646" /><path
       inkscape:connector-curvature="0"
       d="M 31.94,0 C 14.33,0 0,14.328 0,31.941 c 0,17.611 14.33,31.94 31.94,31.94 17.611,0 31.941,-14.329 31.941,-31.94 C 63.882,14.328 49.552,0 31.94,0 Z m 0,59.89 C 16.529,59.89 3.992,47.352 3.992,31.942 3.992,16.53 16.529,3.993 31.94,3.993 47.352,3.993 59.889,16.53 59.889,31.942 59.89,47.352 47.353,59.89 31.94,59.89 Z"
       id="path1648" /></g></g></svg>