<?xml version="1.0" encoding="UTF-8" standalone="no"?>
<!-- Generator: Adobe Illustrator 19.0.0, SVG Export Plug-In . SVG Version: 6.00 Build 0)  -->

<svg
   xmlns:dc="http://purl.org/dc/elements/1.1/"
   xmlns:cc="http://creativecommons.org/ns#"
   xmlns:rdf="http://www.w3.org/1999/02/22-rdf-syntax-ns#"
   xmlns:svg="http://www.w3.org/2000/svg"
   xmlns="http://www.w3.org/2000/svg"
   xmlns:sodipodi="http://sodipodi.sourceforge.net/DTD/sodipodi-0.dtd"
   xmlns:inkscape="http://www.inkscape.org/namespaces/inkscape"
   version="1.1"
   id="Capa_1"
   x="0px"
   y="0px"
   viewBox="0 0 511.989 511.989"
   style="enable-background:new 0 0 511.989 511.989;"
   xml:space="preserve"
   inkscape:version="0.91 r13725"
   sodipodi:docname="constellation_simple.svg"><metadata
     id="metadata87"><rdf:RDF><cc:Work
         rdf:about=""><dc:format>image/svg+xml</dc:format><dc:type
           rdf:resource="http://purl.org/dc/dcmitype/StillImage" /><dc:title></dc:title></cc:Work></rdf:RDF></metadata><defs
     id="defs85" /><sodipodi:namedview
     pagecolor="#ffffff"
     bordercolor="#666666"
     borderopacity="1"
     objecttolerance="10"
     gridtolerance="10"
     guidetolerance="10"
     inkscape:pageopacity="0"
     inkscape:pageshadow="2"
     inkscape:window-width="1920"
     inkscape:window-height="1017"
     id="namedview83"
     showgrid="false"
     inkscape:zoom="0.46094739"
     inkscape:cx="255.99451"
     inkscape:cy="82.438909"
     inkscape:window-x="-8"
     inkscape:window-y="-8"
     inkscape:window-maximized="1"
     inkscape:current-layer="Capa_1" /><g
     transform="translate(9.985007,12.223588)"
     id="g5"
     style="fill:#000000;fill-opacity:1"><rect
       x="229.76199"
       y="425.44699"
       transform="matrix(-0.7071,-0.7071,0.7071,-0.7071,96.5736,901.259)"
       style="fill:#000000;fill-opacity:1"
       width="10.362"
       height="10.362"
       id="rect7" /><rect
       x="353.00699"
       y="353.27301"
       transform="matrix(-0.7071,-0.7071,0.7071,-0.7071,358.0002,865.1969)"
       style="fill:#000000;fill-opacity:1"
       width="10.362"
       height="10.362"
       id="rect9" /><rect
       x="346.13101"
       y="453.207"
       transform="matrix(-0.7071,-0.7071,0.7071,-0.7071,275.5978,1030.9326)"
       style="fill:#000000;fill-opacity:1"
       width="10.362"
       height="10.362"
       id="rect11" /><rect
       x="84.764"
       y="85.250999"
       transform="matrix(-0.7071,-0.7071,0.7071,-0.7071,89.6011,217.9789)"
       style="fill:#000000;fill-opacity:1"
       width="10.362"
       height="10.362"
       id="rect13" /><rect
       x="98.089996"
       y="411.01901"
       transform="matrix(-0.7071,-0.7071,0.7071,-0.7071,-118.0028,783.5229)"
       style="fill:#000000;fill-opacity:1"
       width="10.362"
       height="10.362"
       id="rect15" /><rect
       x="122.357"
       y="301.49399"
       transform="matrix(-0.7071,-0.7071,0.7071,-0.7071,0.8687,613.7111)"
       style="fill:#000000;fill-opacity:1"
       width="10.362"
       height="10.362"
       id="rect17" /><rect
       x="277.97299"
       y="98.058998"
       transform="matrix(-0.7071,-0.7071,0.7071,-0.7071,410.3727,376.4628)"
       style="fill:#000000;fill-opacity:1"
       width="10.362"
       height="10.362"
       id="rect19" /><rect
       x="217.996"
       y="23.964001"
       transform="matrix(-0.7071,-0.7071,0.7071,-0.7071,360.3785,207.565)"
       style="fill:#000000;fill-opacity:1"
       width="10.362"
       height="10.362"
       id="rect21" /><rect
       x="397.67801"
       y="86.197998"
       transform="matrix(-0.7071,-0.7071,0.7071,-0.7071,623.1082,440.8592)"
       style="fill:#000000;fill-opacity:1"
       width="10.362"
       height="10.362"
       id="rect23" /><polygon
       style="fill:#000000;fill-opacity:1"
       points="440.799,165.265 443.646,191.017 446.492,165.265 472.244,162.418 446.492,159.571 443.646,133.82 440.799,159.571 415.047,162.418 "
       id="polygon25" /><polygon
       style="fill:#000000;fill-opacity:1"
       points="411.788,288.51 414.635,314.262 417.482,288.51 443.234,285.663 417.482,282.816 414.635,257.065 411.788,282.816 386.038,285.663 "
       id="polygon27" /><polygon
       style="fill:#000000;fill-opacity:1"
       points="299.647,290.873 302.493,316.624 305.34,290.873 331.092,288.026 305.34,285.179 302.493,259.428 299.647,285.179 273.896,288.026 "
       id="polygon29" /><polygon
       style="fill:#000000;fill-opacity:1"
       points="185.426,247.428 188.273,273.18 191.12,247.428 216.871,244.582 191.12,241.735 188.273,215.983 185.426,241.735 159.675,244.582 "
       id="polygon31" /><polygon
       style="fill:#000000;fill-opacity:1"
       points="45.526,266.304 48.373,292.055 51.22,266.304 76.972,263.457 51.22,260.61 48.373,234.858 45.526,260.61 19.775,263.457 "
       id="polygon33" /><polygon
       style="fill:#000000;fill-opacity:1"
       points="262.583,208.908 264.723,228.265 266.862,208.908 286.218,206.769 266.862,204.629 264.723,185.273 262.583,204.629 243.226,206.769 "
       id="polygon35" /><polygon
       style="fill:#000000;fill-opacity:1"
       points="108.895,194.763 111.035,214.119 113.174,194.763 132.532,192.623 113.174,190.482 111.035,171.126 108.895,190.482 89.539,192.623 "
       id="polygon37" /><rect
       x="424.69299"
       y="202.452"
       transform="matrix(-0.9731,-0.2305,0.2305,-0.9731,790.6718,540.6286)"
       style="fill:#000000;fill-opacity:1"
       width="4.441"
       height="43.359001"
       id="rect39" /><rect
       x="355.32599"
       y="114.079"
       transform="matrix(-0.1402,-0.9901,0.9901,-0.1402,228.1032,560.8044)"
       style="fill:#000000;fill-opacity:1"
       width="4.4400001"
       height="134.567"
       id="rect41" /><rect
       x="268.27701"
       y="246.85699"
       transform="matrix(-0.3473,-0.9377,0.9377,-0.3473,149.417,602.1504)"
       style="fill:#000000;fill-opacity:1"
       width="31.966999"
       height="4.441"
       id="rect43" /><rect
       x="348.63901"
       y="280.73199"
       style="fill:#000000;fill-opacity:1"
       width="23.316999"
       height="4.441"
       id="rect45" /><rect
       x="75.671997"
       y="204.67101"
       transform="matrix(-0.6772,-0.7358,0.7358,-0.6772,-36.4331,438.1489)"
       style="fill:#000000;fill-opacity:1"
       width="4.441"
       height="44.790001"
       id="rect47" /><rect
       x="130.161"
       y="216.88699"
       transform="matrix(-0.8809,-0.4733,0.4733,-0.8809,178.6225,483.1628)"
       style="fill:#000000;fill-opacity:1"
       width="39.880001"
       height="4.441"
       id="rect49" /><rect
       x="224.28"
       y="209.758"
       transform="matrix(-0.3589,-0.9334,0.9334,-0.3589,97.5718,517.465)"
       style="fill:#000000;fill-opacity:1"
       width="4.441"
       height="30.931"
       id="rect51" /></g></svg>