<?xml version="1.0" encoding="UTF-8" standalone="no"?>
<!-- Generator: Adobe Illustrator 16.0.0, SVG Export Plug-In . SVG Version: 6.00 Build 0)  -->

<svg
   xmlns:dc="http://purl.org/dc/elements/1.1/"
   xmlns:cc="http://creativecommons.org/ns#"
   xmlns:rdf="http://www.w3.org/1999/02/22-rdf-syntax-ns#"
   xmlns:svg="http://www.w3.org/2000/svg"
   xmlns="http://www.w3.org/2000/svg"
   xmlns:sodipodi="http://sodipodi.sourceforge.net/DTD/sodipodi-0.dtd"
   xmlns:inkscape="http://www.inkscape.org/namespaces/inkscape"
   version="1.1"
   id="Capa_1"
   x="0px"
   y="0px"
   width="408px"
   height="408px"
   viewBox="0 0 408 408"
   style="enable-background:new 0 0 408 408;"
   xml:space="preserve"
   sodipodi:docname="dots_vertical.svg"
   inkscape:version="0.92.4 (5da689c313, 2019-01-14)"><metadata
   id="metadata4600"><rdf:RDF><cc:Work
       rdf:about=""><dc:format>image/svg+xml</dc:format><dc:type
         rdf:resource="http://purl.org/dc/dcmitype/StillImage" /><dc:title></dc:title></cc:Work></rdf:RDF></metadata><defs
   id="defs4598" /><sodipodi:namedview
   pagecolor="#ffffff"
   bordercolor="#666666"
   borderopacity="1"
   objecttolerance="10"
   gridtolerance="10"
   guidetolerance="10"
   inkscape:pageopacity="0"
   inkscape:pageshadow="2"
   inkscape:window-width="1516"
   inkscape:window-height="898"
   id="namedview4596"
   showgrid="false"
   inkscape:zoom="1.4803922"
   inkscape:cx="219.55514"
   inkscape:cy="209.27526"
   inkscape:window-x="400"
   inkscape:window-y="107"
   inkscape:window-maximized="0"
   inkscape:current-layer="Capa_1" />
<g
   id="g4563"
   transform="rotate(90,204,204)">
	<g
   id="keyboard-control">
		<path
   d="m 51,153 c -28.05,0 -51,22.95 -51,51 0,28.05 22.95,51 51,51 28.05,0 51,-22.95 51,-51 0,-28.05 -22.95,-51 -51,-51 z m 306,0 c -28.05,0 -51,22.95 -51,51 0,28.05 22.95,51 51,51 28.05,0 51,-22.95 51,-51 0,-28.05 -22.95,-51 -51,-51 z m -153,0 c -28.05,0 -51,22.95 -51,51 0,28.05 22.95,51 51,51 28.05,0 51,-22.95 51,-51 0,-28.05 -22.95,-51 -51,-51 z"
   id="path4560"
   inkscape:connector-curvature="0" />
	</g>
</g>
<g
   id="g4565">
</g>
<g
   id="g4567">
</g>
<g
   id="g4569">
</g>
<g
   id="g4571">
</g>
<g
   id="g4573">
</g>
<g
   id="g4575">
</g>
<g
   id="g4577">
</g>
<g
   id="g4579">
</g>
<g
   id="g4581">
</g>
<g
   id="g4583">
</g>
<g
   id="g4585">
</g>
<g
   id="g4587">
</g>
<g
   id="g4589">
</g>
<g
   id="g4591">
</g>
<g
   id="g4593">
</g>
</svg>