<?xml version="1.0" encoding="UTF-8" standalone="no"?>
<!-- Generator: Adobe Illustrator 19.0.0, SVG Export Plug-In . SVG Version: 6.00 Build 0)  -->

<svg
   xmlns:dc="http://purl.org/dc/elements/1.1/"
   xmlns:cc="http://creativecommons.org/ns#"
   xmlns:rdf="http://www.w3.org/1999/02/22-rdf-syntax-ns#"
   xmlns:svg="http://www.w3.org/2000/svg"
   xmlns="http://www.w3.org/2000/svg"
   xmlns:sodipodi="http://sodipodi.sourceforge.net/DTD/sodipodi-0.dtd"
   xmlns:inkscape="http://www.inkscape.org/namespaces/inkscape"
   version="1.1"
   id="Capa_1"
   x="0px"
   y="0px"
   viewBox="0 0 394.83 394.83"
   style="enable-background:new 0 0 394.83 394.83;"
   xml:space="preserve"
   inkscape:version="0.91 r13725"
   sodipodi:docname="equipment.svg"><metadata
     id="metadata5270"><rdf:RDF><cc:Work
         rdf:about=""><dc:format>image/svg+xml</dc:format><dc:type
           rdf:resource="http://purl.org/dc/dcmitype/StillImage" /><dc:title></dc:title></cc:Work></rdf:RDF></metadata><defs
     id="defs5268" /><sodipodi:namedview
     pagecolor="#ffffff"
     bordercolor="#666666"
     borderopacity="1"
     objecttolerance="10"
     gridtolerance="10"
     guidetolerance="10"
     inkscape:pageopacity="0"
     inkscape:pageshadow="2"
     inkscape:window-width="1920"
     inkscape:window-height="1017"
     id="namedview5266"
     showgrid="false"
     inkscape:zoom="1.0764127"
     inkscape:cx="-36.649113"
     inkscape:cy="247.19784"
     inkscape:window-x="-8"
     inkscape:window-y="-8"
     inkscape:window-maximized="1"
     inkscape:current-layer="Capa_1" /><g
     id="g5236"
     transform="matrix(0.5840481,0,0,0.58235746,135.65646,30.817175)" /><g
     id="g5238"
     transform="matrix(0.5840481,0,0,0.58235746,135.65646,30.817175)" /><g
     id="g5240"
     transform="matrix(0.5840481,0,0,0.58235746,135.65646,30.817175)" /><g
     id="g5242"
     transform="matrix(0.5840481,0,0,0.58235746,135.65646,30.817175)" /><g
     id="g5244"
     transform="matrix(0.5840481,0,0,0.58235746,135.65646,30.817175)" /><g
     id="g5246"
     transform="matrix(0.5840481,0,0,0.58235746,135.65646,30.817175)" /><g
     id="g5248"
     transform="matrix(0.5840481,0,0,0.58235746,135.65646,30.817175)" /><g
     id="g5250"
     transform="matrix(0.5840481,0,0,0.58235746,135.65646,30.817175)" /><g
     id="g5252"
     transform="matrix(0.5840481,0,0,0.58235746,135.65646,30.817175)" /><g
     id="g5254"
     transform="matrix(0.5840481,0,0,0.58235746,135.65646,30.817175)" /><g
     id="g5256"
     transform="matrix(0.5840481,0,0,0.58235746,135.65646,30.817175)" /><g
     id="g5258"
     transform="matrix(0.5840481,0,0,0.58235746,135.65646,30.817175)" /><g
     id="g5260"
     transform="matrix(0.5840481,0,0,0.58235746,135.65646,30.817175)" /><g
     id="g5262"
     transform="matrix(0.5840481,0,0,0.58235746,135.65646,30.817175)" /><g
     id="g5264"
     transform="matrix(0.5840481,0,0,0.58235746,135.65646,30.817175)" /><g
     id="g5313"
     transform="matrix(3.4382354,0,0,3.4282828,-0.26915309,2.6650737)"><g
       id="g5273"><path
         id="path5275"
         d="m 11.025,87.78 93.333,0 c 1.931,0 3.5,-1.57 3.5,-3.5 l 0,-60 c 0,-1.93 -1.569,-3.5 -3.5,-3.5 l -93.333,0 c -1.93,0 -3.5,1.57 -3.5,3.5 l 0,60 c 0,1.93 1.571,3.5 3.5,3.5 z m -0.5,-63.5 c 0,-0.276 0.224,-0.5 0.5,-0.5 l 93.333,0 c 0.276,0 0.5,0.224 0.5,0.5 l 0,60 c 0,0.276 -0.224,0.5 -0.5,0.5 l -93.333,0 c -0.276,0 -0.5,-0.224 -0.5,-0.5 l 0,-60 z m 104.858,66.178 0,2.801 c 0,0.742 -0.602,1.344 -1.344,1.344 l -112.695,0 C 0.602,94.603 0,94.001 0,93.259 l 0,-2.801 47.387,0 c 0.234,0.781 0.95,1.354 1.807,1.354 l 16.996,0 c 0.856,0 1.572,-0.572 1.807,-1.354 l 47.386,0 z"
         inkscape:connector-curvature="0" /></g><g
       id="g5277" /><g
       id="g5279" /><g
       id="g5281" /><g
       id="g5283" /><g
       id="g5285" /><g
       id="g5287" /><g
       id="g5289" /><g
       id="g5291" /><g
       id="g5293" /><g
       id="g5295" /><g
       id="g5297" /><g
       id="g5299" /><g
       id="g5301" /><g
       id="g5303" /><g
       id="g5305" /></g><g
     id="g5500"
     transform="matrix(0.34577077,0,0,0.34577077,111.18347,100.69968)"><g
       id="g5502"><path
         id="path5504"
         d="m 495,17 c -8,-8 -20.9,-8 -28.9,0 l -39.9,39.9 c -16.8,-11.2 -36.4,-17.2 -57,-17.2 -27.5,0 -53.4,10.7 -72.9,30.2 l -58.4,58.4 c -8,8 -8,20.9 0,28.9 l 116.9,116.9 c 12.5,11.3 25,3.8 28.9,0 l 58.4,-58.4 c 35.2,-35.2 39.6,-89.9 13,-129.9 L 495,45.9 c 8,-8 8,-20.9 0,-28.9 z m -81.8,169.8 -44,44 -88,-88 44,-44 c 11.8,-11.8 27.4,-18.2 44,-18.2 16.6,0 32.3,6.5 44,18.2 24.3,24.2 24.3,63.7 0,88 z"
         inkscape:connector-curvature="0" /><path
         id="path5506"
         d="M 268.9,274.5 231.3,312 200,280.6 237.5,243.1 c 8,-8 8,-20.9 0,-28.9 -8,-8 -20.9,-8 -28.9,0 l -37.5,37.5 -13.9,-13.9 c -3.8,-3.8 -16.1,-11.2 -28.9,0 l -58.4,58.4 c -35.2,35.2 -39.6,89.9 -13,129.9 l -39.9,40 c -8,8 -8,20.9 0,28.9 8,8 20.9,8 28.9,0 l 39.9,-39.9 c 16.8,11.2 36.4,17.2 57,17.2 27.5,0 53.4,-10.7 72.9,-30.2 l 58.4,-58.4 c 8,-8 8,-20.9 0,-28.9 l -13.9,-13.9 37.5,-37.5 c 8,-8 8,-20.9 0,-28.9 -7.9,-8 -20.9,-8 -28.8,0 z m -82.1,138.7 c -11.8,11.8 -27.4,18.2 -44,18.2 -16.6,0 -32.3,-6.5 -44,-18.2 -24.3,-24.3 -24.3,-63.8 0,-88 l 44,-44 88,88 -44,44 z"
         inkscape:connector-curvature="0" /></g></g></svg>