<?xml version='1.0' encoding='utf-8'?>
<!DOCTYPE svg PUBLIC '-//W3C//DTD SVG 1.1//EN' 'http://www.w3.org/Graphics/SVG/1.1/DTD/svg11.dtd'>
<svg width="64" version="1.1" xmlns="http://www.w3.org/2000/svg" height="64" viewBox="0 0 64 64" xmlns:xlink="http://www.w3.org/1999/xlink" enable-background="new 0 0 64 64">
  <g>
    <g fill="#1D1D1B">
      <path d="M31.939,0C14.328,0,0,14.329,0,31.941s14.328,31.941,31.939,31.941c17.615,0,31.943-14.329,31.943-31.941    S49.555,0,31.939,0z M31.939,59.891c-15.409,0-27.947-12.538-27.947-27.949S16.53,3.992,31.939,3.992    c15.411,0,27.951,12.538,27.951,27.949S47.351,59.891,31.939,59.891z"/>
      <circle cx="32.479" cy="51.574" r="2.246"/>
      <path d="m32.479,45.499c1.103,0 1.996-0.894 1.996-1.996v-28.771c0-1.102-0.894-1.996-1.996-1.996-1.104,0-1.997,0.895-1.997,1.996v28.771c-0.001,1.102 0.892,1.996 1.997,1.996z"/>
    </g>
  </g>
</svg>
