<?xml version="1.0" encoding="UTF-8" standalone="no"?>
<!-- Created with Inkscape (http://www.inkscape.org/) -->

<svg
   xmlns:dc="http://purl.org/dc/elements/1.1/"
   xmlns:cc="http://creativecommons.org/ns#"
   xmlns:rdf="http://www.w3.org/1999/02/22-rdf-syntax-ns#"
   xmlns:svg="http://www.w3.org/2000/svg"
   xmlns="http://www.w3.org/2000/svg"
   xmlns:sodipodi="http://sodipodi.sourceforge.net/DTD/sodipodi-0.dtd"
   xmlns:inkscape="http://www.inkscape.org/namespaces/inkscape"
   width="210mm"
   height="297mm"
   viewBox="0 0 210 297"
   version="1.1"
   id="svg953"
   sodipodi:docname="flatwizard.svg"
   inkscape:version="0.92.4 (5da689c313, 2019-01-14)">
  <defs
     id="defs947" />
  <sodipodi:namedview
     id="base"
     pagecolor="#ffffff"
     bordercolor="#666666"
     borderopacity="1.0"
     inkscape:pageopacity="0.0"
     inkscape:pageshadow="2"
     inkscape:zoom="0.7"
     inkscape:cx="601.80915"
     inkscape:cy="650.21807"
     inkscape:document-units="mm"
     inkscape:current-layer="layer1"
     showgrid="false"
     inkscape:window-width="2560"
     inkscape:window-height="1377"
     inkscape:window-x="-8"
     inkscape:window-y="-8"
     inkscape:window-maximized="1" />
  <metadata
     id="metadata950">
    <rdf:RDF>
      <cc:Work
         rdf:about="">
        <dc:format>image/svg+xml</dc:format>
        <dc:type
           rdf:resource="http://purl.org/dc/dcmitype/StillImage" />
        <dc:title></dc:title>
      </cc:Work>
    </rdf:RDF>
  </metadata>
  <g
     inkscape:label="Layer 1"
     inkscape:groupmode="layer"
     id="layer1">
    <g
       transform="matrix(-0.21444228,0,0,0.21444228,197.14506,118.37573)"
       id="g878"
       style="stroke:none;stroke-opacity:1;fill:#000000;fill-opacity:1">
      <g
         id="g876"
         style="stroke:none;stroke-opacity:1;fill:#000000;fill-opacity:1" />
    </g>
    <g
       transform="matrix(-0.26458333,0,0,0.26458333,230.78504,237.81615)"
       id="g880" />
    <g
       transform="matrix(-0.26458333,0,0,0.26458333,230.78504,237.81615)"
       id="g882" />
    <g
       transform="matrix(-0.26458333,0,0,0.26458333,230.78504,237.81615)"
       id="g884" />
    <g
       transform="matrix(-0.26458333,0,0,0.26458333,230.78504,237.81615)"
       id="g886" />
    <g
       transform="matrix(-0.26458333,0,0,0.26458333,230.78504,237.81615)"
       id="g888" />
    <g
       transform="matrix(-0.26458333,0,0,0.26458333,230.78504,237.81615)"
       id="g890" />
    <g
       transform="matrix(-0.26458333,0,0,0.26458333,230.78504,237.81615)"
       id="g892" />
    <g
       transform="matrix(-0.26458333,0,0,0.26458333,230.78504,237.81615)"
       id="g894" />
    <g
       transform="matrix(-0.26458333,0,0,0.26458333,230.78504,237.81615)"
       id="g896" />
    <g
       transform="matrix(-0.26458333,0,0,0.26458333,230.78504,237.81615)"
       id="g898" />
    <g
       transform="matrix(-0.26458333,0,0,0.26458333,230.78504,237.81615)"
       id="g900" />
    <g
       transform="matrix(-0.26458333,0,0,0.26458333,230.78504,237.81615)"
       id="g902" />
    <g
       transform="matrix(-0.26458333,0,0,0.26458333,230.78504,237.81615)"
       id="g904" />
    <g
       transform="matrix(-0.26458333,0,0,0.26458333,230.78504,237.81615)"
       id="g906" />
    <g
       transform="matrix(-0.26458333,0,0,0.26458333,230.78504,237.81615)"
       id="g908" />
    <path
       id="path1614"
       style="fill:#000000;fill-opacity:1;stroke:none;stroke-width:1.94307411;stroke-miterlimit:4;stroke-dasharray:none;stroke-opacity:1"
       d="m 138.05622,177.34217 c -3.5882,-3.60374 -6.48459,-6.58558 -6.43645,-6.62633 0.0482,-0.0408 1.29818,-0.31337 2.77785,-0.60583 7.39741,-1.46209 17.07554,-4.3276 23.14931,-6.85407 l 1.43477,-0.59681 10.57527,10.61765 12.69862,12.76663 -19.89938,-2.14899 -17.31673,0.22794 z M -3.7796886,50.937754 V 183.83864 H 211.25901 V 50.937754 Z M 102.93431,61.412416 a 96.238894,55.975682 0 0 1 96.23889,55.975564 96.238894,55.975682 0 0 1 -96.23889,55.976 96.238894,55.975682 0 0 1 -96.2388885,-55.976 96.238894,55.975682 0 0 1 96.2388885,-55.975564 z m 39.16942,62.963194 1.83691,-5.99967 1.83606,5.99967 6.00009,1.83691 -6.00009,1.83649 -1.83606,5.99966 -1.83691,-5.99966 -5.99924,-1.83649 z m -29.51047,41.01981 -6.0001,1.83669 -1.83605,5.99903 -1.83627,-5.99903 -6.000526,-1.83669 6.000526,-1.8367 1.83627,-5.99945 1.83605,5.99945 z m 35.26546,-27.42803 11.99997,-3.67361 3.67404,-12.0004 3.67404,12.0004 11.99998,3.67361 -11.99998,3.67404 -3.67404,12.00041 -3.67404,-12.00041 z m 33.42876,-13.59178 1.83649,-5.99967 1.83691,5.99967 5.99966,1.83691 -5.99966,1.83649 -1.83691,5.99966 -1.83649,-5.99966 -5.99945,-1.83649 z M 98.575165,136.0076 c 0,-1.10137 0.36541,-2.01983 1.100732,-2.75408 l 12.122633,-12.12264 c 0.73447,-0.73489 1.6525,-1.10223 2.75494,-1.10223 1.10309,0 2.02026,0.36734 2.75494,1.10223 l 78.73442,78.73399 c 0.73575,0.73532 1.10223,1.65421 1.10223,2.75623 0,1.10244 -0.36648,2.01961 -1.10223,2.75494 l -12.12221,12.12177 c -0.73575,0.73533 -1.65292,1.10245 -2.75558,1.10245 -1.10159,0 -2.01984,-0.36541 -2.75494,-1.10245 L 99.675039,138.76319 c -0.734464,-0.73554 -1.099874,-1.65292 -1.099874,-2.75559 z m 27.366905,17.93917 6.55036,-6.55121 -17.93831,-17.93895 -6.55036,6.55099 z" />
  </g>
</svg>
