<?xml version='1.0' encoding='iso-8859-1'?>
<svg version="1.1" xmlns="http://www.w3.org/2000/svg" viewBox="0 0 296.505 296.505" xmlns:xlink="http://www.w3.org/1999/xlink" enable-background="new 0 0 296.505 296.505">
  <g>
    <path d="m136.507,.685c-43.503,5.22-80.046,40.023-87.006,83.526-3.48,27.842 3.48,55.684 20.882,78.305 15.661,19.141 24.362,45.243 24.362,74.825 0,9.884 5.412,17.819 13.468,21.699l16.113,32.244c0,3.48 3.48,5.22 6.96,5.22h34.802c1.74,0 5.22-1.74 6.96-5.22l15.766-31.514c8.004-3.62 13.817-12.041 13.817-22.43v-5.22c0-24.362 8.701-50.463 26.102-73.085 12.181-17.401 19.141-38.283 19.141-59.164 0-59.163-50.463-106.146-111.367-99.186zm50.463,231.436v5.22c0,3.48-3.48,6.96-6.96,6.96h-60.904c-3.48,0-6.96-1.74-6.96-6.96 0-12.842-2.001-24.953-4.942-36.543h84.43c-2.784,10.512-4.664,21.022-4.664,31.323zm-26.102,46.984h-24.362l-8.701-17.401h41.763l-8.7,17.401zm55.685-130.51c-8.127,11.084-14.321,22.865-19.176,34.802h-95.777c-4.559-11.363-10.163-22.047-17.297-31.322-15.661-17.401-20.882-40.023-17.401-64.385 5.22-36.543 34.802-66.124 71.345-69.605 3.48,0 6.96,0 10.441,0 45.243,0 83.526,36.543 83.526,81.786 0,17.403-5.221,34.804-15.661,48.724z"/>
  </g>
</svg>
