<?xml version="1.0" encoding="iso-8859-1"?>
<!-- Generator: Adobe Illustrator 19.0.0, SVG Export Plug-In . SVG Version: 6.00 Build 0)  -->
<svg version="1.1" id="Layer_1" xmlns="http://www.w3.org/2000/svg" xmlns:xlink="http://www.w3.org/1999/xlink" x="0px" y="0px"
	 viewBox="0 0 499.996 499.996" style="enable-background:new 0 0 499.996 499.996;" xml:space="preserve">
<g>
	<g>
		<path d="M362.488,55.896H171.864c-2.208,0-4,1.788-4,4s1.792,4,4,4h190.624c2.208,0,4-1.788,4-4
			C366.488,57.684,364.696,55.896,362.488,55.896z"/>
	</g>
</g>
<g>
	<g>
		<path d="M494.756,87.016H323.584c-2.208,0-4,1.788-4,4s1.792,4,4,4h171.172c2.212,0,4-1.788,4-4S496.964,87.016,494.756,87.016z"
			/>
	</g>
</g>
<g>
	<g>
		<path d="M280.792,87.016H171.864c-2.208,0-4,1.788-4,4s1.792,4,4,4h108.928c2.208,0,4-1.788,4-4S283,87.016,280.792,87.016z"/>
	</g>
</g>
<g>
	<g>
		<path d="M311.916,234.848H171.864c-2.208,0-4,1.788-4,4c0,2.212,1.792,4,4,4h140.048c2.212,0,4.004-1.788,4.004-4
			C315.916,236.636,314.124,234.848,311.916,234.848z"/>
	</g>
</g>
<g>
	<g>
		<path d="M401.392,234.848h-50.576c-2.208,0-4,1.788-4,4c0,2.212,1.792,4,4,4h50.576c2.208,0,4-1.788,4-4
			C405.392,236.636,403.6,234.848,401.392,234.848z"/>
	</g>
</g>
<g>
	<g>
		<path d="M494.756,265.972H261.34c-2.208,0-4,1.788-4,4c0,2.212,1.792,4,4,4h233.416c2.212,0,4-1.788,4-4
			C498.756,267.76,496.964,265.972,494.756,265.972z"/>
	</g>
</g>
<g>
	<g>
		<path d="M218.548,265.972h-46.684c-2.208,0-4,1.788-4,4c0,2.212,1.792,4,4,4h46.684c2.208,0,4-1.788,4-4
			S220.756,265.972,218.548,265.972z"/>
	</g>
</g>
<g>
	<g>
		<path d="M362.488,417.696H171.864c-2.208,0-4,1.788-4,4c0,2.212,1.792,4,4,4h190.624c2.208,0,4-1.788,4-4
			C366.488,419.484,364.696,417.696,362.488,417.696z"/>
	</g>
</g>
<g>
	<g>
		<path d="M494.756,448.816H323.584c-2.208,0-4,1.788-4,4c0,2.212,1.792,4,4,4h171.172c2.212,0,4-1.788,4-4
			C498.756,450.604,496.964,448.816,494.756,448.816z"/>
	</g>
</g>
<g>
	<g>
		<path d="M280.792,448.816H171.864c-2.208,0-4,1.788-4,4c0,2.212,1.792,4,4,4h108.928c2.208,0,4-1.788,4-4
			C284.792,450.604,283,448.816,280.792,448.816z"/>
	</g>
</g>
<g>
	<g>
		<path d="M141.496,50.852c-0.548-1.636-2.072-2.736-3.796-2.736H90.008L75.268,2.764C74.732,1.116,73.196,0,71.464,0
			s-3.268,1.116-3.804,2.764L52.932,48.12H5.24c-1.724,0-3.252,1.104-3.796,2.74c-0.544,1.632,0.02,3.432,1.4,4.464L41.496,84.24
			l-14.772,46.284c-0.524,1.648,0.068,3.444,1.472,4.46c0.7,0.504,1.52,0.752,2.34,0.752c0.828,0,1.656-0.26,2.356-0.768
			L71.48,106.82l38.588,27.812c1.4,1.012,3.296,1.008,4.692-0.012c1.396-1.016,1.984-2.816,1.456-4.46l-14.764-45.872L140.1,55.316
			C141.48,54.284,142.044,52.488,141.496,50.852z M94.372,79.6c-1.368,1.02-1.932,2.8-1.412,4.424l11.908,36.996L73.804,98.628
			c-1.4-1.008-3.3-1-4.696,0.016l-31.04,22.644l11.916-37.336c0.516-1.62-0.052-3.392-1.416-4.416l-31.304-23.42h38.58
			c1.732,0,3.268-1.116,3.804-2.764l11.824-36.408l11.832,36.408c0.536,1.648,2.072,2.764,3.804,2.764H125.7L94.372,79.6z"/>
	</g>
</g>
<g>
	<g>
		<path d="M141.5,233.712c-0.544-1.64-2.072-2.748-3.8-2.748H90.008l-14.74-45.356c-0.536-1.648-2.072-2.764-3.804-2.764
			s-3.268,1.116-3.804,2.764L52.936,230.96H5.244c-1.728,0-3.26,1.112-3.8,2.752c-0.544,1.636,0.032,3.44,1.42,4.464l38.62,28.552
			l-14.756,45.916c-0.532,1.648,0.06,3.448,1.464,4.464c0.7,0.504,1.52,0.756,2.344,0.756c0.824,0,1.652-0.252,2.352-0.764
			l38.584-28.104L110.06,316.9c1.404,1.012,3.3,1.016,4.696-0.008c1.4-1.016,1.988-2.816,1.456-4.464l-14.752-45.664l38.62-28.584
			C141.468,237.152,142.04,235.352,141.5,233.712z M94.388,262.04c-1.38,1.02-1.956,2.808-1.428,4.444l11.876,36.76l-31.028-22.436
			c-1.4-1.008-3.292-1.012-4.7,0.008l-31.012,22.588L49.98,266.44c0.524-1.632-0.052-3.416-1.432-4.436L17.38,238.96h38.456
			c1.732,0,3.268-1.116,3.804-2.764l11.824-36.412l11.832,36.412c0.536,1.648,2.072,2.764,3.804,2.764h38.468L94.388,262.04z"/>
	</g>
</g>
<g>
	<g>
		<path d="M141.504,416.564c-0.54-1.644-2.072-2.756-3.804-2.756H90.008l-14.74-45.356c-0.536-1.648-2.072-2.764-3.804-2.764
			s-3.268,1.116-3.804,2.764l-14.724,45.356H5.244c-1.732,0-3.268,1.112-3.804,2.756c-0.536,1.648,0.044,3.448,1.444,4.472
			l38.592,28.196l-14.744,45.536c-0.536,1.644,0.052,3.448,1.456,4.468c0.7,0.508,1.524,0.76,2.348,0.76
			c0.824,0,1.652-0.252,2.356-0.764l38.584-28.06l38.584,27.992c1.404,1.016,3.3,1.02,4.7-0.004c1.4-1.016,1.988-2.82,1.452-4.468
			l-14.744-45.452l38.592-28.204C141.46,420.012,142.044,418.208,141.504,416.564z M94.412,444.484
			c-1.396,1.02-1.976,2.82-1.444,4.464l11.844,36.52l-30.996-22.484c-1.404-1.016-3.304-1.02-4.704,0.004l-30.984,22.536
			l11.848-36.588c0.536-1.64-0.048-3.44-1.444-4.46l-31.036-22.672V421.8h38.348c1.732,0,3.268-1.116,3.804-2.764l11.824-36.412
			l11.832,36.412c0.536,1.648,2.072,2.764,3.804,2.764h38.344L94.412,444.484z"/>
	</g>
</g>
<g>
</g>
<g>
</g>
<g>
</g>
<g>
</g>
<g>
</g>
<g>
</g>
<g>
</g>
<g>
</g>
<g>
</g>
<g>
</g>
<g>
</g>
<g>
</g>
<g>
</g>
<g>
</g>
<g>
</g>
</svg>
