<?xml version="1.0" encoding="UTF-8" standalone="no"?>
<!-- Generator: Adobe Illustrator 19.0.0, SVG Export Plug-In . SVG Version: 6.00 Build 0)  -->

<svg
   xmlns:dc="http://purl.org/dc/elements/1.1/"
   xmlns:cc="http://creativecommons.org/ns#"
   xmlns:rdf="http://www.w3.org/1999/02/22-rdf-syntax-ns#"
   xmlns:svg="http://www.w3.org/2000/svg"
   xmlns="http://www.w3.org/2000/svg"
   xmlns:sodipodi="http://sodipodi.sourceforge.net/DTD/sodipodi-0.dtd"
   xmlns:inkscape="http://www.inkscape.org/namespaces/inkscape"
   version="1.1"
   id="Capa_1"
   x="0px"
   y="0px"
   viewBox="0 0 33 33"
   style="enable-background:new 0 0 33 33;"
   xml:space="preserve"
   inkscape:version="0.91 r13725"
   sodipodi:docname="map.svg"><metadata
     id="metadata45"><rdf:RDF><cc:Work
         rdf:about=""><dc:format>image/svg+xml</dc:format><dc:type
           rdf:resource="http://purl.org/dc/dcmitype/StillImage" /><dc:title></dc:title></cc:Work></rdf:RDF></metadata><defs
     id="defs43" /><sodipodi:namedview
     pagecolor="#ffffff"
     bordercolor="#666666"
     borderopacity="1"
     objecttolerance="10"
     gridtolerance="10"
     guidetolerance="10"
     inkscape:pageopacity="0"
     inkscape:pageshadow="2"
     inkscape:window-width="1337"
     inkscape:window-height="816"
     id="namedview41"
     showgrid="false"
     inkscape:zoom="10.11377"
     inkscape:cx="3.041793"
     inkscape:cy="14.026246"
     inkscape:window-x="0"
     inkscape:window-y="0"
     inkscape:window-maximized="0"
     inkscape:current-layer="Capa_1" /><g
     id="g3"
     style="opacity:1"><path
       d="M0.5,31.424c-0.11,0-0.22-0.037-0.309-0.106C0.07,31.223,0,31.078,0,30.924V4.688c0-0.23,0.157-0.431,0.381-0.486   l10.665-2.613c0.146-0.035,0.307-0.003,0.428,0.092c0.121,0.095,0.191,0.24,0.191,0.394V28.31c0,0.23-0.157,0.431-0.381,0.486   L0.619,31.41C0.58,31.42,0.54,31.424,0.5,31.424z M1,5.08v25.207l9.665-2.369V2.713L1,5.08z"
       id="path5"
       style="" /><path
       d="M21.833,31.424c-0.04,0-0.08-0.005-0.119-0.014l-10.668-2.612c-0.224-0.055-0.381-0.255-0.381-0.486V2.075   c0-0.153,0.07-0.299,0.191-0.394c0.122-0.095,0.281-0.125,0.428-0.092l10.668,2.613c0.224,0.055,0.381,0.255,0.381,0.486v26.236   c0,0.153-0.07,0.298-0.191,0.394C22.053,31.388,21.943,31.424,21.833,31.424z M11.665,27.92l9.668,2.368V5.08l-9.668-2.368V27.92z"
       id="path7"
       style="" /><path
       d="M21.833,31.424c-0.11,0-0.22-0.037-0.309-0.106c-0.121-0.095-0.191-0.24-0.191-0.394V4.688c0-0.23,0.157-0.431,0.381-0.486   l10.667-2.613c0.146-0.035,0.306-0.003,0.428,0.092C32.93,1.776,33,1.922,33,2.075V28.31c0,0.23-0.157,0.431-0.381,0.486   L21.952,31.41C21.913,31.42,21.873,31.424,21.833,31.424z M22.333,5.08v25.207L32,27.918V2.713L22.333,5.08z"
       id="path9"
       style="" /></g><g
     id="g11"
     style="opacity:1" /><g
     id="g13"
     style="opacity:1" /><g
     id="g15"
     style="opacity:1" /><g
     id="g17"
     style="opacity:1" /><g
     id="g19"
     style="opacity:1" /><g
     id="g21"
     style="opacity:1" /><g
     id="g23"
     style="opacity:1" /><g
     id="g25"
     style="opacity:1" /><g
     id="g27"
     style="opacity:1" /><g
     id="g29"
     style="opacity:1" /><g
     id="g31"
     style="opacity:1" /><g
     id="g33"
     style="opacity:1" /><g
     id="g35"
     style="opacity:1" /><g
     id="g37"
     style="opacity:1" /><g
     id="g39"
     style="opacity:1" /><path
     sodipodi:type="star"
     style="opacity:1;fill:#000000;fill-opacity:1;stroke:none;stroke-width:5;stroke-miterlimit:4;stroke-dasharray:none;stroke-opacity:1"
     id="path4175"
     sodipodi:sides="5"
     sodipodi:cx="3.4258475"
     sodipodi:cy="11.256356"
     sodipodi:r1="1.1947124"
     sodipodi:r2="0.5973562"
     sodipodi:arg1="0.35877067"
     sodipodi:arg2="0.9870892"
     inkscape:flatsided="false"
     inkscape:rounded="0"
     inkscape:randomized="0"
     d="m 4.5444916,11.675848 -0.7894285,0.07896 -0.3824957,0.695075 -0.31904,-0.726392 -0.7792529,-0.148985 0.592251,-0.527893 -0.099109,-0.787152 0.6850712,0.400136 0.7180001,-0.337501 -0.1688537,0.77519 z"
     inkscape:transform-center-x="0.016464463"
     inkscape:transform-center-y="0.098312741" /><path
     sodipodi:type="star"
     style="opacity:1;fill:#000000;fill-opacity:1;stroke:none;stroke-width:5;stroke-miterlimit:4;stroke-dasharray:none;stroke-opacity:1"
     id="path4177"
     sodipodi:sides="5"
     sodipodi:cx="8.8792372"
     sodipodi:cy="5.1038136"
     sodipodi:r1="0.85055578"
     sodipodi:r2="0.42527789"
     sodipodi:arg1="1.4056476"
     sodipodi:arg2="2.0339662"
     inkscape:flatsided="false"
     inkscape:rounded="0"
     inkscape:randomized="0"
     d="M 9.0190677,5.9427967 8.6892289,5.4842846 8.1245269,5.4960604 8.458672,5.040677 8.27297,4.5072524 8.8093219,4.6843221 9.2592537,4.3428718 9.2565923,4.9076903 9.7203675,5.2300869 9.1823707,5.4020943 Z"
     inkscape:transform-center-x="-0.043210003"
     inkscape:transform-center-y="0.039020597" /><path
     sodipodi:type="star"
     style="opacity:1;fill:#000000;fill-opacity:1;stroke:none;stroke-width:5;stroke-miterlimit:4;stroke-dasharray:none;stroke-opacity:1"
     id="path4179"
     sodipodi:sides="5"
     sodipodi:cx="6.0826273"
     sodipodi:cy="21.603813"
     sodipodi:r1="0.84189117"
     sodipodi:r2="0.42094558"
     sodipodi:arg1="0.84415399"
     sodipodi:arg2="1.4724725"
     inkscape:flatsided="false"
     inkscape:rounded="0"
     inkscape:randomized="0"
     d="m 6.6419493,22.23305 -0.5179997,-0.210324 -0.4669225,0.307479 0.03996,-0.557641 -0.4367174,-0.349053 0.5426965,-0.134316 0.1970164,-0.523207 0.2954447,0.474629 0.5584802,0.02569 -0.3601016,0.427653 z"
     inkscape:transform-center-x="0.025538596"
     inkscape:transform-center-y="-0.055716511" /><path
     sodipodi:type="star"
     style="opacity:1;fill:#000000;fill-opacity:1;stroke:none;stroke-width:5;stroke-miterlimit:4;stroke-dasharray:none;stroke-opacity:1"
     id="path4181"
     sodipodi:sides="5"
     sodipodi:cx="16.36017"
     sodipodi:cy="8.5296612"
     sodipodi:r1="0.77223921"
     sodipodi:r2="0.3861196"
     sodipodi:arg1="1.6614562"
     sodipodi:arg2="2.2897747"
     inkscape:flatsided="false"
     inkscape:rounded="0"
     inkscape:randomized="0"
     d="M 16.290255,9.298729 16.105866,8.8202081 15.607138,8.7008228 16.005259,8.377587 l -0.04057,-0.5112099 0.430442,0.2787502 0.473652,-0.1965599 -0.132094,0.4955129 0.333306,0.3897292 -0.51208,0.027494 z"
     inkscape:transform-center-x="0.021605002"
     inkscape:transform-center-y="0.052891862" /><path
     sodipodi:type="star"
     style="opacity:1;fill:#000000;fill-opacity:1;stroke:none;stroke-width:5;stroke-miterlimit:4;stroke-dasharray:none;stroke-opacity:1"
     id="path4183"
     sodipodi:sides="5"
     sodipodi:cx="13.213983"
     sodipodi:cy="20.135593"
     sodipodi:r1="0.69212574"
     sodipodi:r2="0.34606284"
     sodipodi:arg1="0.78539816"
     sodipodi:arg2="1.4137167"
     inkscape:flatsided="false"
     inkscape:rounded="0"
     inkscape:randomized="0"
     d="m 13.703389,20.625 -0.43527,-0.147604 -0.368355,0.274886 0.0059,-0.459579 -0.37526,-0.265382 0.438901,-0.136431 0.136431,-0.438901 0.265382,0.37526 0.459579,-0.0059 -0.274886,0.368355 z"
     inkscape:transform-center-x="0.033457985"
     inkscape:transform-center-y="-0.033457985" /><path
     sodipodi:type="star"
     style="opacity:1;fill:#000000;fill-opacity:1;stroke:none;stroke-width:5;stroke-miterlimit:4;stroke-dasharray:none;stroke-opacity:1"
     id="path4185"
     sodipodi:sides="5"
     sodipodi:cx="19.29661"
     sodipodi:cy="13.633475"
     sodipodi:r1="0.78167629"
     sodipodi:r2="0.39083815"
     sodipodi:arg1="1.1071487"
     sodipodi:arg2="1.7354672"
     inkscape:flatsided="false"
     inkscape:rounded="0"
     inkscape:randomized="0"
     d="m 19.646186,14.332628 -0.413645,-0.313602 -0.49284,0.162966 0.17043,-0.490308 -0.307286,-0.418359 0.518977,0.01057 0.302926,-0.421526 0.150316,0.496844 0.494504,0.157842 -0.426076,0.296492 z"
     inkscape:transform-center-x="-0.039596946"
     inkscape:transform-center-y="-0.035974761" /><path
     sodipodi:type="star"
     style="opacity:1;fill:#000000;fill-opacity:1;stroke:none;stroke-width:5;stroke-miterlimit:4;stroke-dasharray:none;stroke-opacity:1"
     id="path4187"
     sodipodi:sides="5"
     sodipodi:cx="17.618645"
     sodipodi:cy="26.358051"
     sodipodi:r1="0.56367481"
     sodipodi:r2="0.2818374"
     sodipodi:arg1="0.12435499"
     sodipodi:arg2="0.75267353"
     inkscape:flatsided="false"
     inkscape:rounded="0"
     inkscape:randomized="0"
     d="m 18.177967,26.427967 -0.353619,0.122746 -0.09936,0.36089 -0.226013,-0.298381 -0.373929,0.01703 0.213935,-0.307156 -0.131745,-0.350367 0.358232,0.108548 0.292507,-0.233566 0.0075,0.374243 z"
     inkscape:transform-center-x="-0.032862924"
     inkscape:transform-center-y="0.021605002" /><path
     sodipodi:type="star"
     style="opacity:1;fill:#000000;fill-opacity:1;stroke:none;stroke-width:5;stroke-miterlimit:4;stroke-dasharray:none;stroke-opacity:1"
     id="path4189"
     sodipodi:sides="5"
     sodipodi:cx="25.658897"
     sodipodi:cy="8.9491529"
     sodipodi:r1="1.2230175"
     sodipodi:r2="0.61150873"
     sodipodi:arg1="1.0303768"
     sodipodi:arg2="1.6586954"
     inkscape:flatsided="false"
     inkscape:rounded="0"
     inkscape:randomized="0"
     d="m 26.288135,9.9978817 -0.682919,-0.4395808 -0.749274,0.3133673 0.207033,-0.7853327 -0.529569,-0.6157656 0.810873,-0.045781 0.421982,-0.6939314 0.294114,0.7570382 0.790368,0.1868924 -0.6291,0.5136568 z"
     inkscape:transform-center-x="-0.033177199"
     inkscape:transform-center-y="-0.084783509" /><path
     sodipodi:type="star"
     style="opacity:1;fill:#000000;fill-opacity:1;stroke:none;stroke-width:5;stroke-miterlimit:4;stroke-dasharray:none;stroke-opacity:1"
     id="path4191"
     sodipodi:sides="5"
     sodipodi:cx="29.504236"
     sodipodi:cy="13.493644"
     sodipodi:r1="0.46900579"
     sodipodi:r2="0.2345029"
     sodipodi:arg1="1.1071487"
     sodipodi:arg2="1.7354672"
     inkscape:flatsided="false"
     inkscape:rounded="0"
     inkscape:randomized="0"
     d="m 29.713982,13.913135 -0.248187,-0.188161 -0.295704,0.09778 0.102258,-0.294185 -0.184372,-0.251016 0.311386,0.0063 0.181756,-0.252915 0.09019,0.298106 0.296702,0.0947 -0.255645,0.177895 z"
     inkscape:transform-center-x="-0.023758168"
     inkscape:transform-center-y="-0.021584857" /><path
     sodipodi:type="star"
     style="opacity:1;fill:#000000;fill-opacity:1;stroke:none;stroke-width:5;stroke-miterlimit:4;stroke-dasharray:none;stroke-opacity:1"
     id="path4193"
     sodipodi:sides="5"
     sodipodi:cx="24.540255"
     sodipodi:cy="17.199154"
     sodipodi:r1="0.69212574"
     sodipodi:r2="0.34606284"
     sodipodi:arg1="0.78539816"
     sodipodi:arg2="1.4137167"
     inkscape:flatsided="false"
     inkscape:rounded="0"
     inkscape:randomized="0"
     d="m 25.029661,17.688561 -0.43527,-0.147605 -0.368355,0.274886 0.0059,-0.459579 -0.37526,-0.265381 0.438901,-0.136431 0.136431,-0.438902 0.265382,0.375261 0.459579,-0.0059 -0.274886,0.368355 z"
     inkscape:transform-center-x="0.033457985"
     inkscape:transform-center-y="-0.033457985" /><path
     sodipodi:type="star"
     style="opacity:1;fill:#000000;fill-opacity:1;stroke:none;stroke-width:5;stroke-miterlimit:4;stroke-dasharray:none;stroke-opacity:1"
     id="path4195"
     sodipodi:sides="5"
     sodipodi:cx="29.434322"
     sodipodi:cy="20.974577"
     sodipodi:r1="1.0510567"
     sodipodi:r2="0.52552837"
     sodipodi:arg1="-0.066568164"
     sodipodi:arg2="0.56175037"
     inkscape:flatsided="false"
     inkscape:rounded="0"
     inkscape:randomized="0"
     d="m 30.483051,20.904662 -0.603961,0.349847 -0.0542,0.695863 -0.519359,-0.466292 -0.678554,0.163487 0.28298,-0.638032 -0.36517,-0.594823 0.69425,0.07197 0.452866,-0.531107 0.14609,0.68251 z"
     inkscape:transform-center-x="-0.079597113"
     inkscape:transform-center-y="-0.021605002" /><path
     sodipodi:type="star"
     style="opacity:1;fill:#000000;fill-opacity:1;stroke:none;stroke-width:5;stroke-miterlimit:4;stroke-dasharray:none;stroke-opacity:1"
     id="path4197"
     sodipodi:sides="5"
     sodipodi:cx="25.169493"
     sodipodi:cy="24.680084"
     sodipodi:r1="0.94061357"
     sodipodi:r2="0.47030678"
     sodipodi:arg1="0.7328151"
     sodipodi:arg2="1.3611336"
     inkscape:flatsided="false"
     inkscape:rounded="0"
     inkscape:randomized="0"
     d="m 25.868645,25.309322 -0.601267,-0.16923 -0.480275,0.399371 -0.02485,-0.624134 -0.528238,-0.333357 0.585906,-0.216506 0.153807,-0.605397 0.386965,0.490326 0.623295,-0.0408 -0.346749,0.519544 z"
     inkscape:transform-center-x="0.060496223"
     inkscape:transform-center-y="-0.030318308" /><path
     sodipodi:type="star"
     style="opacity:1;fill:#000000;fill-opacity:1;stroke:none;stroke-width:5;stroke-miterlimit:4;stroke-dasharray:none;stroke-opacity:1"
     id="path4199"
     sodipodi:sides="5"
     sodipodi:cx="29.364407"
     sodipodi:cy="26.07839"
     sodipodi:r1="1.0393651"
     sodipodi:r2="0.51968247"
     sodipodi:arg1="0.34302394"
     sodipodi:arg2="0.97134247"
     inkscape:flatsided="false"
     inkscape:rounded="0"
     inkscape:randomized="0"
     d="m 30.34322,26.427966 -0.685613,0.0795 -0.323197,0.609859 -0.287472,-0.627491 -0.679884,-0.118922 0.507946,-0.467307 -0.09699,-0.683357 0.601399,0.338679 0.619938,-0.303416 -0.13626,0.676623 z"
     inkscape:transform-center-x="0.0092695106"
     inkscape:transform-center-y="0.090393352" /><path
     sodipodi:type="star"
     style="opacity:1;fill:#000000;fill-opacity:1;stroke:none;stroke-width:5;stroke-miterlimit:4;stroke-dasharray:none;stroke-opacity:1"
     id="path4201"
     sodipodi:sides="5"
     sodipodi:cx="7.5508475"
     sodipodi:cy="14.192797"
     sodipodi:r1="1.632188"
     sodipodi:r2="0.81609404"
     sodipodi:arg1="0.81569192"
     sodipodi:arg2="1.4440105"
     inkscape:flatsided="false"
     inkscape:rounded="0"
     inkscape:randomized="0"
     d="m 8.6694915,15.381356 -1.0154518,-0.379016 -0.8878992,0.621635 0.046673,-1.082874 -0.865586,-0.652346 1.0442976,-0.290238 0.3529376,-1.024807 0.598738,0.903497 1.0837135,0.01898 -0.6742572,0.84863 z"
     inkscape:transform-center-x="0.063776293"
     inkscape:transform-center-y="-0.093954208" /><path
     sodipodi:type="star"
     style="opacity:1;fill:#000000;fill-opacity:1;stroke:none;stroke-width:5;stroke-miterlimit:4;stroke-dasharray:none;stroke-opacity:1"
     id="path4203"
     sodipodi:sides="5"
     sodipodi:cx="15.381356"
     sodipodi:cy="12.934322"
     sodipodi:r1="0.56367481"
     sodipodi:r2="0.2818374"
     sodipodi:arg1="1.0516502"
     sodipodi:arg2="1.6799687"
     inkscape:flatsided="false"
     inkscape:rounded="0"
     inkscape:randomized="0"
     d="m 15.661017,13.423729 -0.310369,-0.209247 -0.348325,0.137049 0.103096,-0.359839 -0.237979,-0.288927 0.374086,-0.01315 0.201246,-0.315616 0.128101,0.351715 0.362357,0.09387 -0.294915,0.230517 z"
     inkscape:transform-center-x="-0.018978456"
     inkscape:transform-center-y="-0.035456122" /><path
     sodipodi:type="star"
     style="opacity:1;fill:#000000;fill-opacity:1;stroke:none;stroke-width:5;stroke-miterlimit:4;stroke-dasharray:none;stroke-opacity:1"
     id="path4205"
     sodipodi:sides="5"
     sodipodi:cx="13.70339"
     sodipodi:cy="5.0338984"
     sodipodi:r1="0.54605561"
     sodipodi:r2="0.27302781"
     sodipodi:arg1="0.87605805"
     sodipodi:arg2="1.5043766"
     inkscape:flatsided="false"
     inkscape:rounded="0"
     inkscape:randomized="0"
     d="m 14.052966,5.4533899 -0.331455,-0.1470658 -0.309056,0.1896711 0.03744,-0.3606785 -0.275892,-0.2353183 0.354596,-0.075846 0.138546,-0.3351058 0.18171,0.3138031 0.361517,0.028212 -0.242293,0.2697868 z"
     inkscape:transform-center-x="0.011199459"
     inkscape:transform-center-y="-0.041377374" /><path
     sodipodi:type="star"
     style="opacity:1;fill:#000000;fill-opacity:1;stroke:none;stroke-width:5;stroke-miterlimit:4;stroke-dasharray:none;stroke-opacity:1"
     id="path4207"
     sodipodi:sides="5"
     sodipodi:cx="17.96822"
     sodipodi:cy="20.205507"
     sodipodi:r1="0.40767249"
     sodipodi:r2="0.20383625"
     sodipodi:arg1="0.5404195"
     sodipodi:arg2="1.168738"
     inkscape:flatsided="false"
     inkscape:rounded="0"
     inkscape:randomized="0"
     d="m 18.317796,20.415253 -0.269812,-0.02216 -0.171219,0.2097 -0.0623,-0.263456 -0.252346,-0.09804 0.231311,-0.140661 0.01526,-0.27029 0.205255,0.176522 0.261778,-0.06901 -0.104456,0.249758 z"
     inkscape:transform-center-x="0.02826117"
     inkscape:transform-center-y="0.011059066" /><path
     sodipodi:type="star"
     style="opacity:1;fill:#000000;fill-opacity:1;stroke:none;stroke-width:5;stroke-miterlimit:4;stroke-dasharray:none;stroke-opacity:1"
     id="path4209"
     sodipodi:sides="5"
     sodipodi:cx="2.7266948"
     sodipodi:cy="27.057203"
     sodipodi:r1="0.50416607"
     sodipodi:r2="0.25208303"
     sodipodi:arg1="2.1587989"
     sodipodi:arg2="2.7871175"
     inkscape:flatsided="false"
     inkscape:rounded="0"
     inkscape:randomized="0"
     d="m 2.4470338,27.476695 0.04325,-0.331994 -0.2489694,-0.223841 0.3291101,-0.06146 0.1359496,-0.305955 0.1601509,0.294011 0.332991,0.03475 -0.2301314,0.243167 0.06985,0.327432 -0.30238,-0.143726 z"
     inkscape:transform-center-x="0.0062793541"
     inkscape:transform-center-y="-0.042132435" /><path
     sodipodi:type="star"
     style="opacity:1;fill:#000000;fill-opacity:1;stroke:none;stroke-width:5;stroke-miterlimit:4;stroke-dasharray:none;stroke-opacity:1"
     id="path4211"
     sodipodi:sides="5"
     sodipodi:cx="3.8453391"
     sodipodi:cy="5.9427967"
     sodipodi:r1="0.50416607"
     sodipodi:r2="0.25208303"
     sodipodi:arg1="0.5880026"
     sodipodi:arg2="1.2163211"
     inkscape:flatsided="false"
     inkscape:rounded="0"
     inkscape:randomized="0"
     d="M 4.2648306,6.2224577 3.9328366,6.1792074 3.7089956,6.4281769 3.6475373,6.0990668 3.3415827,5.9631171 3.6355933,5.8029662 3.6703439,5.4699753 3.9135108,5.7001066 4.2409425,5.6302566 4.0972173,5.9326365 Z"
     inkscape:transform-center-x="0.042132435"
     inkscape:transform-center-y="0.0062793541" /></svg>