<?xml version='1.0' encoding='iso-8859-1'?>
<svg version="1.1" xmlns="http://www.w3.org/2000/svg" viewBox="0 0 44 44" xmlns:xlink="http://www.w3.org/1999/xlink" enable-background="new 0 0 44 44">
  <path d="m22,0c-12.2,0-22,9.8-22,22s9.8,22 22,22 22-9.8 22-22-9.8-22-22-22zm12,31c0,0.6-0.4,1-1,1h-22c-0.6,0-1-0.4-1-1v-2c0-0.6 0.4-1 1-1h22c0.6,0 1,0.4 1,1v2zm0-8c0,0.6-0.4,1-1,1h-22c-0.6,0-1-0.4-1-1v-2c0-0.6 0.4-1 1-1h22c0.6,0 1,0.4 1,1v2zm0-8c0,0.6-0.4,1-1,1h-22c-0.6,0-1-0.4-1-1v-2c0-0.6 0.4-1 1-1h22c0.6,0 1,0.4 1,1v2z"/>
</svg>
