<?xml version="1.0" encoding="UTF-8" standalone="no"?>
<!-- Generator: Adobe Illustrator 19.0.0, SVG Export Plug-In . SVG Version: 6.00 Build 0)  -->

<svg
   xmlns:dc="http://purl.org/dc/elements/1.1/"
   xmlns:cc="http://creativecommons.org/ns#"
   xmlns:rdf="http://www.w3.org/1999/02/22-rdf-syntax-ns#"
   xmlns:svg="http://www.w3.org/2000/svg"
   xmlns="http://www.w3.org/2000/svg"
   xmlns:sodipodi="http://sodipodi.sourceforge.net/DTD/sodipodi-0.dtd"
   xmlns:inkscape="http://www.inkscape.org/namespaces/inkscape"
   version="1.1"
   id="Capa_1"
   x="0px"
   y="0px"
   viewBox="0 0 55.867 55.867"
   style="enable-background:new 0 0 55.867 55.867;"
   xml:space="preserve"
   sodipodi:docname="MoveFocuserByTemp.svg"
   inkscape:version="0.92.4 (5da689c313, 2019-01-14)"><metadata
   id="metadata2923"><rdf:RDF><cc:Work
       rdf:about=""><dc:format>image/svg+xml</dc:format><dc:type
         rdf:resource="http://purl.org/dc/dcmitype/StillImage" /><dc:title></dc:title></cc:Work></rdf:RDF></metadata><defs
   id="defs2921"><marker
     inkscape:stockid="TriangleOutL"
     orient="auto"
     refY="0.0"
     refX="0.0"
     id="marker10796"
     style="overflow:visible"
     inkscape:isstock="true"><path
       id="path10794"
       d="M 5.77,0.0 L -2.88,5.0 L -2.88,-5.0 L 5.77,0.0 z "
       style="fill-rule:evenodd;stroke:#000000;stroke-width:1pt;stroke-opacity:1;fill:#000000;fill-opacity:1"
       transform="scale(0.8)" /></marker><marker
     inkscape:stockid="TriangleInL"
     orient="auto"
     refY="0.0"
     refX="0.0"
     id="TriangleInL"
     style="overflow:visible"
     inkscape:isstock="true"><path
       id="path10587"
       d="M 5.77,0.0 L -2.88,5.0 L -2.88,-5.0 L 5.77,0.0 z "
       style="fill-rule:evenodd;stroke:#000000;stroke-width:1pt;stroke-opacity:1;fill:#000000;fill-opacity:1"
       transform="scale(-0.8)" /></marker><marker
     inkscape:stockid="Arrow2Lstart"
     orient="auto"
     refY="0.0"
     refX="0.0"
     id="Arrow2Lstart"
     style="overflow:visible"
     inkscape:isstock="true"><path
       id="path10472"
       style="fill-rule:evenodd;stroke-width:0.625;stroke-linejoin:round;stroke:#000000;stroke-opacity:1;fill:#000000;fill-opacity:1"
       d="M 8.7185878,4.0337352 L -2.2072895,0.016013256 L 8.7185884,-4.0017078 C 6.9730900,-1.6296469 6.9831476,1.6157441 8.7185878,4.0337352 z "
       transform="scale(1.1) translate(1,0)" /></marker><marker
     inkscape:stockid="TriangleOutL"
     orient="auto"
     refY="0.0"
     refX="0.0"
     id="TriangleOutL"
     style="overflow:visible"
     inkscape:isstock="true"><path
       id="path10596"
       d="M 5.77,0.0 L -2.88,5.0 L -2.88,-5.0 L 5.77,0.0 z "
       style="fill-rule:evenodd;stroke:#000000;stroke-width:1pt;stroke-opacity:1;fill:#000000;fill-opacity:1"
       transform="scale(0.8)" /></marker></defs><sodipodi:namedview
   pagecolor="#ffffff"
   bordercolor="#666666"
   borderopacity="1"
   objecttolerance="10"
   gridtolerance="10"
   guidetolerance="10"
   inkscape:pageopacity="0"
   inkscape:pageshadow="2"
   inkscape:window-width="2560"
   inkscape:window-height="1377"
   id="namedview2919"
   showgrid="false"
   inkscape:zoom="4.2243184"
   inkscape:cx="-104.53743"
   inkscape:cy="-15.348698"
   inkscape:window-x="-8"
   inkscape:window-y="-8"
   inkscape:window-maximized="1"
   inkscape:current-layer="Capa_1" />
















<path
   style="color:#000000;font-style:normal;font-variant:normal;font-weight:normal;font-stretch:normal;font-size:medium;line-height:normal;font-family:sans-serif;font-variant-ligatures:normal;font-variant-position:normal;font-variant-caps:normal;font-variant-numeric:normal;font-variant-alternates:normal;font-feature-settings:normal;text-indent:0;text-align:start;text-decoration:none;text-decoration-line:none;text-decoration-style:solid;text-decoration-color:#000000;letter-spacing:normal;word-spacing:normal;text-transform:none;writing-mode:lr-tb;direction:ltr;text-orientation:mixed;dominant-baseline:auto;baseline-shift:baseline;text-anchor:start;white-space:normal;shape-padding:0;clip-rule:nonzero;display:inline;overflow:visible;visibility:visible;opacity:1;isolation:auto;mix-blend-mode:normal;color-interpolation:sRGB;color-interpolation-filters:linearRGB;solid-color:#000000;solid-opacity:1;vector-effect:none;fill:#000000;fill-opacity:1;fill-rule:nonzero;stroke:none;stroke-width:1.2372998;stroke-linecap:butt;stroke-linejoin:miter;stroke-miterlimit:4;stroke-dasharray:none;stroke-dashoffset:0;stroke-opacity:1;color-rendering:auto;image-rendering:auto;shape-rendering:auto;text-rendering:auto;enable-background:accumulate"
   d="m 4.778359,18.894531 v 0.617188 33.423828 H 14.801796 V 50.226562 H 45.907265 V 21.603516 H 14.801796 v -2.708985 z m 1.2363281,1.236328 h 7.5507809 v 31.56836 H 6.0146871 Z m 9.4570309,2.892579 H 44.48539 v 25.78125 H 15.471718 Z"
   id="rect10448"
   inkscape:connector-curvature="0" /><g
   transform="matrix(0.05379856,0,0,0.05379856,18.221489,24.183966)"
   id="g5279"><g
     id="g5277"><path
       inkscape:connector-curvature="0"
       d="M 220.241,0 H 91.951 v 261.193 c -24.942,18.894 -39.638,48.215 -39.638,79.708 0,55.162 44.863,100.025 100.026,100.025 55.157,0 100.026,-44.863 100.026,-100.025 0,-28.072 -11.654,-54.521 -32.136,-73.449 V 0 Z m 8.203,340.901 c 0,41.967 -34.138,76.111 -76.105,76.111 -41.973,0 -76.111,-34.145 -76.111,-76.111 0,-25.619 12.804,-49.371 34.272,-63.547 l 5.365,-3.526 V 23.915 h 80.461 v 254.608 l 4.355,3.584 c 17.657,14.539 27.763,35.955 27.763,58.794 z"
       id="path5269" /><path
       inkscape:connector-curvature="0"
       d="M 179.36,287.537 V 100.143 H 133.778 V 284.91 c -23.424,8.139 -40.333,30.162 -40.333,56.365 0,33.07 26.811,59.904 59.91,59.904 33.07,0 59.904,-26.834 59.904,-59.904 -0.012,-23.705 -13.908,-44.022 -33.899,-53.738 z"
       id="path5271" /><polygon
       points="388.613,88.559 388.613,65.392 349.378,65.392 349.378,23.915 326.211,23.915 326.211,65.392 279.503,65.392 279.503,88.559 326.211,88.559 326.211,133.025 349.378,133.025 349.378,88.559 "
       id="polygon5273" /><rect
       x="279.50299"
       y="227.189"
       width="109.11"
       height="23.167"
       id="rect5275" /></g></g></svg>