<?xml version="1.0" encoding="UTF-8" standalone="no"?>
<!-- Generator: Adobe Illustrator 19.0.0, SVG Export Plug-In . SVG Version: 6.00 Build 0)  -->

<svg
   xmlns:dc="http://purl.org/dc/elements/1.1/"
   xmlns:cc="http://creativecommons.org/ns#"
   xmlns:rdf="http://www.w3.org/1999/02/22-rdf-syntax-ns#"
   xmlns:svg="http://www.w3.org/2000/svg"
   xmlns="http://www.w3.org/2000/svg"
   xmlns:sodipodi="http://sodipodi.sourceforge.net/DTD/sodipodi-0.dtd"
   xmlns:inkscape="http://www.inkscape.org/namespaces/inkscape"
   version="1.1"
   id="Capa_1"
   x="0px"
   y="0px"
   viewBox="0 0 59 59"
   style="enable-background:new 0 0 59 59;"
   xml:space="preserve"
   sodipodi:docname="observatory_closed.svg"
   inkscape:version="0.92.4 (5da689c313, 2019-01-14)"><metadata
   id="metadata1257"><rdf:RDF><cc:Work
       rdf:about=""><dc:format>image/svg+xml</dc:format><dc:type
         rdf:resource="http://purl.org/dc/dcmitype/StillImage" /><dc:title></dc:title></cc:Work></rdf:RDF></metadata><defs
   id="defs1255" /><sodipodi:namedview
   pagecolor="#ffffff"
   bordercolor="#666666"
   borderopacity="1"
   objecttolerance="10"
   gridtolerance="10"
   guidetolerance="10"
   inkscape:pageopacity="0"
   inkscape:pageshadow="2"
   inkscape:window-width="1302"
   inkscape:window-height="1019"
   id="namedview1253"
   showgrid="false"
   inkscape:zoom="5.1186441"
   inkscape:cx="31.712712"
   inkscape:cy="69.955106"
   inkscape:window-x="692"
   inkscape:window-y="156"
   inkscape:window-maximized="0"
   inkscape:current-layer="Capa_1" />
<g
   id="g1220">
	<path
   style="fill:#ECF0F1;"
   d="M35.5,1h-5h-5c-12.703,0-23,10.297-23,23v0h28h28v0C58.5,11.297,48.203,1,35.5,1z"
   id="path1158" />
	<path
   style="fill:#556080"
   d="m 51.5,24 c -34.333333,23.333333 -17.166667,11.666667 0,0 z"
   id="path1160"
   inkscape:connector-curvature="0"
   sodipodi:nodetypes="cc" />
	<path
   style="fill:#556080"
   d="m 0.5,56 h 58 v 3 h -58 z"
   id="rect1162" />
	<path
   style="fill:#ecf0f1"
   d="m 2.5,29 h 54 v 27 h -54 z"
   id="rect1164" />
	<path
   style="fill:#FFFFFF;"
   d="M6.925,21c-0.07,0-0.14-0.007-0.211-0.022c-0.54-0.116-0.883-0.647-0.767-1.188   C7.914,10.641,16.137,4,25.5,4h1c0.552,0,1,0.447,1,1s-0.448,1-1,1h-1C17.073,6,9.672,11.977,7.901,20.21   C7.801,20.68,7.386,21,6.925,21z"
   id="path1166" />
	<path
   style="fill:#8697cb"
   d="m 11.5,40 h 14 v 16 h -14 z"
   id="rect1168" />
	<path
   style="fill:#8697cb"
   d="m 3.5,45 h 3 v 5 h -3 z"
   id="rect1170" />
	<path
   style="fill:#556080"
   d="m 16.5,40 h 2 v 16 h -2 z"
   id="rect1172" />
	<path
   style="fill:#556080"
   d="m 9.5,38 v 2 16 h 2 V 40 h 13 v 16 h 2 V 40 38 Z"
   id="polygon1174" />
	
		<path
   style="fill:none;stroke:#8697cb;stroke-width:2;stroke-linecap:round;stroke-miterlimit:10"
   d="m 8.5,29 v 3"
   id="line1176" />
	
		<path
   style="fill:none;stroke:#8697cb;stroke-width:2;stroke-linecap:round;stroke-miterlimit:10"
   d="m 14.5,29 v 3"
   id="line1178" />
	
		<path
   style="fill:none;stroke:#8697cb;stroke-width:2;stroke-linecap:round;stroke-miterlimit:10"
   d="m 20.5,29 v 3"
   id="line1180" />
	
		<path
   style="fill:none;stroke:#8697cb;stroke-width:2;stroke-linecap:round;stroke-miterlimit:10"
   d="m 26.5,29 v 3"
   id="line1182" />
	
		<path
   style="fill:none;stroke:#8697cb;stroke-width:2;stroke-linecap:round;stroke-miterlimit:10"
   d="m 32.5,29 v 3"
   id="line1184" />
	
		<path
   style="fill:none;stroke:#8697cb;stroke-width:2;stroke-linecap:round;stroke-miterlimit:10"
   d="m 38.5,29 v 3"
   id="line1186" />
	
		<path
   style="fill:none;stroke:#8697cb;stroke-width:2;stroke-linecap:round;stroke-miterlimit:10"
   d="m 44.5,29 v 3"
   id="line1188" />
	
		<path
   style="fill:none;stroke:#8697cb;stroke-width:2;stroke-linecap:round;stroke-miterlimit:10"
   d="m 50.5,29 v 3"
   id="line1190" />
	<path
   style="fill:#bdc3c7"
   d="m 0.5,24 h 58 v 5 h -58 z"
   id="rect1192" />
	<path
   style="fill:#8697CB;"
   d="M52.5,52c-0.552,0-1-0.447-1-1V37c0-0.553,0.448-1,1-1s1,0.447,1,1v14   C53.5,51.553,53.052,52,52.5,52z"
   id="path1194" />
	<path
   style="fill:#8697cb"
   d="m 30.5,53 a 1,1 0 0 1 -1,1 1,1 0 0 1 -1,-1 1,1 0 0 1 1,-1 1,1 0 0 1 1,1 z"
   id="circle1196" />
	<path
   style="fill:#8697cb"
   d="m 34.5,53 a 1,1 0 0 1 -1,1 1,1 0 0 1 -1,-1 1,1 0 0 1 1,-1 1,1 0 0 1 1,1 z"
   id="circle1198" />
	<path
   style="fill:#8697cb"
   d="m 38.5,53 a 1,1 0 0 1 -1,1 1,1 0 0 1 -1,-1 1,1 0 0 1 1,-1 1,1 0 0 1 1,1 z"
   id="circle1200" />
	<path
   style="fill:#8697cb"
   d="m 42.5,53 a 1,1 0 0 1 -1,1 1,1 0 0 1 -1,-1 1,1 0 0 1 1,-1 1,1 0 0 1 1,1 z"
   id="circle1202" />
	<path
   style="fill:#8697cb"
   d="m 46.5,53 a 1,1 0 0 1 -1,1 1,1 0 0 1 -1,-1 1,1 0 0 1 1,-1 1,1 0 0 1 1,1 z"
   id="circle1204" />
	<path
   style="fill:#d1d4d1"
   d="m 28.5,24 c -19,23.333333 -9.5,11.666667 0,0 z"
   id="polygon1206"
   inkscape:connector-curvature="0"
   sodipodi:nodetypes="cc" />
	<path
   style="fill:#ecf0f1"
   d="m 36.043,24 c -24.028667,23.333333 -12.014333,11.666667 0,0 z"
   id="polygon1208"
   inkscape:connector-curvature="0"
   sodipodi:nodetypes="cc" />
	
		<path
   transform="matrix(0.7071,0.7071,-0.7071,0.7071,19.229,-32.4909)"
   style="fill:#bdc3c7"
   d="m 39.834999,6.9660001 c 7.508247,47.5503619 3.754124,23.7751809 0,0 z"
   id="ellipse1210"
   inkscape:connector-curvature="0"
   sodipodi:nodetypes="cc" />
	
		<path
   transform="matrix(0.7071,0.7071,-0.7071,0.7071,19.229,-32.4909)"
   style="fill:#556080"
   d="m 42.084999,6.9660001 c 6.008247,47.5503619 3.004124,23.7751809 0,0 z"
   id="ellipse1212"
   inkscape:connector-curvature="0"
   sodipodi:nodetypes="cc" />
	
		<path
   transform="matrix(0.7071,0.7071,-0.7071,0.7071,19.088,-32.2025)"
   style="fill:#8697cb"
   d="m 43.73,6.9400001 c 4.842094,47.3652719 2.421047,23.6826359 0,0 z"
   id="ellipse1214"
   inkscape:connector-curvature="0"
   sodipodi:nodetypes="cc" />
	
		<path
   transform="matrix(0.7071,0.7071,-0.7071,0.7071,18.338,-31.8918)"
   style="fill:#48a0dc"
   d="m 51.291,6.1900001 c 0.0085,47.3652489 0.0043,23.6826239 0,0 z"
   id="ellipse1216"
   inkscape:connector-curvature="0"
   sodipodi:nodetypes="cc" />
	
		<path
   transform="matrix(0.7071,0.7071,-0.7071,0.7071,17.013,-31.9429)"
   style="fill:#ffffff"
   d="m 48.857999,4.5650001 c 2.279224,47.8480539 1.139612,23.9240269 0,0 z"
   id="ellipse1218"
   inkscape:connector-curvature="0"
   sodipodi:nodetypes="cc" />
</g>
<g
   id="g1222">
</g>
<g
   id="g1224">
</g>
<g
   id="g1226">
</g>
<g
   id="g1228">
</g>
<g
   id="g1230">
</g>
<g
   id="g1232">
</g>
<g
   id="g1234">
</g>
<g
   id="g1236">
</g>
<g
   id="g1238">
</g>
<g
   id="g1240">
</g>
<g
   id="g1242">
</g>
<g
   id="g1244">
</g>
<g
   id="g1246">
</g>
<g
   id="g1248">
</g>
<g
   id="g1250">
</g>
</svg>