<?xml version="1.0" encoding="iso-8859-1"?>
<!-- Generator: Adobe Illustrator 19.0.0, SVG Export Plug-In . SVG Version: 6.00 Build 0)  -->
<svg version="1.1" id="Capa_1" xmlns="http://www.w3.org/2000/svg" xmlns:xlink="http://www.w3.org/1999/xlink" x="0px" y="0px"
	 viewBox="0 0 512 512" style="enable-background:new 0 0 512 512;" xml:space="preserve">
<g>
	<g>
		<path d="M281.541,124.23h-91.54v263.54h30v-83.541h61.54c48.777,0,88.46-39.683,88.46-88.459v-3.082
			C370.001,163.913,330.318,124.23,281.541,124.23z M340.001,215.771c0,32.234-26.225,58.459-58.46,58.459h-61.54v-120h61.54
			c32.235,0,58.46,26.225,58.46,58.459V215.771z"/>
	</g>
</g>
<g>
	<g>
		<path d="M437.02,74.98C388.667,26.628,324.38,0,256,0S123.333,26.628,74.98,74.98C26.629,123.333,0,187.621,0,256
			s26.629,132.667,74.981,181.019S187.62,512,256,512s132.667-26.628,181.02-74.98C485.371,388.667,512,324.379,512,256
			S485.371,123.333,437.02,74.98z M415.807,415.807C373.12,458.492,316.366,482,256,482c-60.367,0-117.12-23.508-159.806-66.194
			C53.508,373.12,30,316.366,30,256c0-60.366,23.508-117.12,66.194-159.807C138.88,53.508,195.633,30,256,30
			c60.366,0,117.12,23.508,159.807,66.193C458.492,138.88,482,195.634,482,256C482,316.366,458.492,373.12,415.807,415.807z"/>
	</g>
</g>
<g>
</g>
<g>
</g>
<g>
</g>
<g>
</g>
<g>
</g>
<g>
</g>
<g>
</g>
<g>
</g>
<g>
</g>
<g>
</g>
<g>
</g>
<g>
</g>
<g>
</g>
<g>
</g>
<g>
</g>
</svg>
