<?xml version="1.0" encoding="UTF-8" standalone="no"?>
<svg
   xmlns:dc="http://purl.org/dc/elements/1.1/"
   xmlns:cc="http://creativecommons.org/ns#"
   xmlns:rdf="http://www.w3.org/1999/02/22-rdf-syntax-ns#"
   xmlns:svg="http://www.w3.org/2000/svg"
   xmlns="http://www.w3.org/2000/svg"
   xmlns:sodipodi="http://sodipodi.sourceforge.net/DTD/sodipodi-0.dtd"
   xmlns:inkscape="http://www.inkscape.org/namespaces/inkscape"
   height="325pt"
   viewBox="0 0 325 325.37515"
   width="325pt"
   version="1.1"
   id="svg4"
   sodipodi:docname="pen_nofill.svg"
   inkscape:version="0.92.4 (5da689c313, 2019-01-14)">
  <metadata
     id="metadata10">
    <rdf:RDF>
      <cc:Work
         rdf:about="">
        <dc:format>image/svg+xml</dc:format>
        <dc:type
           rdf:resource="http://purl.org/dc/dcmitype/StillImage" />
        <dc:title></dc:title>
      </cc:Work>
    </rdf:RDF>
  </metadata>
  <defs
     id="defs8" />
  <sodipodi:namedview
     pagecolor="#ffffff"
     bordercolor="#666666"
     borderopacity="1"
     objecttolerance="10"
     gridtolerance="10"
     guidetolerance="10"
     inkscape:pageopacity="0"
     inkscape:pageshadow="2"
     inkscape:window-width="1652"
     inkscape:window-height="1068"
     id="namedview6"
     showgrid="false"
     inkscape:zoom="0.54461538"
     inkscape:cx="216.66667"
     inkscape:cy="216.66667"
     inkscape:window-x="0"
     inkscape:window-y="0"
     inkscape:window-maximized="0"
     inkscape:current-layer="svg4" />
  <path
     style="color:#000000;font-style:normal;font-variant:normal;font-weight:normal;font-stretch:normal;font-size:medium;line-height:normal;font-family:sans-serif;font-variant-ligatures:normal;font-variant-position:normal;font-variant-caps:normal;font-variant-numeric:normal;font-variant-alternates:normal;font-feature-settings:normal;text-indent:0;text-align:start;text-decoration:none;text-decoration-line:none;text-decoration-style:solid;text-decoration-color:#000000;letter-spacing:normal;word-spacing:normal;text-transform:none;writing-mode:lr-tb;direction:ltr;text-orientation:mixed;dominant-baseline:auto;baseline-shift:baseline;text-anchor:start;white-space:normal;shape-padding:0;clip-rule:nonzero;display:inline;overflow:visible;visibility:visible;opacity:1;isolation:auto;mix-blend-mode:normal;color-interpolation:sRGB;color-interpolation-filters:linearRGB;solid-color:#000000;solid-opacity:1;vector-effect:none;fill:#000000;fill-opacity:1;fill-rule:nonzero;stroke:none;stroke-width:11.26298523;stroke-linecap:butt;stroke-linejoin:miter;stroke-miterlimit:4;stroke-dasharray:none;stroke-dashoffset:0;stroke-opacity:1;color-rendering:auto;image-rendering:auto;shape-rendering:auto;text-rendering:auto;enable-background:accumulate"
     d="m 265.33789,-5.5976562 c -9.90485,0 -19.80885,3.7652318 -27.33203,11.2929687 l -16.7832,16.7812495 81.86328,81.863278 16.79297,-16.792965 0.01,-0.01172 c 14.92717,-15.082042 14.92815,-39.53548 0.002,-54.621094 l -0.0117,-0.0098 L 292.66992,5.6953125 C 285.14674,-1.8324244 275.24274,-5.5976562 265.33789,-5.5976562 Z m 0,11.1933593 c 6.99749,0 13.99584,2.6859408 19.36719,8.0605469 v 0.002 l 27.17773,27.177735 c 10.67237,10.786353 10.67516,27.981858 0.01,38.767578 -0.003,0.003 -0.005,0.0067 -0.008,0.0098 l -8.79883,8.796875 -65.9336,-65.933594 8.81836,-8.818359 v -0.002 c 5.37136,-5.3746061 12.3697,-8.0605469 19.36719,-8.0605469 z M 219.38672,24.410156 32.921875,210.875 114.6875,292.64062 118.66992,288.6582 301.15234,106.17578 Z m 0,15.929688 65.83594,65.835936 L 114.6875,276.71094 48.851562,210.875 Z M 31.525391,213.44727 28.644531,222.0957 -8.7109375,334.27344 112.11523,294.03711 Z m 4.925781,20.85546 54.808594,54.8086 -82.1718754,27.36328 z"
     id="path2"
     inkscape:connector-curvature="0" />
</svg>
