<?xml version="1.0" encoding="UTF-8" standalone="no"?>
<!-- Created with Inkscape (http://www.inkscape.org/) -->

<svg
   xmlns:dc="http://purl.org/dc/elements/1.1/"
   xmlns:cc="http://creativecommons.org/ns#"
   xmlns:rdf="http://www.w3.org/1999/02/22-rdf-syntax-ns#"
   xmlns:svg="http://www.w3.org/2000/svg"
   xmlns="http://www.w3.org/2000/svg"
   xmlns:sodipodi="http://sodipodi.sourceforge.net/DTD/sodipodi-0.dtd"
   xmlns:inkscape="http://www.inkscape.org/namespaces/inkscape"
   width="210mm"
   height="297mm"
   viewBox="0 0 744.09448819 1052.3622047"
   id="svg2"
   version="1.1"
   inkscape:version="0.91 r13725"
   sodipodi:docname="polaralign.svg">
  <defs
     id="defs4" />
  <sodipodi:namedview
     id="base"
     pagecolor="#ffffff"
     bordercolor="#666666"
     borderopacity="1.0"
     inkscape:pageopacity="0.0"
     inkscape:pageshadow="2"
     inkscape:zoom="0.98994949"
     inkscape:cx="151.43196"
     inkscape:cy="694.78798"
     inkscape:document-units="px"
     inkscape:current-layer="layer1"
     showgrid="false"
     inkscape:window-width="1920"
     inkscape:window-height="1017"
     inkscape:window-x="-8"
     inkscape:window-y="-8"
     inkscape:window-maximized="1" />
  <metadata
     id="metadata7">
    <rdf:RDF>
      <cc:Work
         rdf:about="">
        <dc:format>image/svg+xml</dc:format>
        <dc:type
           rdf:resource="http://purl.org/dc/dcmitype/StillImage" />
        <dc:title></dc:title>
      </cc:Work>
    </rdf:RDF>
  </metadata>
  <g
     inkscape:label="Ebene 1"
     inkscape:groupmode="layer"
     id="layer1">
    <path
       style="fill:none;fill-rule:evenodd;stroke:#000000;stroke-width:2;stroke-linecap:butt;stroke-linejoin:miter;stroke-opacity:1;stroke-miterlimit:4;stroke-dasharray:none"
       d="M 534.52142,413.4828 457.23527,360.46669"
       id="path4420" />
    <path
       style="fill:none;fill-rule:evenodd;stroke:#000000;stroke-width:2;stroke-linecap:butt;stroke-linejoin:miter;stroke-opacity:1;stroke-miterlimit:4;stroke-dasharray:none"
       d="m 488.38488,517.41596 48.30997,-97.01287"
       id="path4418" />
    <path
       style="fill:none;fill-rule:evenodd;stroke:#000000;stroke-width:2;stroke-linecap:butt;stroke-linejoin:miter;stroke-opacity:1;stroke-miterlimit:4;stroke-dasharray:none"
       d="m 404.69143,507.07197 77.31573,13.48224"
       id="path4416" />
    <path
       style="fill:none;fill-rule:evenodd;stroke:#000000;stroke-width:2;stroke-linecap:butt;stroke-linejoin:miter;stroke-opacity:1;stroke-miterlimit:4;stroke-dasharray:none"
       d="m 350.40387,539.0568 45.83678,-29.80982"
       id="path4414" />
    <path
       style="fill:none;fill-rule:evenodd;stroke:#000000;stroke-width:2;stroke-linecap:butt;stroke-linejoin:miter;stroke-opacity:1;stroke-miterlimit:4;stroke-dasharray:none"
       d="M 308.51319,582.26024 343.9122,545.84481"
       id="path4412" />
    <path
       style="fill:none;fill-rule:evenodd;stroke:#000000;stroke-width:2;stroke-linecap:butt;stroke-linejoin:miter;stroke-opacity:1;stroke-miterlimit:4;stroke-dasharray:none"
       d="m 288.99187,648.70397 14.91468,-58.36264"
       id="path4410" />
    <path
       style="fill:#000000;fill-rule:evenodd;stroke:none;stroke-width:0.53153616px;stroke-linecap:butt;stroke-linejoin:miter;stroke-opacity:1;fill-opacity:1"
       d="m 455.85657,354.08627 a 4.5639273,4.5639273 0 0 1 1.70473,6.22517 4.5639273,4.5639273 0 0 1 -6.22518,1.70472 4.5639273,4.5639273 0 0 1 -1.70472,-6.22516 4.5639273,4.5639273 0 0 1 6.22517,-1.70473 z"
       id="path4408" />
    <path
       style="fill:#000000;fill-rule:evenodd;stroke:none;stroke-width:0.53153616px;stroke-linecap:butt;stroke-linejoin:miter;stroke-opacity:1;fill-opacity:1"
       d="m 540.96265,411.87184 a 4.5639273,4.5639273 0 0 1 1.70472,6.22517 4.5639273,4.5639273 0 0 1 -6.22517,1.70472 4.5639273,4.5639273 0 0 1 -1.70472,-6.22517 4.5639273,4.5639273 0 0 1 6.22517,-1.70472 z"
       id="path4406" />
    <path
       style="fill:#000000;fill-rule:evenodd;stroke:none;stroke-width:0.53153616px;stroke-linecap:butt;stroke-linejoin:miter;stroke-opacity:1;fill-opacity:1"
       d="m 489.25909,517.75029 a 4.5639273,4.5639273 0 0 1 1.70474,6.22517 4.5639273,4.5639273 0 0 1 -6.22518,1.70473 4.5639273,4.5639273 0 0 1 -1.70472,-6.22517 4.5639273,4.5639273 0 0 1 6.22516,-1.70473 z"
       id="path4404" />
    <path
       style="fill:#000000;fill-rule:evenodd;stroke:none;stroke-width:0.53153616px;stroke-linecap:butt;stroke-linejoin:miter;stroke-opacity:1;fill-opacity:1"
       d="m 402.42449,502.4157 a 4.5639273,4.5639273 0 0 1 1.70472,6.22519 4.5639273,4.5639273 0 0 1 -6.22518,1.70471 4.5639273,4.5639273 0 0 1 -1.70472,-6.22516 4.5639273,4.5639273 0 0 1 6.22518,-1.70474 z"
       id="path4402" />
    <path
       style="fill:#000000;fill-rule:evenodd;stroke:none;stroke-width:0.53153616px;stroke-linecap:butt;stroke-linejoin:miter;stroke-opacity:1;fill-opacity:1"
       d="m 349.43382,538.22477 a 4.5639273,4.5639273 0 0 1 1.70473,6.22517 4.5639273,4.5639273 0 0 1 -6.22518,1.70472 4.5639273,4.5639273 0 0 1 -1.70473,-6.22516 4.5639273,4.5639273 0 0 1 6.22518,-1.70473 z"
       id="path4400" />
    <path
       style="fill:#000000;fill-rule:evenodd;stroke:none;stroke-width:0.53153616px;stroke-linecap:butt;stroke-linejoin:miter;stroke-opacity:1;fill-opacity:1"
       d="m 308.27376,582.06318 a 4.5639273,4.5639273 0 0 1 1.70471,6.22519 4.5639273,4.5639273 0 0 1 -6.22516,1.70472 4.5639273,4.5639273 0 0 1 -1.70472,-6.22519 4.5639273,4.5639273 0 0 1 6.22517,-1.70472 z"
       id="path4398" />
    <path
       style="fill:#000000;fill-rule:evenodd;stroke:none;stroke-width:0.53153616px;stroke-linecap:butt;stroke-linejoin:miter;stroke-opacity:1;fill-opacity:1"
       d="m 291.49891,649.45408 a 4.5639273,4.5639273 0 0 1 1.70473,6.22513 4.5639273,4.5639273 0 0 1 -6.22517,1.70475 4.5639273,4.5639273 0 0 1 -1.70472,-6.22519 4.5639273,4.5639273 0 0 1 6.22516,-1.70469 z"
       id="path3454" />
    <path
       style="fill:none;fill-rule:evenodd;stroke:#000000;stroke-width:2;stroke-linecap:butt;stroke-linejoin:miter;stroke-opacity:1;fill-opacity:1;stroke-miterlimit:4;stroke-dasharray:none"
       d="m 192.41876,211.6508 -30.55751,60.12651"
       id="path3580" />
    <path
       style="fill:none;fill-rule:evenodd;stroke:#000000;stroke-width:2;stroke-linecap:butt;stroke-linejoin:miter;stroke-opacity:1;fill-opacity:1;stroke-miterlimit:4;stroke-dasharray:none"
       d="M 244.96256,240.84655 198.29545,210.2379"
       id="path3578" />
    <path
       style="fill:#000000;fill-rule:evenodd;stroke:none;stroke-width:0.62637156px;stroke-linecap:butt;stroke-linejoin:miter;stroke-opacity:1;fill-opacity:1"
       d="m 247.78769,238.62846 a 5.3782123,5.3782123 0 0 1 6.62901,3.72918 5.3782123,5.3782123 0 0 1 -3.72917,6.629 5.3782123,5.3782123 0 0 1 -6.629,-3.72917 5.3782123,5.3782123 0 0 1 3.72916,-6.62901 z"
       id="path3576" />
    <path
       style="fill:none;fill-rule:evenodd;stroke:#000000;stroke-width:2;stroke-linecap:butt;stroke-linejoin:miter;stroke-opacity:1;fill-opacity:1;stroke-miterlimit:4;stroke-dasharray:none"
       d="m 298.04285,215.53269 -44.11026,25.82262"
       id="path3574" />
    <path
       style="fill:#000000;fill-rule:evenodd;stroke:none;stroke-width:0.62637156px;stroke-linecap:butt;stroke-linejoin:miter;stroke-opacity:1;fill-opacity:1"
       d="m 300.62723,206.75222 a 5.3782123,5.3782123 0 0 1 6.62901,3.72917 5.3782123,5.3782123 0 0 1 -3.72918,6.629 5.3782123,5.3782123 0 0 1 -6.62899,-3.72917 5.3782123,5.3782123 0 0 1 3.72916,-6.629 z"
       id="path3572" />
    <path
       style="fill:none;fill-rule:evenodd;stroke:#000000;stroke-width:2;stroke-linecap:butt;stroke-linejoin:miter;stroke-opacity:1;fill-opacity:1;stroke-miterlimit:4;stroke-dasharray:none"
       d="M 344.65812,250.10505 305.01378,216.3688"
       id="path3570" />
    <path
       style="fill:#000000;fill-rule:evenodd;stroke:none;stroke-width:0.62637156px;stroke-linecap:butt;stroke-linejoin:miter;stroke-opacity:1;fill-opacity:1"
       d="m 158.43902,271.52684 a 5.3782123,5.3782123 0 0 1 6.629,3.72917 5.3782123,5.3782123 0 0 1 -3.72917,6.629 5.3782123,5.3782123 0 0 1 -6.629,-3.72918 5.3782123,5.3782123 0 0 1 3.72917,-6.62899 z"
       id="path3568" />
    <path
       style="fill:#000000;fill-rule:evenodd;stroke:none;stroke-width:0.62637156px;stroke-linecap:butt;stroke-linejoin:miter;stroke-opacity:1;fill-opacity:1"
       d="m 192.70877,201.48347 a 5.3782123,5.3782123 0 0 1 6.629,3.72917 5.3782123,5.3782123 0 0 1 -3.72917,6.629 5.3782123,5.3782123 0 0 1 -6.629,-3.72917 5.3782123,5.3782123 0 0 1 3.72917,-6.629 z"
       id="path3566" />
    <path
       style="fill:#000000;fill-rule:evenodd;stroke:none;stroke-width:0.62637156px;stroke-linecap:butt;stroke-linejoin:miter;stroke-opacity:1;fill-opacity:1"
       d="m 345.42101,249.40486 a 5.3782123,5.3782123 0 0 1 6.62899,3.72917 5.3782123,5.3782123 0 0 1 -3.72917,6.629 5.3782123,5.3782123 0 0 1 -6.62899,-3.72917 5.3782123,5.3782123 0 0 1 3.72917,-6.629 z"
       id="path3462" />
    <path
       style="fill:none;stroke:#000000;stroke-width:10;stroke-miterlimit:4;stroke-dasharray:none"
       d="M 579.87845,412.93567 A 275.82254,275.82254 0 0 1 304.05591,688.75821 275.82254,275.82254 0 0 1 28.233368,412.93567 275.82254,275.82254 0 0 1 304.05591,137.11313 275.82254,275.82254 0 0 1 579.87845,412.93567 Z"
       id="path3519" />
    <path
       style="fill:none;stroke:#000000;stroke-width:7;stroke-miterlimit:4;stroke-dasharray:none"
       d="m 361.88981,413.79077 a 59.032661,59.032661 0 0 1 -59.03266,59.03266 59.032661,59.032661 0 0 1 -59.03266,-59.03266 59.032661,59.032661 0 0 1 59.03266,-59.03266 59.032661,59.032661 0 0 1 59.03266,59.03266 z"
       id="path3519-9" />
    <path
       style="fill:#000000;fill-opacity:1;stroke:none"
       d="M 313.39286,472.18362 A 10.892859,10.892859 0 0 1 302.5,483.07648 10.892859,10.892859 0 0 1 291.60714,472.18362 10.892859,10.892859 0 0 1 302.5,461.29077 a 10.892859,10.892859 0 0 1 10.89286,10.89285 z"
       id="path3538"
       inkscape:connector-curvature="0" />
    <path
       style="fill:none;fill-rule:evenodd;stroke:#000000;stroke-width:5;stroke-linecap:butt;stroke-linejoin:miter;stroke-miterlimit:4;stroke-dasharray:none;stroke-opacity:1"
       d="m 276.78572,412.89792 51.42856,0"
       id="path3553"
       inkscape:connector-curvature="0" />
    <path
       style="fill:none;fill-rule:evenodd;stroke:#000000;stroke-width:5;stroke-linecap:butt;stroke-linejoin:miter;stroke-miterlimit:4;stroke-dasharray:none;stroke-opacity:1"
       d="m 302.5,438.43364 0,-51.25001"
       id="path3555"
       inkscape:connector-curvature="0" />
  </g>
</svg>
