<?xml version="1.0" encoding="iso-8859-1"?>
<!-- Generator: Adobe Illustrator 19.0.0, SVG Export Plug-In . SVG Version: 6.00 Build 0)  -->
<svg version="1.1" id="Capa_1" xmlns="http://www.w3.org/2000/svg" xmlns:xlink="http://www.w3.org/1999/xlink" x="0px" y="0px"
	 viewBox="0 0 512.006 512.006" style="enable-background:new 0 0 512.006 512.006;" xml:space="preserve">
<g>
	<g>
		<path d="M412.068,139.217C404.1,67.072,345.955,8.927,273.811,0.96c-44.661-4.932-89.325,9.297-122.537,39.043
			c-33.238,29.768-52.302,72.419-52.302,117.012v20.001h40.002v-20.001c0-33.234,14.211-65.023,38.988-87.214
			c25.114-22.493,57.591-32.82,91.458-29.08c53.688,5.929,96.959,49.2,102.888,102.888c4.769,43.177-14.342,85.244-49.872,109.786
			c-54.116,37.379-86.423,98.165-86.423,162.602v20.001h40.001v-20.001c0-51.297,25.852-99.778,69.155-129.688
			C392.819,253.395,418.453,197.034,412.068,139.217z"/>
	</g>
</g>
<g>
	<g>
		<rect x="236.015" y="472.004" width="40.002" height="40.002"/>
	</g>
</g>
<g>
</g>
<g>
</g>
<g>
</g>
<g>
</g>
<g>
</g>
<g>
</g>
<g>
</g>
<g>
</g>
<g>
</g>
<g>
</g>
<g>
</g>
<g>
</g>
<g>
</g>
<g>
</g>
<g>
</g>
</svg>
