<?xml version="1.0" encoding="UTF-8" standalone="no"?>
<!-- Created with Inkscape (http://www.inkscape.org/) -->

<svg
   xmlns:dc="http://purl.org/dc/elements/1.1/"
   xmlns:cc="http://creativecommons.org/ns#"
   xmlns:rdf="http://www.w3.org/1999/02/22-rdf-syntax-ns#"
   xmlns:svg="http://www.w3.org/2000/svg"
   xmlns="http://www.w3.org/2000/svg"
   xmlns:sodipodi="http://sodipodi.sourceforge.net/DTD/sodipodi-0.dtd"
   xmlns:inkscape="http://www.inkscape.org/namespaces/inkscape"
   width="210mm"
   height="297mm"
   viewBox="0 0 210 297"
   version="1.1"
   id="svg2197"
   inkscape:version="0.92.4 (5da689c313, 2019-01-14)"
   sodipodi:docname="refresh.svg">
  <defs
     id="defs2191" />
  <sodipodi:namedview
     id="base"
     pagecolor="#ffffff"
     bordercolor="#666666"
     borderopacity="1.0"
     inkscape:pageopacity="0.0"
     inkscape:pageshadow="2"
     inkscape:zoom="0.35"
     inkscape:cx="-886.29129"
     inkscape:cy="1169.4937"
     inkscape:document-units="mm"
     inkscape:current-layer="layer1"
     showgrid="false"
     inkscape:window-width="2560"
     inkscape:window-height="1377"
     inkscape:window-x="-8"
     inkscape:window-y="-8"
     inkscape:window-maximized="1" />
  <metadata
     id="metadata2194">
    <rdf:RDF>
      <cc:Work
         rdf:about="">
        <dc:format>image/svg+xml</dc:format>
        <dc:type
           rdf:resource="http://purl.org/dc/dcmitype/StillImage" />
        <dc:title></dc:title>
      </cc:Work>
    </rdf:RDF>
  </metadata>
  <g
     inkscape:label="Layer 1"
     inkscape:groupmode="layer"
     id="layer1">
    <g
       transform="matrix(0.60170835,0,0,0.60170835,-130.98972,-150.08382)"
       id="g1598">
      <g
         id="g1596">
        <path
           inkscape:connector-curvature="0"
           d="m 497.989,298.667 c -5.888,0 -10.667,4.779 -10.667,10.667 v 26.027 c -16.085,-28.309 -48.213,-58.027 -96,-58.027 -64.704,0 -117.333,52.629 -117.333,117.333 0,64.704 52.63,117.333 117.334,117.333 5.888,0 10.667,-4.779 10.667,-10.667 0,-5.888 -4.779,-10.667 -10.667,-10.667 -52.928,0 -96,-43.072 -96,-96 0,-52.928 43.072,-96 96,-96 50.304,0 77.973,41.557 84.779,64 H 433.99 c -5.888,0 -10.667,4.779 -10.667,10.667 0,5.888 4.779,10.667 10.667,10.667 h 64 c 5.888,0 10.667,-4.779 10.667,-10.667 v -64 c -10e-4,-5.888 -4.758,-10.666 -10.668,-10.666 z"
           id="path1594" />
      </g>
    </g>
    <g
       transform="matrix(0.26458333,0,0,0.26458333,8.6177977,4.7488103)"
       id="g1600" />
    <g
       transform="matrix(0.26458333,0,0,0.26458333,8.6177977,4.7488103)"
       id="g1602" />
    <g
       transform="matrix(0.26458333,0,0,0.26458333,8.6177977,4.7488103)"
       id="g1604" />
    <g
       transform="matrix(0.26458333,0,0,0.26458333,8.6177977,4.7488103)"
       id="g1606" />
    <g
       transform="matrix(0.26458333,0,0,0.26458333,8.6177977,4.7488103)"
       id="g1608" />
    <g
       transform="matrix(0.26458333,0,0,0.26458333,8.6177977,4.7488103)"
       id="g1610" />
    <g
       transform="matrix(0.26458333,0,0,0.26458333,8.6177977,4.7488103)"
       id="g1612" />
    <g
       transform="matrix(0.26458333,0,0,0.26458333,8.6177977,4.7488103)"
       id="g1614" />
    <g
       transform="matrix(0.26458333,0,0,0.26458333,8.6177977,4.7488103)"
       id="g1616" />
    <g
       transform="matrix(0.26458333,0,0,0.26458333,8.6177977,4.7488103)"
       id="g1618" />
    <g
       transform="matrix(0.26458333,0,0,0.26458333,8.6177977,4.7488103)"
       id="g1620" />
    <g
       transform="matrix(0.26458333,0,0,0.26458333,8.6177977,4.7488103)"
       id="g1622" />
    <g
       transform="matrix(0.26458333,0,0,0.26458333,8.6177977,4.7488103)"
       id="g1624" />
    <g
       transform="matrix(0.26458333,0,0,0.26458333,8.6177977,4.7488103)"
       id="g1626" />
    <g
       transform="matrix(0.26458333,0,0,0.26458333,8.6177977,4.7488103)"
       id="g1628" />
  </g>
</svg>
