<?xml version="1.0"?>
<svg xmlns="http://www.w3.org/2000/svg" width="512" height="512" viewBox="0 0 512 512"><g><path d="M311.912,138.582a48,48,0,0,1,47.506,47.506,8,8,0,0,0,8,7.919h.083a8,8,0,0,0,7.919-8.081,64,64,0,0,0-63.344-63.344h-.083a8,8,0,0,0-.079,16Z"/><path d="M313.738,106.612a80,80,0,0,1,77.65,77.65,8,8,0,0,0,7.993,7.77l.234,0a8,8,0,0,0,7.767-8.226A96,96,0,0,0,314.2,90.618a8,8,0,0,0-.459,15.994Z"/><path d="M464,456H276.94l-13.78-27.58A8.011,8.011,0,0,0,256,424H224V368.46a136.267,136.267,0,0,0,132.68-34.8,8.015,8.015,0,0,0,0-11.32l-84.86-84.85,34.94-34.93a23.993,23.993,0,1,0-11.32-11.31l-34.93,34.93-84.85-84.86a8.015,8.015,0,0,0-11.32,0C112.81,192.86,111.36,275.8,160,329.1V424H128a8.011,8.011,0,0,0-7.16,4.42L107.06,456H16a8,8,0,0,0,0,16H464a8,8,0,0,0,0-16ZM311.42,175.26a8,8,0,0,1,11.32,11.32h-.01a8,8,0,0,1-11.31-11.32ZM170.19,158.48,339.52,327.81A120,120,0,0,1,170.19,158.48ZM208,362.94V424H176V344.04A134.872,134.872,0,0,0,208,362.94ZM124.94,456l8-16H251.06l8,16Z"/><path d="M496,456h-8a8,8,0,0,0,0,16h8a8,8,0,0,0,0-16Z"/></g></svg>
