<?xml version="1.0" encoding="iso-8859-1"?>
<!-- Generator: Adobe Illustrator 19.0.0, SVG Export Plug-In . SVG Version: 6.00 Build 0)  -->
<svg version="1.1" id="Capa_1" xmlns="http://www.w3.org/2000/svg" xmlns:xlink="http://www.w3.org/1999/xlink" x="0px" y="0px"
	 viewBox="0 0 420.685 420.685" style="enable-background:new 0 0 420.685 420.685;" xml:space="preserve">
<g>
	<g>
		<path d="M384.543,33.84C321.583,3.6,214.943,0.16,210.223,0c-4.48,0-111.12,3.6-174.08,33.84c-2.778,1.323-4.551,4.123-4.56,7.2
			V213.2c0,5.28,3.2,130.32,176,206.8c2.063,0.914,4.417,0.914,6.48,0c172.16-76.48,174.96-201.68,175.04-206.88V41.04
			C389.094,37.963,387.321,35.163,384.543,33.84z M373.103,213.04c0,1.2-2.96,118.4-162.88,190.88
			c-159.28-72-162.8-186-162.88-190.8V46.16c58.88-26.24,157.36-30,162.88-30.16c5.52-0.16,104,3.92,162.88,30.16V213.04z"/>
	</g>
</g>
<g>
	<g>
		<path d="M346.783,71.52c-49.28-24-132.56-26.4-136-26.48h-0.56c-3.76,0.08-87.04,2.72-136,26.48l0,0
			c-2.778,1.323-4.551,4.123-4.56,7.2v133.84c0,4.16,2.56,102.48,137.6,162.4c2.063,0.914,4.417,0.914,6.48,0
			c135.12-59.92,137.6-158.24,137.6-162.48V78.72C351.334,75.643,349.561,72.843,346.783,71.52z M85.343,83.84
			c45.6-19.76,120-22.64,124.88-22.88c30.835,1.314,61.49,5.384,91.6,12.16L85.343,207.36V83.84z M335.103,212.4
			c-0.08,3.68-2.88,90.88-124.88,146.48c-32.436-13.928-61.555-34.568-85.44-60.56l210.32-130.96V212.4z M114.223,285.68
			c-13.601-17.856-23.057-38.515-27.68-60.48l235.68-146.08c4.32,1.44,8.56,3.04,12.56,4.72l0.32,64.72L114.223,285.68z"/>
	</g>
</g>
<g>
</g>
<g>
</g>
<g>
</g>
<g>
</g>
<g>
</g>
<g>
</g>
<g>
</g>
<g>
</g>
<g>
</g>
<g>
</g>
<g>
</g>
<g>
</g>
<g>
</g>
<g>
</g>
<g>
</g>
</svg>
