<?xml version="1.0" encoding="UTF-8" standalone="no"?>
<!-- Generator: Adobe Illustrator 19.0.0, SVG Export Plug-In . SVG Version: 6.00 Build 0)  -->

<svg
   xmlns:dc="http://purl.org/dc/elements/1.1/"
   xmlns:cc="http://creativecommons.org/ns#"
   xmlns:rdf="http://www.w3.org/1999/02/22-rdf-syntax-ns#"
   xmlns:svg="http://www.w3.org/2000/svg"
   xmlns="http://www.w3.org/2000/svg"
   xmlns:sodipodi="http://sodipodi.sourceforge.net/DTD/sodipodi-0.dtd"
   xmlns:inkscape="http://www.inkscape.org/namespaces/inkscape"
   version="1.1"
   id="Capa_1"
   x="0px"
   y="0px"
   viewBox="0 0 394.83 394.83"
   style="enable-background:new 0 0 394.83 394.83;"
   xml:space="preserve"
   sodipodi:docname="SlewToAltAz.svg"
   inkscape:version="0.92.4 (5da689c313, 2019-01-14)"><metadata
   id="metadata893"><rdf:RDF><cc:Work
       rdf:about=""><dc:format>image/svg+xml</dc:format><dc:type
         rdf:resource="http://purl.org/dc/dcmitype/StillImage" /><dc:title></dc:title></cc:Work></rdf:RDF></metadata><defs
   id="defs891" /><sodipodi:namedview
   pagecolor="#ffffff"
   bordercolor="#666666"
   borderopacity="1"
   objecttolerance="10"
   gridtolerance="10"
   guidetolerance="10"
   inkscape:pageopacity="0"
   inkscape:pageshadow="2"
   inkscape:window-width="2560"
   inkscape:window-height="1377"
   id="namedview889"
   showgrid="false"
   inkscape:zoom="1.0817124"
   inkscape:cx="-140.74263"
   inkscape:cy="165.54654"
   inkscape:window-x="-8"
   inkscape:window-y="-8"
   inkscape:window-maximized="1"
   inkscape:current-layer="Capa_1" />

<g
   id="g858">
</g>
<g
   id="g860">
</g>
<g
   id="g862">
</g>
<g
   id="g864">
</g>
<g
   id="g866">
</g>
<g
   id="g868">
</g>
<g
   id="g870">
</g>
<g
   id="g872">
</g>
<g
   id="g874">
</g>
<g
   id="g876">
</g>
<g
   id="g878">
</g>
<g
   id="g880">
</g>
<g
   id="g882">
</g>
<g
   id="g884">
</g>
<g
   id="g886">
</g>
<path
   style="color:#000000;font-style:normal;font-variant:normal;font-weight:normal;font-stretch:normal;font-size:medium;line-height:normal;font-family:sans-serif;font-variant-ligatures:normal;font-variant-position:normal;font-variant-caps:normal;font-variant-numeric:normal;font-variant-alternates:normal;font-feature-settings:normal;text-indent:0;text-align:start;text-decoration:none;text-decoration-line:none;text-decoration-style:solid;text-decoration-color:#000000;letter-spacing:normal;word-spacing:normal;text-transform:none;writing-mode:lr-tb;direction:ltr;text-orientation:mixed;dominant-baseline:auto;baseline-shift:baseline;text-anchor:start;white-space:normal;shape-padding:0;clip-rule:nonzero;display:inline;overflow:visible;visibility:visible;opacity:1;isolation:auto;mix-blend-mode:normal;color-interpolation:sRGB;color-interpolation-filters:linearRGB;solid-color:#000000;solid-opacity:1;vector-effect:none;fill:#000000;fill-opacity:1;fill-rule:nonzero;stroke:none;stroke-width:6.29219294;stroke-linecap:butt;stroke-linejoin:miter;stroke-miterlimit:4;stroke-dasharray:none;stroke-dashoffset:0;stroke-opacity:1;color-rendering:auto;image-rendering:auto;shape-rendering:auto;text-rendering:auto;enable-background:accumulate"
   d="m 259.51478,13.398866 c -54.65912,0 -99.03338,44.377523 -99.03338,99.036644 0,54.65913 44.37426,99.03666 99.03338,99.03666 54.65914,0 99.03665,-44.37753 99.03665,-99.03666 0,-54.659121 -44.37751,-99.036644 -99.03665,-99.036644 z m 0,6.291809 c 51.25859,0 92.74485,41.486269 92.74485,92.744835 0,51.25857 -41.48626,92.74484 -92.74485,92.74484 -51.25856,0 -92.74158,-41.48627 -92.74158,-92.74484 0,-51.258566 41.48302,-92.744835 92.74158,-92.744835 z"
   id="circle6312"
   inkscape:connector-curvature="0" /><g
   id="g6362"
   transform="matrix(0.2249993,0,0,0.2249993,249.30994,25.093574)" /><g
   id="g6364"
   transform="matrix(0.2249993,0,0,0.2249993,249.30994,25.093574)" /><g
   id="g6366"
   transform="matrix(0.2249993,0,0,0.2249993,249.30994,25.093574)" /><g
   id="g6368"
   transform="matrix(0.2249993,0,0,0.2249993,249.30994,25.093574)" /><g
   id="g6370"
   transform="matrix(0.2249993,0,0,0.2249993,249.30994,25.093574)" /><g
   id="g6372"
   transform="matrix(0.2249993,0,0,0.2249993,249.30994,25.093574)" /><g
   id="g6374"
   transform="matrix(0.2249993,0,0,0.2249993,249.30994,25.093574)" /><g
   id="g6376"
   transform="matrix(0.2249993,0,0,0.2249993,249.30994,25.093574)" /><g
   id="g6378"
   transform="matrix(0.2249993,0,0,0.2249993,249.30994,25.093574)" /><g
   id="g6380"
   transform="matrix(0.2249993,0,0,0.2249993,249.30994,25.093574)" /><g
   id="g6382"
   transform="matrix(0.2249993,0,0,0.2249993,249.30994,25.093574)" /><g
   id="g6384"
   transform="matrix(0.2249993,0,0,0.2249993,249.30994,25.093574)" /><g
   id="g6386"
   transform="matrix(0.2249993,0,0,0.2249993,249.30994,25.093574)" /><g
   id="g6388"
   transform="matrix(0.2249993,0,0,0.2249993,249.30994,25.093574)" /><g
   id="g6390"
   transform="matrix(0.2249993,0,0,0.2249993,249.30994,25.093574)" /><text
   xml:space="preserve"
   style="font-style:normal;font-weight:normal;font-size:98.27718353px;line-height:1.25;font-family:sans-serif;letter-spacing:0px;word-spacing:0px;fill:#000000;fill-opacity:1;stroke:none;stroke-width:2.45692968"
   x="101.20299"
   y="379.70822"
   id="text7082"><tspan
     sodipodi:role="line"
     id="tspan7080"
     x="101.20299"
     y="379.70822"
     style="stroke-width:2.45692968">Alt/Az</tspan></text>
<path
   style="color:#000000;font-style:normal;font-variant:normal;font-weight:normal;font-stretch:normal;font-size:medium;line-height:normal;font-family:sans-serif;font-variant-ligatures:normal;font-variant-position:normal;font-variant-caps:normal;font-variant-numeric:normal;font-variant-alternates:normal;font-feature-settings:normal;text-indent:0;text-align:start;text-decoration:none;text-decoration-line:none;text-decoration-style:solid;text-decoration-color:#000000;letter-spacing:normal;word-spacing:normal;text-transform:none;writing-mode:lr-tb;direction:ltr;text-orientation:mixed;dominant-baseline:auto;baseline-shift:baseline;text-anchor:start;white-space:normal;shape-padding:0;clip-rule:nonzero;display:inline;overflow:visible;visibility:visible;opacity:1;isolation:auto;mix-blend-mode:normal;color-interpolation:sRGB;color-interpolation-filters:linearRGB;solid-color:#000000;solid-opacity:1;vector-effect:none;fill:#000000;fill-opacity:1;fill-rule:nonzero;stroke:none;stroke-width:18.89763832;stroke-linecap:butt;stroke-linejoin:miter;stroke-miterlimit:4;stroke-dasharray:none;stroke-dashoffset:0;stroke-opacity:1;color-rendering:auto;image-rendering:auto;shape-rendering:auto;text-rendering:auto;enable-background:accumulate"
   d="M 247.06445,96.988281 C 227.2129,96.63435 181.80261,98.510063 136.1543,119.18945 75.289877,146.76197 14.083984,209.57091 14.083984,339.91992 h 18.898438 c 0,-124.59088 55.314514,-178.30251 110.970698,-203.51562 55.65619,-25.21311 111.73633,-20.11914 111.73633,-20.11914 l 1.76953,-18.814457 c 0,0 -3.77734,-0.364445 -10.39453,-0.482422 z"
   id="path7088"
   inkscape:connector-curvature="0" /></svg>