<?xml version="1.0" encoding="UTF-8" standalone="no"?>
<svg
   xmlns:dc="http://purl.org/dc/elements/1.1/"
   xmlns:cc="http://creativecommons.org/ns#"
   xmlns:rdf="http://www.w3.org/1999/02/22-rdf-syntax-ns#"
   xmlns:svg="http://www.w3.org/2000/svg"
   xmlns="http://www.w3.org/2000/svg"
   xmlns:sodipodi="http://sodipodi.sourceforge.net/DTD/sodipodi-0.dtd"
   xmlns:inkscape="http://www.inkscape.org/namespaces/inkscape"
   id="Layer_1"
   enable-background="new 0 0 512.23 512.23"
   height="512"
   viewBox="0 0 512.23 512.23"
   width="512"
   version="1.1"
   sodipodi:docname="snowflake_nofill.svg"
   inkscape:version="0.92.4 (5da689c313, 2019-01-14)">
  <metadata
     id="metadata9">
    <rdf:RDF>
      <cc:Work
         rdf:about="">
        <dc:format>image/svg+xml</dc:format>
        <dc:type
           rdf:resource="http://purl.org/dc/dcmitype/StillImage" />
        <dc:title></dc:title>
      </cc:Work>
    </rdf:RDF>
  </metadata>
  <defs
     id="defs7" />
  <sodipodi:namedview
     pagecolor="#ffffff"
     bordercolor="#666666"
     borderopacity="1"
     objecttolerance="10"
     gridtolerance="10"
     guidetolerance="10"
     inkscape:pageopacity="0"
     inkscape:pageshadow="2"
     inkscape:window-width="1575"
     inkscape:window-height="944"
     id="namedview5"
     showgrid="false"
     inkscape:zoom="0.4609375"
     inkscape:cx="256"
     inkscape:cy="256"
     inkscape:window-x="211"
     inkscape:window-y="143"
     inkscape:window-maximized="0"
     inkscape:current-layer="Layer_1" />
  <path
     d="m390.452 316.354-17.533-10.123 46.982-12.589-7.765-28.978-75.96 20.353-35.827-20.685c.494-2.667.766-5.411.766-8.218s-.271-5.552-.766-8.218l35.827-20.685 75.96 20.353 7.765-28.978-46.982-12.589 17.533-10.123 75.238-4.516 11.079-62.64-59.787-21.725-41.53 62.9-17.533 10.123 12.589-46.982-28.978-7.764-20.353 75.96-35.849 20.697c-4.155-3.556-8.959-6.37-14.213-8.233v-41.367l55.606-55.607-21.213-21.213-34.394 34.393v-20.246l33.604-67.208-48.603-42.446-48.604 42.448 33.604 67.208v20.246l-34.394-34.393-21.213 21.213 55.606 55.607v41.367c-5.254 1.863-10.058 4.677-14.213 8.233l-35.849-20.697-20.353-75.96-28.978 7.764 12.589 46.982-17.533-10.123-41.53-62.9-59.786 21.725 11.079 62.64 75.238 4.516 17.533 10.123-46.982 12.589 7.765 28.978 75.96-20.353 35.827 20.685c-.494 2.667-.766 5.411-.766 8.218s.271 5.552.766 8.218l-35.827 20.685-75.96-20.353-7.765 28.978 46.982 12.589-17.533 10.123-75.238 4.514-11.079 62.64 59.787 21.725 41.53-62.9 17.534-10.123-12.589 46.982 28.978 7.765 20.353-75.96 35.849-20.697c4.155 3.556 8.959 6.37 14.213 8.233v41.367l-55.606 55.606 21.213 21.213 34.394-34.394v20.246l-33.604 67.208 48.604 42.448 48.604-42.448-33.604-67.208v-20.246l34.394 34.394 21.213-21.213-55.606-55.606v-41.367c5.254-1.863 10.058-4.677 14.213-8.233l35.849 20.697 20.353 75.96 28.978-7.765-12.589-46.982 17.534 10.123 41.53 62.9 59.787-21.725-11.079-62.64z"
     id="path2"
     style="fill:none;stroke-width:20.00898438;stroke-miterlimit:4;stroke-dasharray:none;stroke:#000000;stroke-opacity:1" />
</svg>
