<?xml version="1.0" encoding="iso-8859-1"?>
<!-- Generator: Adobe Illustrator 16.0.0, SVG Export Plug-In . SVG Version: 6.00 Build 0)  -->
<!DOCTYPE svg PUBLIC "-//W3C//DTD SVG 1.1//EN" "http://www.w3.org/Graphics/SVG/1.1/DTD/svg11.dtd">
<svg version="1.1" id="Capa_1" xmlns="http://www.w3.org/2000/svg" xmlns:xlink="http://www.w3.org/1999/xlink" x="0px" y="0px"
	 width="95.884px" height="95.884px" viewBox="0 0 95.884 95.884" style="enable-background:new 0 0 95.884 95.884;"
	 xml:space="preserve">
<g>
	<g>
		<path d="M42.893,33.654h10.098c1.104,0,2-0.896,2-2V2c0-1.104-0.896-2-2-2H42.893c-1.104,0-2,0.896-2,2v29.654
			C40.893,32.758,41.789,33.654,42.893,33.654z"/>
		<path d="M52.991,62.23H42.893c-1.104,0-2,0.896-2,2v29.653c0,1.104,0.896,2,2,2h10.098c1.104,0,2-0.896,2-2V64.23
			C54.991,63.126,54.095,62.23,52.991,62.23z"/>
		<path d="M57.373,39.37H38.512c-1.104,0-2,0.896-2,2v13.146c0,1.104,0.896,2,2,2h18.86c1.104,0,2-0.896,2-2V41.37
			C59.373,40.265,58.478,39.37,57.373,39.37z"/>
		<path d="M8.601,13.079H18.7c1.104,0,2-0.896,2-2V2c0-1.104-0.896-2-2-2H8.601c-1.104,0-2,0.896-2,2v9.079
			C6.601,12.183,7.497,13.079,8.601,13.079z"/>
		<path d="M18.7,41.655H8.601c-1.104,0-2,0.896-2,2v50.229c0,1.104,0.896,2,2,2H18.7c1.104,0,2-0.896,2-2V43.655
			C20.7,42.55,19.804,41.655,18.7,41.655z"/>
		<path d="M23.081,18.795H4.22c-1.104,0-2,0.896-2,2v13.146c0,1.104,0.896,2,2,2h18.86c1.104,0,2-0.896,2-2V20.795
			C25.081,19.69,24.185,18.795,23.081,18.795z"/>
		<path d="M77.185,23.366h10.098c1.104,0,2-0.896,2-2V2c0-1.104-0.896-2-2-2H77.185c-1.104,0-2,0.896-2,2v19.366
			C75.185,22.47,76.08,23.366,77.185,23.366z"/>
		<path d="M87.282,51.943H77.185c-1.104,0-2,0.896-2,2v39.94c0,1.104,0.896,2,2,2h10.098c1.104,0,2-0.896,2-2v-39.94
			C89.282,52.838,88.387,51.943,87.282,51.943z"/>
		<path d="M91.664,29.082h-18.86c-1.104,0-2,0.896-2,2v13.146c0,1.104,0.896,2,2,2h18.86c1.104,0,2-0.896,2-2V31.082
			C93.664,29.977,92.769,29.082,91.664,29.082z"/>
	</g>
</g>
<g>
</g>
<g>
</g>
<g>
</g>
<g>
</g>
<g>
</g>
<g>
</g>
<g>
</g>
<g>
</g>
<g>
</g>
<g>
</g>
<g>
</g>
<g>
</g>
<g>
</g>
<g>
</g>
<g>
</g>
</svg>
