<?xml version="1.0" encoding="iso-8859-1"?>
<!-- Generator: Adobe Illustrator 19.0.0, SVG Export Plug-In . SVG Version: 6.00 Build 0)  -->
<svg version="1.1" id="Layer_1" xmlns="http://www.w3.org/2000/svg" xmlns:xlink="http://www.w3.org/1999/xlink" x="0px" y="0px"
	 viewBox="0 0 448 448" style="enable-background:new 0 0 448 448;" xml:space="preserve">
<g transform="translate(0 -540.36)">
	<g>
		<g>
			<path d="M255.5,764.41c0-17.4-14.1-31.5-31.5-31.5c-17.4,0-31.5,14.1-31.5,31.5s14.1,31.5,31.5,31.5
				C241.4,795.91,255.5,781.81,255.5,764.41z M224,780.91c-9.1,0-16.5-7.4-16.5-16.5s7.4-16.5,16.5-16.5c9.1,0,16.5,7.4,16.5,16.5
				S233.1,780.91,224,780.91z"/>
			<path d="M399.5,756.91c-1.8-44.4-19.9-85.7-51.4-117c-31.4-31.2-72.5-49.1-116.5-51v-48.5h-15v48.5c-44.5,1.8-85.8,19.7-117,51
				c-31.2,31.3-49.2,72.5-51,117H0v15h48.5c1.8,44,19.8,85.2,51,116.5c31.4,31.5,72.7,49.6,117,51.4v48.5h15v-48.5
				c43.9-1.9,85.1-19.9,116.6-51.4s49.6-72.6,51.4-116.6H448v-14.9H399.5z M231.5,603.91c82.6,3.8,149.2,70.4,153,153h-33.1
				c-1.8-31.6-14.9-60.8-37.3-83.1c-22.3-22.1-51.4-35-82.6-36.8V603.91z M216.5,603.91v33.1c-65.5,3.6-116.3,54.4-119.9,119.9H63.5
				C67.2,672.91,132.5,607.61,216.5,603.91z M216.5,924.91c-82.6-3.8-149.2-70.4-153-153h33.1c1.8,31.3,14.7,60.4,36.8,82.6
				c22.3,22.4,51.5,35.5,83.1,37.3V924.91z M216.5,844.31v32.5c-56.1-3.7-101.1-48.7-104.9-104.9h32.5v-15h-32.5
				c3.6-57,47.8-101.3,104.9-104.9v32.5h15v-32.5c56.1,3.7,101.1,48.7,104.9,104.9h-32.5v15h32.5c-3.7,56.1-48.7,101.1-104.9,104.9
				v-32.5H216.5z M231.5,924.91v-33.1c64.4-3.8,116.1-55.5,119.9-119.9h33.1C380.7,854.51,314.1,921.11,231.5,924.91z"/>
		</g>
	</g>
</g>
<g>
</g>
<g>
</g>
<g>
</g>
<g>
</g>
<g>
</g>
<g>
</g>
<g>
</g>
<g>
</g>
<g>
</g>
<g>
</g>
<g>
</g>
<g>
</g>
<g>
</g>
<g>
</g>
<g>
</g>
</svg>
