<?xml version="1.0" encoding="iso-8859-1"?>
<!-- Generator: Adobe Illustrator 19.0.0, SVG Export Plug-In . SVG Version: 6.00 Build 0)  -->
<svg version="1.1" id="Capa_1" xmlns="http://www.w3.org/2000/svg" xmlns:xlink="http://www.w3.org/1999/xlink" x="0px" y="0px"
	 viewBox="0 0 512 512" style="enable-background:new 0 0 512 512;" xml:space="preserve">
<g>
	<g>
		<path d="M394.24,227.84l-40.96,40.96c2.56,12.8,5.12,25.6,5.12,38.4c0,84.48-69.12,153.6-153.6,153.6S51.2,391.68,51.2,307.2
			s69.12-153.6,153.6-153.6c12.8,0,28.16,2.56,38.4,5.12l40.96-40.96c-23.04-10.24-51.2-15.36-79.36-15.36
			C92.16,102.4,0,194.56,0,307.2S92.16,512,204.8,512s204.8-92.16,204.8-204.8C409.6,279.04,404.48,250.88,394.24,227.84z"/>
	</g>
</g>
<g>
	<g>
		<path d="M409.6,102.4V0l-76.8,76.8v66.56l-76.8,76.8c-15.36-10.24-33.28-15.36-51.2-15.36c-56.32,0-102.4,46.08-102.4,102.4
			s46.08,102.4,102.4,102.4s102.4-46.08,102.4-102.4c0-17.92-5.12-35.84-15.36-51.2l76.8-76.8h66.56l76.8-76.8H409.6z M204.8,358.4
			c-28.16,0-51.2-23.04-51.2-51.2c0-28.16,23.04-51.2,51.2-51.2c5.12,0,7.68,0,12.8,2.56l-30.72,30.72
			c-10.24,10.24-10.24,25.6,0,35.84s25.6,10.24,35.84,0l30.72-30.72c2.56,5.12,2.56,7.68,2.56,12.8
			C256,335.36,232.96,358.4,204.8,358.4z"/>
	</g>
</g>
<g>
</g>
<g>
</g>
<g>
</g>
<g>
</g>
<g>
</g>
<g>
</g>
<g>
</g>
<g>
</g>
<g>
</g>
<g>
</g>
<g>
</g>
<g>
</g>
<g>
</g>
<g>
</g>
<g>
</g>
</svg>
