<?xml version="1.0" encoding="iso-8859-1"?>
<!-- Generator: Adobe Illustrator 19.0.0, SVG Export Plug-In . SVG Version: 6.00 Build 0)  -->
<svg version="1.1" id="Capa_1" xmlns="http://www.w3.org/2000/svg" xmlns:xlink="http://www.w3.org/1999/xlink" x="0px" y="0px"
	 viewBox="0 0 394.83 394.83" style="enable-background:new 0 0 394.83 394.83;" xml:space="preserve">
<g>
	<path id="Telescope" d="M257.565,74.444l-69.454,40.1c-1.468,0.851-1.98,2.745-1.129,4.214c0.845,1.468,2.745,1.98,4.214,1.129
		l69.454-40.1c1.468-0.845,1.98-2.745,1.129-4.213C260.934,74.105,259.034,73.593,257.565,74.444L257.565,74.444z M22.468,99.861
		l7.119,1.61c0.598,0.142,1.067,0.561,1.234,1.092l1.956,7.607c0.321,1.172,1.98,1.172,2.301,0l1.956-7.607
		c0.166-0.531,0.635-0.95,1.234-1.092l7.125-1.61c1.166-0.321,1.166-1.98,0-2.301l-7.125-1.61c-0.599-0.148-1.068-0.561-1.234-1.092
		l-1.956-7.613c-0.321-1.166-1.98-1.166-2.301,0l-1.956,7.613c-0.166,0.531-0.636,0.944-1.234,1.092l-7.119,1.61
		C21.296,97.881,21.296,99.541,22.468,99.861L22.468,99.861z M54.19,63.993l14.245,3.22c1.197,0.29,2.135,1.123,2.461,2.19
		l3.918,15.213c0.642,2.338,3.954,2.338,4.596,0l3.917-15.213c0.327-1.067,1.265-1.9,2.461-2.19l14.251-3.22
		c2.332-0.642,2.332-3.954,0-4.596l-14.251-3.22c-1.197-0.296-2.134-1.123-2.461-2.19l-3.917-15.22
		c-0.642-2.332-3.954-2.332-4.596,0l-3.918,15.22c-0.327,1.067-1.264,1.894-2.461,2.19l-14.245,3.22
		C51.852,60.039,51.852,63.352,54.19,63.993L54.19,63.993z M360.295,89.398L338.703,52l-21.592-37.404l10.685-6.169l43.185,74.802
		L360.295,89.398z M333.576,104.821l-3.085-5.343l-18.508-32.055l-21.592-37.404l21.376-12.338l21.592,37.404l21.592,37.398
		L333.576,104.821z M119.041,214.436l-30.846-53.432l-5.342,3.085l30.846,53.432l-21.37,12.338l-9.254-16.028l-6.169-10.685
		l-15.423-26.719L264.507,59.212l30.846,53.432l5.342-3.085l-30.846-53.432l21.37-12.338l15.423,26.719l15.423,26.713
		L119.041,214.436z M188.162,274.296l-27.861-11.142l27.861-68.478V274.296z M30.063,236.325l-6.169-10.679l44.542-24.837
		l6.169,10.685L30.063,236.325z M194.331,194.676l27.854,68.478l-27.854,11.142C194.331,274.296,194.331,194.676,194.331,194.676z
		 M330.054,0l-21.37,12.338l-26.719,15.423l6.169,10.685L53.055,174.17l12.295,21.296l-49.927,27.842l12.338,21.37l49.927-27.842
		l12.382,21.45l96.308-55.603l-72.02,177.057c-0.648,1.579,0.111,3.381,1.69,4.016c0.383,0.16,0.777,0.228,1.166,0.228
		c1.215,0,2.363-0.722,2.856-1.919l37.91-93.199l30.18,12.073v110.806c0,1.709,1.375,3.085,3.085,3.085
		c1.703,0,3.085-1.376,3.085-3.085V280.941l30.18-12.073l37.91,93.199c0.487,1.197,1.635,1.919,2.856,1.919
		c0.382,0,0.783-0.068,1.16-0.228c1.579-0.635,2.338-2.437,1.696-4.016l-73.876-181.604l130.892-75.573l6.169,10.685l32.062-18.508
		l16.028-9.254L330.054,0z"/>
</g>
<g>
</g>
<g>
</g>
<g>
</g>
<g>
</g>
<g>
</g>
<g>
</g>
<g>
</g>
<g>
</g>
<g>
</g>
<g>
</g>
<g>
</g>
<g>
</g>
<g>
</g>
<g>
</g>
<g>
</g>
</svg>
