<?xml version="1.0" encoding="iso-8859-1"?>
<!-- Generator: Adobe Illustrator 16.0.0, SVG Export Plug-In . SVG Version: 6.00 Build 0)  -->
<!DOCTYPE svg PUBLIC "-//W3C//DTD SVG 1.1//EN" "http://www.w3.org/Graphics/SVG/1.1/DTD/svg11.dtd">
<svg version="1.1" id="Capa_1" xmlns="http://www.w3.org/2000/svg" xmlns:xlink="http://www.w3.org/1999/xlink" x="0px" y="0px"
	 width="440.927px" height="440.927px" viewBox="0 0 440.927 440.927" style="enable-background:new 0 0 440.927 440.927;"
	 xml:space="preserve">
<g>
	<g>
		<path d="M220.241,0H91.951v261.193c-24.942,18.894-39.638,48.215-39.638,79.708c0,55.162,44.863,100.025,100.026,100.025
			c55.157,0,100.026-44.863,100.026-100.025c0-28.072-11.654-54.521-32.136-73.449V0H220.241z M228.444,340.901
			c0,41.967-34.138,76.111-76.105,76.111c-41.973,0-76.111-34.145-76.111-76.111c0-25.619,12.804-49.371,34.272-63.547l5.365-3.526
			V23.915h80.461v254.608l4.355,3.584C218.338,296.646,228.444,318.062,228.444,340.901z"/>
		<path d="M179.36,287.537V100.143h-45.582v184.767c-23.424,8.139-40.333,30.162-40.333,56.365c0,33.07,26.811,59.904,59.91,59.904
			c33.07,0,59.904-26.834,59.904-59.904C213.247,317.57,199.351,297.253,179.36,287.537z"/>
		<polygon points="349.378,65.392 349.378,23.915 326.211,23.915 326.211,65.392 279.503,65.392 279.503,88.559 326.211,88.559 
			326.211,133.025 349.378,133.025 349.378,88.559 388.613,88.559 388.613,65.392 		"/>
		<rect x="279.503" y="227.189" width="109.11" height="23.167"/>
	</g>
</g>
<g>
</g>
<g>
</g>
<g>
</g>
<g>
</g>
<g>
</g>
<g>
</g>
<g>
</g>
<g>
</g>
<g>
</g>
<g>
</g>
<g>
</g>
<g>
</g>
<g>
</g>
<g>
</g>
<g>
</g>
</svg>
