<?xml version="1.0" encoding="UTF-8" standalone="no"?>
<!-- Generator: Adobe Illustrator 19.0.0, SVG Export Plug-In . SVG Version: 6.00 Build 0)  -->

<svg
   xmlns:dc="http://purl.org/dc/elements/1.1/"
   xmlns:cc="http://creativecommons.org/ns#"
   xmlns:rdf="http://www.w3.org/1999/02/22-rdf-syntax-ns#"
   xmlns:svg="http://www.w3.org/2000/svg"
   xmlns="http://www.w3.org/2000/svg"
   xmlns:sodipodi="http://sodipodi.sourceforge.net/DTD/sodipodi-0.dtd"
   xmlns:inkscape="http://www.inkscape.org/namespaces/inkscape"
   version="1.1"
   id="Capa_1"
   x="0px"
   y="0px"
   viewBox="0 0 420.685 420.685"
   style="enable-background:new 0 0 420.685 420.685;"
   xml:space="preserve"
   sodipodi:docname="unshield.svg"
   inkscape:version="0.92.4 (5da689c313, 2019-01-14)"><metadata
   id="metadata922"><rdf:RDF><cc:Work
       rdf:about=""><dc:format>image/svg+xml</dc:format><dc:type
         rdf:resource="http://purl.org/dc/dcmitype/StillImage" /><dc:title></dc:title></cc:Work></rdf:RDF></metadata><defs
   id="defs920" /><sodipodi:namedview
   pagecolor="#ffffff"
   bordercolor="#666666"
   borderopacity="1"
   objecttolerance="10"
   gridtolerance="10"
   guidetolerance="10"
   inkscape:pageopacity="0"
   inkscape:pageshadow="2"
   inkscape:window-width="2560"
   inkscape:window-height="1377"
   id="namedview918"
   showgrid="false"
   inkscape:zoom="1.0152311"
   inkscape:cx="455.31689"
   inkscape:cy="34.145508"
   inkscape:window-x="-8"
   inkscape:window-y="-8"
   inkscape:window-maximized="1"
   inkscape:current-layer="Capa_1" />
<g
   id="g879"
   transform="matrix(0.81338916,0,0,0.81338916,39.828093,52.664073)">
	<g
   id="g877">
		<path
   d="M 384.543,33.84 C 321.583,3.6 214.943,0.16 210.223,0 c -4.48,0 -111.12,3.6 -174.08,33.84 -2.778,1.323 -4.551,4.123 -4.56,7.2 V 213.2 c 0,5.28 3.2,130.32 176,206.8 2.063,0.914 4.417,0.914 6.48,0 172.16,-76.48 174.96,-201.68 175.04,-206.88 V 41.04 c -0.009,-3.077 -1.782,-5.877 -4.56,-7.2 z m -11.44,179.2 c 0,1.2 -2.96,118.4 -162.88,190.88 -159.28,-72 -162.8,-186 -162.88,-190.8 V 46.16 c 58.88,-26.24 157.36,-30 162.88,-30.16 5.52,-0.16 104,3.92 162.88,30.16 z"
   id="path875"
   inkscape:connector-curvature="0" />
	</g>
</g>
<g
   id="g885"
   transform="matrix(0.81338916,0,0,0.81338916,39.828093,52.664073)">
	<g
   id="g883">
		<path
   d="m 346.783,71.52 c -49.28,-24 -132.56,-26.4 -136,-26.48 h -0.56 c -3.76,0.08 -87.04,2.72 -136,26.48 v 0 c -2.778,1.323 -4.551,4.123 -4.56,7.2 v 133.84 c 0,4.16 2.56,102.48 137.6,162.4 2.063,0.914 4.417,0.914 6.48,0 135.12,-59.92 137.6,-158.24 137.6,-162.48 V 78.72 c -0.009,-3.077 -1.782,-5.877 -4.56,-7.2 z M 85.343,83.84 c 45.6,-19.76 120,-22.64 124.88,-22.88 30.835,1.314 61.49,5.384 91.6,12.16 L 85.343,207.36 Z m 249.76,128.56 c -0.08,3.68 -2.88,90.88 -124.88,146.48 -32.436,-13.928 -61.555,-34.568 -85.44,-60.56 l 210.32,-130.96 z m -220.88,73.28 C 100.622,267.824 91.166,247.165 86.543,225.2 L 322.223,79.12 c 4.32,1.44 8.56,3.04 12.56,4.72 l 0.32,64.72 z"
   id="path881"
   inkscape:connector-curvature="0" />
	</g>
</g>
<g
   id="g887"
   transform="matrix(0.81338916,0,0,0.81338916,39.828093,52.664073)">
</g>
<g
   id="g889"
   transform="matrix(0.81338916,0,0,0.81338916,39.828093,52.664073)">
</g>
<g
   id="g891"
   transform="matrix(0.81338916,0,0,0.81338916,39.828093,52.664073)">
</g>
<g
   id="g893"
   transform="matrix(0.81338916,0,0,0.81338916,39.828093,52.664073)">
</g>
<g
   id="g895"
   transform="matrix(0.81338916,0,0,0.81338916,39.828093,52.664073)">
</g>
<g
   id="g897"
   transform="matrix(0.81338916,0,0,0.81338916,39.828093,52.664073)">
</g>
<g
   id="g899"
   transform="matrix(0.81338916,0,0,0.81338916,39.828093,52.664073)">
</g>
<g
   id="g901"
   transform="matrix(0.81338916,0,0,0.81338916,39.828093,52.664073)">
</g>
<g
   id="g903"
   transform="matrix(0.81338916,0,0,0.81338916,39.828093,52.664073)">
</g>
<g
   id="g905"
   transform="matrix(0.81338916,0,0,0.81338916,39.828093,52.664073)">
</g>
<g
   id="g907"
   transform="matrix(0.81338916,0,0,0.81338916,39.828093,52.664073)">
</g>
<g
   id="g909"
   transform="matrix(0.81338916,0,0,0.81338916,39.828093,52.664073)">
</g>
<g
   id="g911"
   transform="matrix(0.81338916,0,0,0.81338916,39.828093,52.664073)">
</g>
<g
   id="g913"
   transform="matrix(0.81338916,0,0,0.81338916,39.828093,52.664073)">
</g>
<g
   id="g915"
   transform="matrix(0.81338916,0,0,0.81338916,39.828093,52.664073)">
</g>
<g
   id="g12"
   transform="matrix(0.81338916,0,0,0.81338916,3.0543155,3.1454199)"><g
     id="g10"><path
       inkscape:connector-curvature="0"
       d="M 437.02,74.98 C 388.667,26.628 324.38,0 256,0 187.62,0 123.333,26.628 74.98,74.98 26.629,123.333 0,187.621 0,256 0,324.379 26.629,388.667 74.981,437.019 123.333,485.371 187.62,512 256,512 324.38,512 388.667,485.372 437.02,437.02 485.371,388.667 512,324.379 512,256 512,187.621 485.371,123.333 437.02,74.98 Z M 415.807,415.807 C 373.12,458.492 316.366,482 256,482 195.633,482 138.88,458.492 96.194,415.806 53.508,373.12 30,316.366 30,256 30,195.634 53.508,138.88 96.194,96.193 138.88,53.508 195.633,30 256,30 316.366,30 373.12,53.508 415.807,96.193 458.492,138.88 482,195.634 482,256 c 0,60.366 -23.508,117.12 -66.193,159.807 z"
       id="path8" /></g></g><path
   style="color:#000000;font-style:normal;font-variant:normal;font-weight:normal;font-stretch:normal;font-size:medium;line-height:normal;font-family:sans-serif;font-variant-ligatures:normal;font-variant-position:normal;font-variant-caps:normal;font-variant-numeric:normal;font-variant-alternates:normal;font-feature-settings:normal;text-indent:0;text-align:start;text-decoration:none;text-decoration-line:none;text-decoration-style:solid;text-decoration-color:#000000;letter-spacing:normal;word-spacing:normal;text-transform:none;writing-mode:lr-tb;direction:ltr;text-orientation:mixed;dominant-baseline:auto;baseline-shift:baseline;text-anchor:start;white-space:normal;shape-padding:0;clip-rule:nonzero;display:inline;overflow:visible;visibility:visible;opacity:1;isolation:auto;mix-blend-mode:normal;color-interpolation:sRGB;color-interpolation-filters:linearRGB;solid-color:#000000;solid-opacity:1;vector-effect:none;fill:#000000;fill-opacity:1;fill-rule:nonzero;stroke:none;stroke-width:20.33472824;stroke-linecap:butt;stroke-linejoin:miter;stroke-miterlimit:4;stroke-dasharray:none;stroke-dashoffset:0;stroke-opacity:1;color-rendering:auto;image-rendering:auto;shape-rendering:auto;text-rendering:auto;enable-background:accumulate"
   d="M 83.209686,69.244413 68.846698,83.640767 339.35419,353.50168 353.71718,339.10533 Z"
   id="path3758"
   inkscape:connector-curvature="0" /></svg>