<?xml version="1.0" encoding="iso-8859-1"?>
<!-- Generator: Adobe Illustrator 19.1.0, SVG Export Plug-In . SVG Version: 6.00 Build 0)  -->
<svg version="1.1" id="Capa_1" xmlns="http://www.w3.org/2000/svg" xmlns:xlink="http://www.w3.org/1999/xlink" x="0px" y="0px"
	 viewBox="0 0 491.542 491.542" style="enable-background:new 0 0 491.542 491.542;" xml:space="preserve">
<g>
	<g>
		<path d="M311.517,14.053c-99.265,0-180.024,80.66-180.024,179.805c0,41.538,14.182,79.827,37.955,110.303L0,451.176l22.889,26.313
			l170.577-147.994c31.628,27.496,72.926,44.168,118.051,44.168c99.266,0,180.025-80.661,180.025-179.805
			C491.542,94.713,410.784,14.053,311.517,14.053z M311.517,353.663c-88.237,0-160.024-71.688-160.024-159.805
			S223.279,34.053,311.517,34.053s160.025,71.688,160.025,159.805S399.755,353.663,311.517,353.663z"/>
		<polygon points="322.447,122.812 300.587,122.812 300.587,182.928 240.471,182.928 240.471,204.788 300.587,204.788 
			300.587,264.904 322.447,264.904 322.447,204.788 382.563,204.788 382.563,182.928 322.447,182.928 		"/>
	</g>
</g>
<g>
</g>
<g>
</g>
<g>
</g>
<g>
</g>
<g>
</g>
<g>
</g>
<g>
</g>
<g>
</g>
<g>
</g>
<g>
</g>
<g>
</g>
<g>
</g>
<g>
</g>
<g>
</g>
<g>
</g>
</svg>
